<svg id="Layer_1" data-name="Layer 1" xmlns="http://www.w3.org/2000/svg" width="0.42in" height="0.56in" viewBox="0 0 30.24 40.32"><path d="M15.16429.86a14.26022,14.26022,0,0,0-4.1,27.9l3,5.2a1.43581,1.43581,0,0,0,1.8.5,1.205,1.205,0,0,0,.5-.5l2.9-5.1a14.29212,14.29212,0,0,0,9.8-17.7,14.58273,14.58273,0,0,0-13.9-10.3Z" fill="#e150ff"/><circle cx="15.29772" cy="38.06" r="1.4" fill="#e150ff"/><path d="M16.902,13.761l-1.74121-2.39416a.92531.92531,0,0,0-.54413-.32648H13.52843c-.10883,0-.21765,0-.32648.21765a2.4377,2.4377,0,0,1-1.85.76178,2.12241,2.12241,0,0,1-1.85-.76178c-.10883-.10882-.10883-.10882-.32648-.10882H8.08716a.59846.59846,0,0,0-.54413.32648L5.693,13.761a.48575.48575,0,0,0,0,.54413L6.78125,15.611c.10883.10883.10883.10883.21765.10883s.10883-.10883.21766-.10883l.8706-.97943a.10658.10658,0,0,1,.10882-.10882V19.8552a.28857.28857,0,0,0,.32648.32647h5.76775a.28856.28856,0,0,0,.32647-.32647V14.52276l.10883.10882.8706.97943c.10883.10883.10883.10883.21765.10883h0c.10883,0,.10883-.10883.21766-.10883l1.08825-1.3059C17.01084,14.08745,17.01084,13.8698,16.902,13.761Z" fill="#fff"/><polygon points="24.629 21.433 22.126 14.795 18.861 14.795 16.358 21.433 17.881 21.651 17.664 22.086 23.432 22.086 23.214 21.651 24.629 21.433" fill="#fff"/><path d="M21.69033,9.1359l-1.08825,1.95886h0L19.51383,9.1359,17.44614,9.68l.76178,2.06768.54413.32647.32648,1.95886h3.15593l.32648-1.95886.54412-.32647L23.86684,9.68Z" fill="#fff"/></svg>