<svg id="Layer_1" data-name="Layer 1" xmlns="http://www.w3.org/2000/svg" width="0.42in" height="0.56in" viewBox="0 0 30.24 40.32"><path d="M15.16429.86a14.26022,14.26022,0,0,0-4.1,27.9l3,5.2a1.43581,1.43581,0,0,0,1.8.5,1.205,1.205,0,0,0,.5-.5l2.9-5.1a14.29212,14.29212,0,0,0,9.8-17.7,14.58273,14.58273,0,0,0-13.9-10.3Z" fill="#835227"/><circle cx="15.29772" cy="38.06" r="1.4" fill="#835227"/><path d="M22.36,12.28a9.78411,9.78411,0,0,0-.85-1.79,11.815,11.815,0,0,0-1.2-1.61c-.32-.35-.65-.68-1-1a3.6347,3.6347,0,0,0-2.49-1.05c-1.04-.03-2.08-.01-3.11-.02A3.95892,3.95892,0,0,0,10.9,7.9,13.86864,13.86864,0,0,0,9.46,9.43a9.9227,9.9227,0,0,0-1.65,3.05.30961.30961,0,0,0,.15.42c.59.39,1.17.78,1.76,1.17a.3018.3018,0,0,0,.47-.1c.33-.47.65-.94.97-1.42.04-.05.08-.11.12006-.16a.14783.14783,0,0,1,.00995.09,19.77974,19.77974,0,0,0-.44,4.13c-.00995.99005,0,1.98.01,2.96,0,.84-.01,1.67-.01,2.5a1.80556,1.80556,0,0,0,1.85,1.86,1.83342,1.83342,0,0,0,1.8-1.87c-.02-.94,0-1.88,0-2.82a1.99545,1.99545,0,0,1,.02-.35,1.50334,1.50334,0,0,1,.6-1,1.56285,1.56285,0,0,1,.62,1.25v2.81a2.06468,2.06468,0,0,0,.02.43,1.82282,1.82282,0,0,0,2.45,1.44,1.79759,1.79759,0,0,0,1.17-1.53c.02-.50995.01-1.02.01-1.53V16.52a19.57469,19.57469,0,0,0-.23-2.86c-.06-.42005-.15-.84-.22-1.26a.031.031,0,0,1,.02-.01,1.532,1.532,0,0,1,.11.16c.33.48.66.96.98,1.43a.29786.29786,0,0,0,.46.09c.14-.08.27-.17.4-.26.47-.31.93006-.62,1.39-.92a.30929.30929,0,0,0,.15-.34ZM15.21,13.98c-.05005.05005-.1.08-.17.01A12.36636,12.36636,0,0,1,13.53,12.43c-.02-.02-.03-.05-.05005-.07a.65335.65335,0,0,1-.08-.84.88431.88431,0,0,1,.85-.43.92491.92491,0,0,1,.58.29c.23.26.36.26.59,0a.88453.88453,0,0,1,.97-.24.96813.96813,0,0,1,.59.8.68037.68037,0,0,1-.1.21c-.27.35-.54.7-.83,1.02C15.79,13.46,15.49,13.71,15.21,13.98Zm1.12-6.56a1.21019,1.21019,0,1,1-2.42005,0Zm-4.35,15.7a1.1595,1.1595,0,0,1-.51-.78.16176.16176,0,0,1,.06006-.15,1.97787,1.97787,0,0,1,1.07-.4,2.03193,2.03193,0,0,1,1.23.42c.04.02.05.12.04.17A1.22761,1.22761,0,0,1,11.98,23.12Zm5.64.22a1.24846,1.24846,0,0,1-1.25-.94.18431.18431,0,0,1,.1-.24A2.19628,2.19628,0,0,1,17.59,21.79a1.91565,1.91565,0,0,1,1.12.41.16173.16173,0,0,1,.06.15A1.253,1.253,0,0,1,17.62,23.34Z" fill="#fff"/></svg>