<svg id="Layer_1" data-name="Layer 1" xmlns="http://www.w3.org/2000/svg" width="0.42in" height="0.56in" viewBox="0 0 30.24 40.32"><path d="M15.16429.86a14.26022,14.26022,0,0,0-4.1,27.9l3,5.2a1.43581,1.43581,0,0,0,1.8.5,1.205,1.205,0,0,0,.5-.5l2.9-5.1a14.29212,14.29212,0,0,0,9.8-17.7,14.58273,14.58273,0,0,0-13.9-10.3Z" fill="#7b9eb0"/><circle cx="15.29772" cy="38.06" r="1.4" fill="#7b9eb0"/><path d="M20.81,10.06209H9.78541A1.85746,1.85746,0,0,0,7.938,11.90954V14.358a1.85746,1.85746,0,0,0,1.84745,1.84745h1.25093v5.54235a.59764.59764,0,0,0,.59652.59542h7.32971a.59653.59653,0,0,0,.59541-.59542V16.20542H20.81A1.85746,1.85746,0,0,0,22.65747,14.358V11.90954A1.85746,1.85746,0,0,0,20.81,10.06209ZM18.36159,21.0867H12.22827V13.757H18.366V21.0867Zm3.04273-6.7343a.59764.59764,0,0,1-.59541.59653H19.558v-1.252h.59653a.59652.59652,0,0,0,.59541-.59541.641.641,0,0,0-.59541-.59653H10.38639a.59764.59764,0,0,0-.59542.59653.641.641,0,0,0,.59542.59541h.59652v1.252H9.72531a.59764.59764,0,0,1-.59541-.59653V11.904a.59763.59763,0,0,1,.59541-.59652H20.74992a.59875.59875,0,0,1,.59653.59652l.059,2.44843Z" fill="#fff"/><path d="M15.56593,16.85537V15.965a1.469,1.469,0,0,1,.53643.23817h.11908a.28269.28269,0,0,0,.29826-.29827.2159.2159,0,0,0-.06009-.17807,1.76179,1.76179,0,0,0-.89034-.41734v-.29826a.256.256,0,0,0-.23817-.23817h0a.2226.2226,0,0,0-.23928.23817v.29826A1.1196,1.1196,0,0,0,13.96,16.38238c0,.71449.59653.89033,1.13184,1.07285V18.468a1.83507,1.83507,0,0,1-.71449-.29826.22262.22262,0,0,0-.17918-.0601.28159.28159,0,0,0-.29715.29827.2226.2226,0,0,0,.059.17918,1.62713,1.62713,0,0,0,1.13184.47633v.29826h0c0,.11908.1202.23816.23928.17918a.25709.25709,0,0,0,.23817-.23928v-.29715A1.07953,1.07953,0,0,0,16.69666,17.975l.00111-.049C16.69777,17.21261,16.10236,16.97445,15.56593,16.85537Zm-.47744-.11909c-.29715-.0601-.47634-.17918-.47634-.41734a.42515.42515,0,0,1,.47634-.41735Zm.47744,1.72837v-.89034h0c.29826.059.47633.23817.47633.47633C16.04226,18.16639,15.92318,18.40455,15.56593,18.46465Z" fill="#fff"/></svg>