<svg id="Layer_1" data-name="Layer 1" xmlns="http://www.w3.org/2000/svg" width="0.42in" height="0.56in" viewBox="0 0 30.24 40.32"><path d="M15.16429.86a14.26022,14.26022,0,0,0-4.1,27.9l3,5.2a1.43581,1.43581,0,0,0,1.8.5,1.205,1.205,0,0,0,.5-.5l2.9-5.1a14.29212,14.29212,0,0,0,9.8-17.7,14.58273,14.58273,0,0,0-13.9-10.3Z" fill="#28cb1c"/><circle cx="15.29772" cy="38.06" r="1.4" fill="#28cb1c"/><path d="M18.164,15.22148l-.18467,1.60735H13.25613L13.05,15.187c-.69309.6184-1.2457,1.13791-1.82713,1.62289-.6024.50248-1.086.509-1.44155.04852-.40653-.52651-.17459-.97206.23349-1.35236,1.06423-.99182,2.12923-1.98373,3.22472-2.94034a1.6246,1.6246,0,0,1,.91659-.383,29.22933,29.22933,0,0,1,2.95034.00186,1.63083,1.63083,0,0,1,.91167.39795c1.09415.95811,2.15384,1.95559,3.22551,2.93936.03141.02884.05866.06228.08715.09421a.86686.86686,0,0,1,.10466,1.26281.83226.83226,0,0,1-1.25588.06706c-.33666-.26256-.641-.56625-.96517-.84525C18.90109,15.83107,18.5807,15.56962,18.164,15.22148Z" fill="#fff"/><path d="M18.1247,9.32475a2.51312,2.51312,0,1,1-5.023-.18061,2.51318,2.51318,0,1,1,5.023.18061Z" fill="#fff"/><path d="M12.99905,17.9349l1.77775,1.46443-.67568.96247a1.98233,1.98233,0,0,0,.07226.349c.21676.55763.49267,1.09753.65363,1.67014a1.09288,1.09288,0,0,1-.68188,1.361,1.04527,1.04527,0,0,1-1.45482-.4251,21.182,21.182,0,0,1-1.31389-3.05636,1.522,1.522,0,0,1,.3344-1.15208A9.16757,9.16757,0,0,1,12.99905,17.9349Z" fill="#fff"/><path d="M17.19236,20.40861l-.76258-.9349,1.76767-1.52515c.395.32494.73451.57626,1.04163.86234a1.439,1.439,0,0,1,.45369,2.03543c-.309.75-.62022,1.50238-.99017,2.22307a1.2075,1.2075,0,1,1-2.23709-.90807,7.53177,7.53177,0,0,1,.32949-.83292C16.91,21.05252,17.03177,20.77942,17.19236,20.40861Z" fill="#fff"/></svg>