<svg id="Layer_1" data-name="Layer 1" xmlns="http://www.w3.org/2000/svg" width="0.42in" height="0.56in" viewBox="0 0 30.24 40.32"><path d="M15.16429.86a14.26022,14.26022,0,0,0-4.1,27.9l3,5.2a1.43581,1.43581,0,0,0,1.8.5,1.205,1.205,0,0,0,.5-.5l2.9-5.1a14.29212,14.29212,0,0,0,9.8-17.7,14.58273,14.58273,0,0,0-13.9-10.3Z" fill="#7b9eb0"/><circle cx="15.29772" cy="38.06" r="1.4" fill="#7b9eb0"/><path d="M21.60952,15.30343c.95655.33221,1.09838.53565,1.09677,1.54627q-.00216,1.34958-.00819,2.69914c-.00316.88384-.27311,1.15325-1.16118,1.16291-.11495.00125-.22983.01-.416.01847,0,.42006.00454.83024-.00109,1.24028-.00787.57208-.20985.77606-.78405.79266-.26636.0077-.53367.0121-.79961-.001-.51268-.02524-.715-.236-.72916-.74978-.01105-.39934-.0123-.799-.01942-1.19841-.00023-.01338-.017-.02647-.0481-.072H11.131c0,.42315.00607.83454-.00149,1.24568-.01015.55129-.20506.754-.74935.7746a8.16839,8.16839,0,0,1-.89925-.00509.63532.63532,0,0,1-.66677-.70939c-.01146-.42919-.00247-.85892-.00247-1.31621-.16092-.00969-.27329-.0126-.38482-.02383a.8231.8231,0,0,1-.82242-.83639c-.01727-1.166-.02308-2.333.00707-3.49851.01626-.62846.45082-.92763,1.06624-1.04994.17569-1.12873.34916-2.25884.52889-3.38795A7.32993,7.32993,0,0,1,9.397,10.9575a.98942.98942,0,0,1,1.059-.80832q4.64852-.01327,9.29707-.00339c.62936.00148,1.015.39279,1.14261,1.10254.14421.80231.27954,1.60621.42045,2.40913C21.41345,14.21239,21.51374,14.76681,21.60952,15.30343Zm-.86439-.89858c-.19687-1.0318-.35852-2.02895-.58721-3.01048a.87773.87773,0,0,0-.95405-.65267c-2.73306.001-5.46613-.00479-8.19918.00128a.90063.90063,0,0,0-.98441.75073c-.18927.95578-.32344,1.92246-.48481,2.91114Zm-2.728,4.47139c0-.42334.008-.80376-.00208-1.18372-.01175-.44344-.15612-.5943-.608-.61209-.43268-.017-.86646-.00695-1.29976-.00709q-1.57494-.00053-3.14987.00007c-.32763-.00032-.62886.073-.6576.45576-.03306.44022-.00768.88483-.00768,1.34707Zm2.48227-2.47261a1.44984,1.44984,0,0,0-1.48451,1.42757,1.47782,1.47782,0,0,0,1.45552,1.46887,1.45865,1.45865,0,0,0,1.451-1.41459A1.42733,1.42733,0,0,0,20.49939,16.40363ZM8.39769,17.84349A1.43648,1.43648,0,0,0,9.853,19.30094a1.49024,1.49024,0,0,0,1.43349-1.45182,1.46159,1.46159,0,0,0-1.47828-1.44469A1.41466,1.41466,0,0,0,8.39769,17.84349Z" fill="#fff"/><path d="M22.15347,6.27725c.21915,1.50252.59276,1.92654,2.22058,2.43881a2.21968,2.21968,0,0,0-1.59579.802,11.02807,11.02807,0,0,0-.6673,1.48809,2.24205,2.24205,0,0,0-2.27148-2.33881A2.56309,2.56309,0,0,0,22.15347,6.27725Z" fill="#fff"/><path d="M8.12781,10.48408a.76516.76516,0,0,0-.6229-.677l.66716-.664.58666.66511Z" fill="#fff"/><path d="M5.99867,21.58947l.692-.67114.62274.6381-.65924.646c-.10015-.291-.23825-.61182-.65548-.613" fill="#fff"/><path d="M17.65786,9.18566l-.61672-.688.08009.19365.728-.63779-.24772-.17405.62742.677Z" fill="#fff"/><path d="M22.33594,12.83885l.45279-.35364-.19244-.01268L23.0311,12.9l-.00651-.1676-.40693.39032.093.12358Z" fill="#fff"/><path d="M23.44809,20.79358l.253.283-.24072.28908-.28465-.3024Z" fill="#fff"/></svg>