<?xml version="1.0" encoding="utf-8"?>
<!-- Generator: Adobe Illustrator 26.0.0, SVG Export Plug-In . SVG Version: 6.00 Build 0)  -->
<svg version="1.1" id="Layer_1" xmlns="http://www.w3.org/2000/svg" xmlns:xlink="http://www.w3.org/1999/xlink" x="0px" y="0px"
	 width="30.2px" height="40.3px" viewBox="0 0 30.2 40.3" style="enable-background:new 0 0 30.2 40.3;" xml:space="preserve">
<style type="text/css">
	.st0{fill:#A071FF;}
	.st1{fill:#FFFFFF;}
</style>
<g>
	<path class="st0" d="M15.1,0.9C7.2,0.9,0.8,7.3,0.8,15.2c0,6.3,4.1,11.8,10.1,13.6l3,5.2c0.4,0.6,1.2,0.8,1.8,0.5
		c0.2-0.1,0.4-0.3,0.5-0.5l2.9-5.1c7.6-2.2,12-10.1,9.8-17.7C27.1,5.1,21.5,0.9,15.1,0.9L15.1,0.9z"/>
	<circle class="st0" cx="15.1" cy="38" r="1.4"/>
	<path class="st1" d="M10.8,16.5v6.7c0,0.2,0.2,0.5,0.4,0.5c0,0,0,0,0,0h8.4c0.2,0,0.5-0.2,0.5-0.4c0,0,0,0,0,0v-6.7H10.8z
		 M15.4,22.7c-1.5,0-2.7-1.2-2.7-2.7s1.2-2.7,2.7-2.7s2.7,1.2,2.7,2.7v0C18.1,21.5,16.9,22.7,15.4,22.7
		C15.4,22.7,15.4,22.7,15.4,22.7z"/>
	<path class="st1" d="M16.8,12.1h-0.7c0.5-0.3,0.8-0.8,0.8-1.4v-0.4c0-0.8-0.7-1.4-1.4-1.4c-0.7,0-1.4,0.6-1.4,1.4v0.5
		c0,0.6,0.3,1.1,0.8,1.4h-0.7c-0.6,0-1.1,0.5-1.2,1.2v0.2h5.1v-0.2C18,12.6,17.5,12.1,16.8,12.1z"/>
	<path class="st1" d="M20.1,14.3h-9.3c-0.2,0-0.5,0.2-0.5,0.4c0,0,0,0,0,0v0.8h10.1v-0.8C20.4,14.6,20.3,14.4,20.1,14.3
		C20.1,14.3,20.1,14.3,20.1,14.3z"/>
	<path class="st1" d="M15.4,19.7c-0.2,0-0.5,0.2-0.5,0.4c0,0,0,0,0,0v1.1c0,0.3,0.2,0.5,0.5,0.5c0.3,0,0.5-0.2,0.5-0.5v-1.1
		c0-0.2-0.1-0.4-0.3-0.5C15.5,19.7,15.5,19.7,15.4,19.7z"/>
	<path class="st1" d="M15.4,18.5c-0.2,0-0.5,0.2-0.5,0.5c0,0,0,0,0,0v0.1c0,0.3,0.2,0.5,0.5,0.5c0.3,0,0.5-0.2,0.5-0.5l0,0V19
		c0-0.2-0.1-0.4-0.3-0.5C15.5,18.5,15.5,18.5,15.4,18.5z"/>
</g>
</svg>
