<svg id="Layer_1" data-name="Layer 1" xmlns="http://www.w3.org/2000/svg" width="0.42in" height="0.56in" viewBox="0 0 30.24 40.32"><path d="M15.16429.86a14.26022,14.26022,0,0,0-4.1,27.9l3,5.2a1.43581,1.43581,0,0,0,1.8.5,1.205,1.205,0,0,0,.5-.5l2.9-5.1a14.29212,14.29212,0,0,0,9.8-17.7,14.58273,14.58273,0,0,0-13.9-10.3Z" fill="#f96d49"/><circle cx="15.29772" cy="38.06" r="1.4" fill="#f96d49"/><path d="M21.65,12.89h.58c0-.12,0-.23-.01-.35V9.42c0-.42-.06995-.49-.5-.49H6.44c-.4,0-.48.08-.48.47v2.47c0,1.12-.01,2.25-.01,3.37v3.59c0,.38,0,.77.02,1.16.02.29.08.35.37006.36005q.465.01493.93,0a.32129.32129,0,0,1,.36.25,6.64825,6.64825,0,0,0,.27.61.35551.35551,0,0,0,.36.27c.36.01.72.03,1.08.03.37,0,.74-.02,1.11-.03h1.34c.33,0,.67,0,1,.01.35,0,.69.02,1.04.02.37,0,.74-.02,1.11-.03h1.34c.33,0,.67,0,1,.01.16,0,.31995,0,.47.01.12,0,.24.01.36.01a.56964.56964,0,0,1-.01-.13V19.83H6.52V9.45H21.65Z" fill="#e0e0e0"/><path d="M20.98,10.79a.61733.61733,0,0,0-.6-.57,1.512,1.512,0,0,0-.3-.02H8.11c-.69,0-.91.22-.91.89v7.15a1.619,1.619,0,0,0,.01.22.60082.60082,0,0,0,.54.61,2.41052,2.41052,0,0,0,.38.01H18.1V13.23c.03-.24.13-.34.38-.34h2.54V11.23A2.11756,2.11756,0,0,0,20.98,10.79Zm-9.83,3.59a1.00269,1.00269,0,0,1,.16-.2c.48-.48.97-.97,1.45-1.45l.03-.03c.2-.18.33-.21.44-.09.11005.12.08.25-.11.45-.47.47-.95.95-1.43,1.42a2.02741,2.02741,0,0,1-.28.21C11.19,14.69,11.08,14.53,11.15,14.38Zm4.09-1.33c-.32.33-.65.65-.98.98-.83.82-1.65,1.65-2.48,2.48a.86087.86087,0,0,1-.26.21.28944.28944,0,0,1-.24-.05.24344.24344,0,0,1-.04-.22.87014.87014,0,0,1,.19-.28c1.15-1.15,2.31-2.31,3.46-3.46a.81112.81112,0,0,1,.28-.17c.14-.04.26.07.26.25C15.38,12.85,15.32,12.96,15.24,13.05Z" fill="#e0e0e0"/><path d="M24.28,16.36c0-1.02.00995-2.05,0-3.07,0-.50995-.22-.74-.73-.75H20.64c-.75,0-1.5.02-2.26,0a.63484.63484,0,0,0-.62.61c-.01.1-.01.21-.01.31v8.11a.70143.70143,0,0,0,.76.68c.1-.01.21,0,.31,0,.24,0,.47.01.7,0,.26,0,.52-.01.78-.01h1.62c.24.01.48.02.73.02a7.18928,7.18928,0,0,1,.8-.02.723.723,0,0,0,.84-.79C24.27,19.76,24.28,18.06,24.28,16.36ZM20.99,13.35A1.37338,1.37338,0,0,1,22.41,14.73a1.38848,1.38848,0,0,1-1.4,1.4,1.39017,1.39017,0,0,1-.02-2.78Zm.01,8a2.27006,2.27006,0,1,1,2.29-2.27A2.24743,2.24743,0,0,1,21,21.35Z" fill="#fff"/></svg>