<svg id="Layer_1" data-name="Layer 1" xmlns="http://www.w3.org/2000/svg" width="0.42in" height="0.56in" viewBox="0 0 30.24 40.32"><path d="M15.16429.86a14.26022,14.26022,0,0,0-4.1,27.9l3,5.2a1.43581,1.43581,0,0,0,1.8.5,1.205,1.205,0,0,0,.5-.5l2.9-5.1a14.29212,14.29212,0,0,0,9.8-17.7,14.58273,14.58273,0,0,0-13.9-10.3Z" fill="#7b9eb0"/><circle cx="15.29772" cy="38.06" r="1.4" fill="#7b9eb0"/><path id="Shape" d="M21.43082,12.74028H18.45565a1.73515,1.73515,0,0,0-1.2329.50459L11.2867,19.24161a.60929.60929,0,0,1-.39272.1678H8.76138A1.98383,1.98383,0,0,0,7.35949,22.8356a2.16711,2.16711,0,0,0,1.51495.61765h3.19413a1.73032,1.73032,0,0,0,1.23172-.50578l5.94081-5.94318a.61164.61164,0,0,1,.39272-.1678h1.73749A2.27181,2.27181,0,0,0,22.88507,16.22a2.03739,2.03739,0,0,0,.61765-1.459,2.08976,2.08976,0,0,0-2.0719-2.02311ZM8.76138,20.81249a.7462.7462,0,0,0-.44746.16781.60338.60338,0,0,0-.1678.39272.282.282,0,0,1-.5629,0A1.23526,1.23526,0,0,1,7.92,20.53045a1.14483,1.14483,0,0,1,.84137-.33679.26777.26777,0,0,1,.282.282C9.04105,20.70063,8.93037,20.81249,8.76138,20.81249ZM19.134,15.65594h-.56052v.56052a.26662.26662,0,0,1-.28086.282h-.56052v.55933a.26657.26657,0,0,1-.282.282h-.55933v.56053a.26653.26653,0,0,1-.28205.28085h-.55933v.56052a.26776.26776,0,0,1-.25268.28205.27127.27127,0,0,1-.02936,0h-.55814v.55933a.26777.26777,0,0,1-.282.282h-.56052v.55814a.26662.26662,0,0,1-.28086.28205h-.56052v.55933a.26657.26657,0,0,1-.282.282h-.55933v.56052a.282.282,0,1,1-.56409,0v-.84494a.26776.26776,0,0,1,.25268-.282.27127.27127,0,0,1,.02936,0h.56052v-.56171a.26654.26654,0,0,1,.28086-.282h.56052v-.55933a.26658.26658,0,0,1,.25015-.28205.26928.26928,0,0,1,.03189,0h.55933v-.56052a.26653.26653,0,0,1,.282-.28085h.56052v-.56053a.26662.26662,0,0,1,.28086-.282h.56171v-.55933a.26657.26657,0,0,1,.282-.282h.55933v-.55933a.26777.26777,0,0,1,.28205-.282H18.013v-.557a.26777.26777,0,0,1,.25267-.282.27146.27146,0,0,1,.02937,0h.84138a.26777.26777,0,0,1,.282.282.27252.27252,0,0,1-.26008.28442Q19.14617,15.6565,19.134,15.65594Zm3.19413-.5629a.26538.26538,0,0,1-.28085-.282.5105.5105,0,0,0-.1678-.39153.60572.60572,0,0,0-.39272-.1678.282.282,0,0,1,0-.56409,1.23405,1.23405,0,0,1,.84137.338,1.13769,1.13769,0,0,1,.33679.84138C22.609,14.92643,22.44118,15.093,22.32812,15.093Z" fill="#fff"/><path d="M10.78092,16.77817v2.02311h.05594l1.62682-1.62562c0-.39272.05712-.67239-.22492-.952a.84731.84731,0,0,0-.952-.169A.79376.79376,0,0,0,10.78092,16.77817Z" fill="#fff"/><circle id="Oval" cx="11.61992" cy="14.47659" r="0.84138" fill="#fff"/><path d="M15.54594,9.87937l1.00918,1.01036a.27132.27132,0,0,0,.38361.00911l.00911-.00911,1.9041-1.9041.338.33679c.05594.11305.22373.11305.33679.05712a.30942.30942,0,0,0,.1678-.282V6.96609a.26777.26777,0,0,0-.25268-.282.27146.27146,0,0,0-.02937,0H17.45005a.313.313,0,0,0-.28086.1678c-.05712.11187,0,.22492.05712.33679l.22374.282L15.42694,9.49379a.29514.29514,0,0,0-.11187.22492c.11187,0,.169.11068.22492.16542Z" fill="#fff"/><path d="M13.97506,15.71187l1.7363-1.73749v-.119a.84138.84138,0,0,0-1.68275,0l-.05355,1.85175Z" fill="#fff"/><circle cx="14.81524" cy="11.61924" r="0.84138" fill="#fff"/></svg>