<svg id="Layer_1" data-name="Layer 1" xmlns="http://www.w3.org/2000/svg" width="0.42in" height="0.56in" viewBox="0 0 30.24 40.32"><path d="M15.11812.87306a14.28871,14.28871,0,0,0-4.23507,27.93472l2.99377,5.18528a1.30083,1.30083,0,0,0,2.25313,0l2.9487-5.1073A14.28627,14.28627,0,0,0,15.11812.87306Z" fill="#58427c"/><circle cx="15.11812" cy="38.01828" r="1.42866" fill="#58427c"/><path d="M19.885,9.66069a4.1503,4.1503,0,0,0-2.91,1.19h-3.71a4.12672,4.12672,0,0,0-2.9-1.19,4.17386,4.17386,0,0,0-4.17,4.17v4.76a2.97958,2.97958,0,0,0,5.61,1.39l1.69-3.18h3.25l1.7,3.19a2.97666,2.97666,0,0,0,5.6-1.4v-4.76A4.17176,4.17176,0,0,0,19.885,9.66069Zm-9.52,5.95a1.785,1.785,0,1,1,1.78-1.79v.01a1.79253,1.79253,0,0,1-1.78006,1.78Zm5.35-1.19h-1.19a.58479.58479,0,0,1-.59-.57953v-.01047a.59329.59329,0,0,1,.58653-.6l.00347,0h1.18992a.60178.60178,0,0,1,.6.6.5933.5933,0,0,1-.59655.59l-.00345,0Zm5.36,0h-.6v.6a.58478.58478,0,0,1-.57951.59H19.885a.59329.59329,0,0,1-.6-.58655l0-.00345v-.6h-.59a.59331.59331,0,0,1-.6-.58657l0-.00343a.60179.60179,0,0,1,.6-.6h.59v-.59a.60179.60179,0,0,1,.6-.6.59328.59328,0,0,1,.59.59651l0,.00349v.59h.6a.59328.59328,0,0,1,.59.59651l0,.00349a.58478.58478,0,0,1-.57951.59Z" fill="#fff"/></svg>