<svg id="Layer_1" data-name="Layer 1" xmlns="http://www.w3.org/2000/svg" width="0.42in" height="0.56in" viewBox="0 0 30.24 40.32"><path d="M15.11806.87315A14.28871,14.28871,0,0,0,10.883,28.80783l2.99377,5.18532a1.30084,1.30084,0,0,0,2.25313,0l2.9487-5.1073A14.28627,14.28627,0,0,0,15.11806.87315Z" fill="#fa808e"/><circle cx="15.11806" cy="38.01836" r="1.42866" fill="#fa808e"/><path d="M23.77181,14.79959a.838.838,0,0,1-.78454.538h-1.188v6.7581a.488.488,0,0,1-.48192.49313H17.249a.49539.49539,0,0,1-.48192-.49313V17.99383H14.3799v4.10192a.488.488,0,0,1-.48191.49313H9.82965a.488.488,0,0,1-.48191-.49313v-6.7581h-1.188a.83242.83242,0,0,1-.78454-.54916.85341.85341,0,0,1,.213-.93024L15.00754,7.1113a.83332.83332,0,0,1,1.14319,0l1.68113,1.53542v-.269a.488.488,0,0,1,.48192-.49313H21.676a.488.488,0,0,1,.48192.49313v4.214l1.40094,1.26646A.8472.8472,0,0,1,23.77181,14.79959Z" fill="#fff"/></svg>