<svg id="Layer_1" data-name="Layer 1" xmlns="http://www.w3.org/2000/svg" width="0.42in" height="0.56in" viewBox="0 0 30.24 40.32"><path d="M15.11808.87306A14.28871,14.28871,0,0,0,10.883,28.80774l2.99373,5.18532a1.30083,1.30083,0,0,0,2.25312,0l2.94871-5.1073A14.28627,14.28627,0,0,0,15.11808.87306Z" fill="#e761b2"/><circle cx="15.11809" cy="38.01828" r="1.42866" fill="#e761b2"/><path d="M21.5167,11.26672v-.02a1.403,1.403,0,0,0-1.32-1.4.21993.21993,0,0,0-.08-.01,2.49667,2.49667,0,0,1-2.49-2.49.14829.14829,0,0,0-.01-.07V7.26672c-.12-.72-2.1-.76-2.5-.76-.42,0-2.50995.04-2.50995.84v.02a2.49247,2.49247,0,0,1-2.49,2.47c-.03,0-.05.01-.07.01a1.38964,1.38964,0,0,0-1.32,1.37v.03c0,4.31,1.35,8.07,3.33,10v1.95a.275.275,0,1,0-.55,0v.83a.27924.27924,0,0,0,.08.2l.03.03a.21889.21889,0,0,0,.05005.03h.00995c.01,0,.01.01.02.01a.27677.27677,0,0,0,.09.01h6.67a.27923.27923,0,0,0,.2-.08c.01-.01.01-.02.02-.03.01-.01.02-.03.03-.04,0-.00995,0-.00995.01-.02a.031.031,0,0,1,.01-.02c0-.03.00995-.06.00995-.09v-.83a.27921.27921,0,0,0-.08-.2c-.01-.01-.02-.01-.03-.02-.02-.01-.03-.02-.05-.03a.0098.0098,0,0,1-.01-.01.03659.03659,0,0,1-.03-.01c-.02,0-.05-.01-.08-.01h-.28v-1.67C20.16672,19.31671,21.5167,15.56671,21.5167,11.26672Zm-8.4-3.37a6.41668,6.41668,0,0,0,2,.28,6.189,6.189,0,0,0,2-.29,3.08345,3.08345,0,0,0,1.06,1.81c-.08,2.15-2.21,5.44-3.06,5.44-.42,0-1.17-.83-1.82-1.92a8.31691,8.31691,0,0,1-1.23-3.53A3.10132,3.10132,0,0,0,13.11667,7.89672Zm2,14.19c-3.16,0-5.82995-4.96-5.84-10.83v-.02a.845.845,0,0,1,.84-.84h.06a3.11664,3.11664,0,0,0,1.36005-.35c.25,2.1,2.06,5.15,3.3,5.59v.09a1.11,1.11,0,1,0,.56,0v-.09c1.24-.42,3.05-3.49,3.31-5.59a3.03093,3.03093,0,0,0,1.34.35c.03,0,.05005.00995.07.00995a.83653.83653,0,0,1,.84.83v.01C20.9567,17.1167,18.28672,22.08667,15.11667,22.08667Z" fill="#fff"/></svg>