<?xml version="1.0" encoding="utf-8"?>
<!-- Generator: Adobe Illustrator 26.0.0, SVG Export Plug-In . SVG Version: 6.00 Build 0)  -->
<svg version="1.1" id="Layer_1" xmlns="http://www.w3.org/2000/svg" xmlns:xlink="http://www.w3.org/1999/xlink" x="0px" y="0px"
	 width="30.2px" height="40.3px" viewBox="0 0 30.2 40.3" style="enable-background:new 0 0 30.2 40.3;" xml:space="preserve">
<style type="text/css">
	.st0{fill:#4DDBC4;}
	.st1{fill:#FFFFFF;}
</style>
<g>
	<path class="st0" d="M15.1,0.9C7.2,0.9,0.8,7.3,0.8,15.2c0,6.3,4.1,11.8,10.1,13.6l3,5.2c0.4,0.6,1.2,0.8,1.8,0.5
		c0.2-0.1,0.4-0.3,0.5-0.5l2.9-5.1c7.6-2.2,12-10.1,9.8-17.7C27.1,5.1,21.5,0.9,15.1,0.9L15.1,0.9z"/>
	<circle class="st0" cx="15.1" cy="38" r="1.4"/>
	<path class="st1" d="M10,15.8l2.8,1.8c0.1,0.1,0.2,0.1,0.3,0.1c0.3,0,0.5-0.2,0.5-0.5c0-0.2-0.1-0.4-0.2-0.5l-2.8-1.8
		c-0.2-0.2-0.6-0.1-0.7,0.2C9.7,15.4,9.8,15.7,10,15.8L10,15.8L10,15.8z"/>
	<path class="st1" d="M19.8,19.3h-1.6c1.5-2.2,0.9-5.2-1.2-6.7c-0.3-0.2-0.7-0.4-1-0.5l0.8-1.2c0.4-0.6,0.2-1.4-0.3-1.8
		c-0.6-0.4-1.4-0.2-1.8,0.3c0,0,0,0,0,0.1l-3.3,5.2l2.1,1.4l1.5-2.4c1.6,0.3,2.6,1.9,2.2,3.5c-0.2,0.9-0.9,1.7-1.8,2.1H9.6
		c-0.6,0-1.1,0.5-1.1,1.1s0.5,1.1,1.1,1.1h10.2c0.6,0,1.1-0.5,1.1-1.1C20.9,19.8,20.4,19.3,19.8,19.3L19.8,19.3z"/>
</g>
</svg>
