<?xml version="1.0" encoding="utf-8"?>
<!-- Generator: Adobe Illustrator 26.0.0, SVG Export Plug-In . SVG Version: 6.00 Build 0)  -->
<svg version="1.1" id="Layer_1" xmlns="http://www.w3.org/2000/svg" xmlns:xlink="http://www.w3.org/1999/xlink" x="0px" y="0px"
	 width="30.2px" height="40.3px" viewBox="0 0 30.2 40.3" style="enable-background:new 0 0 30.2 40.3;" xml:space="preserve">
<style type="text/css">
	.st0{fill:#FFCE00;}
	.st1{fill:#FFFFFF;}
</style>
<g>
	<path class="st0" d="M15.1,0.9C7.2,0.9,0.8,7.3,0.8,15.2c0,6.3,4.1,11.8,10.1,13.7l3,5.2c0.4,0.6,1.2,0.8,1.8,0.5
		c0.2-0.1,0.4-0.3,0.5-0.5l3-5.1c7.6-2.2,12-10.1,9.8-17.7C27.1,5.1,21.5,0.9,15.1,0.9z"/>
	<circle class="st0" cx="15.1" cy="38" r="1.4"/>
	<path class="st1" d="M10,12.7c0.9,0,1.6-0.7,1.6-1.6S10.9,9.5,10,9.5s-1.6,0.7-1.6,1.6c0,0,0,0,0,0C8.4,12,9.1,12.7,10,12.7z"/>
	<path class="st1" d="M8.6,15v3.3c0,0.8,0.6,1.4,1.4,1.4c0,0,0,0,0,0h1.8v2.4c0,0.2,0.1,0.3,0.3,0.3h1.6c0.2,0,0.3-0.2,0.3-0.3v-3.5
		c0-0.6-0.5-1.2-1.2-1.2h-1.4V15c0-0.8-0.6-1.4-1.4-1.4C9.2,13.5,8.6,14.2,8.6,15z"/>
	<path class="st1" d="M20.6,12.7c0.9,0,1.6-0.7,1.6-1.6s-0.7-1.6-1.6-1.6c-0.9,0-1.6,0.7-1.6,1.6C19,12,19.7,12.7,20.6,12.7z"/>
	<path class="st1" d="M19.2,15v2.4h-1.4c-0.6,0-1.2,0.5-1.2,1.2v3.5c0,0.2,0.1,0.3,0.3,0.3h1.6c0.2,0,0.3-0.1,0.3-0.3v-2.4h1.8
		c0.8,0,1.4-0.6,1.4-1.4c0,0,0,0,0,0V15c0-0.8-0.6-1.4-1.4-1.4C19.8,13.5,19.2,14.2,19.2,15C19.2,15,19.2,15,19.2,15L19.2,15z"/>
	<path class="st1" d="M17.7,15.8c0.2,0,0.4-0.2,0.4-0.4c0-0.2-0.2-0.4-0.4-0.4h-4.7c-0.2,0-0.4,0.2-0.4,0.4c0,0.2,0.2,0.4,0.4,0.4h2
		v6.3c0,0.2,0.2,0.4,0.4,0.4c0.2,0,0.4-0.2,0.4-0.4c0,0,0,0,0,0v-6.3H17.7z"/>
</g>
</svg>
