<svg id="Layer_1" data-name="Layer 1" xmlns="http://www.w3.org/2000/svg" width="0.42in" height="0.56in" viewBox="0 0 30.24 40.32"><path d="M15.11808.87306A14.28871,14.28871,0,0,0,10.883,28.80774l2.99373,5.18532a1.30083,1.30083,0,0,0,2.25312,0l2.94871-5.1073A14.28627,14.28627,0,0,0,15.11808.87306Z" fill="#f96d49"/><circle cx="15.11809" cy="38.01828" r="1.42866" fill="#f96d49"/><path d="M18.657,25.26026H11.56825a2.0902,2.0902,0,0,1-1.63389-2.43953q0-3.64231,0-7.28464c0-2.11193-.004-4.22388.00168-6.3358a1.96988,1.96988,0,0,1,2.0738-2.07341q3.12948-.00208,6.259-.00043a2.00808,2.00808,0,0,1,1.39179.52891A2.30441,2.30441,0,0,1,20.307,8.90311V23.48364c-.05912.19154-.10464.38863-.17981.57361A2.09622,2.09622,0,0,1,18.657,25.26026ZM10.51544,9.605V22.47985h9.19312V9.605ZM15.915,23.93665a.804.804,0,1,0-.80047.79749A.81548.81548,0,0,0,15.915,23.93665Z" fill="#fff"/></svg>