<?xml version="1.0" encoding="utf-8"?>
<!-- Generator: Adobe Illustrator 26.0.0, SVG Export Plug-In . SVG Version: 6.00 Build 0)  -->
<svg version="1.1" id="Layer_1" xmlns="http://www.w3.org/2000/svg" xmlns:xlink="http://www.w3.org/1999/xlink" x="0px" y="0px"
	 width="30.2px" height="40.3px" viewBox="0 0 30.2 40.3" style="enable-background:new 0 0 30.2 40.3;" xml:space="preserve">
<style type="text/css">
	.st0{fill:#13B5C7;}
	.st1{fill:#FFFFFF;}
</style>
<g>
	<g>
		<path class="st0" d="M15.1,0.9C7.2,0.9,0.8,7.3,0.8,15.2c0,6.3,4.1,11.8,10.1,13.6l3,5.2c0.4,0.6,1.2,0.8,1.8,0.5
			c0.2-0.1,0.4-0.3,0.5-0.5l2.9-5.1c7.6-2.2,12-10.1,9.8-17.7C27.1,5.1,21.5,0.9,15.1,0.9z"/>
		<circle class="st0" cx="15.1" cy="38" r="1.4"/>
	</g>
	<g>
		<path class="st1" d="M13.3,5.4c-0.2,0-0.4,0.1-0.5,0.3l-3.4,18c0,0.2,0.1,0.3,0.4,0.3c0.2,0,0.4-0.1,0.5-0.3l0,0l3.4-18
			C13.7,5.6,13.6,5.5,13.3,5.4z"/>
		<path class="st1" d="M22.3,23.7L19,5.7c-0.1-0.2-0.3-0.3-0.5-0.3c-0.2,0-0.4,0.2-0.4,0.3l0,0l3.4,18c0.1,0.2,0.3,0.3,0.5,0.3
			C22.2,24,22.3,23.9,22.3,23.7z"/>
		<path class="st1" d="M15.7,22.3c-0.2,0-0.3,0.1-0.3,0.3v0.9c0,0.2,0.1,0.3,0.3,0.3c0.2,0,0.3-0.1,0.3-0.3v-0.9
			C16,22.4,15.9,22.3,15.7,22.3C15.7,22.3,15.7,22.3,15.7,22.3z"/>
		<path class="st1" d="M15.7,15.3c-0.2,0-0.3,0.1-0.3,0.3v1.7c0,0.2,0.1,0.3,0.3,0.3c0.2,0,0.3-0.1,0.3-0.3v-1.7
			C16,15.5,15.9,15.3,15.7,15.3z"/>
		<path class="st1" d="M15.7,18.8c-0.2,0-0.3,0.1-0.3,0.3v1.7c0,0.2,0.1,0.3,0.3,0.3c0.2,0,0.3-0.1,0.3-0.3v-1.7
			C16,18.9,15.9,18.8,15.7,18.8z"/>
		<path class="st1" d="M15.7,11.9c-0.2,0-0.3,0.1-0.3,0.3v1.7c0,0.2,0.1,0.3,0.3,0.3c0.2,0,0.3-0.1,0.3-0.3c0,0,0,0,0,0v-1.7
			C16,12,15.9,11.9,15.7,11.9C15.7,11.9,15.7,11.9,15.7,11.9z"/>
		<path class="st1" d="M15.7,8.4c-0.2,0-0.3,0.1-0.3,0.3v1.7c0,0.2,0.1,0.3,0.3,0.3c0.2,0,0.3-0.1,0.3-0.3c0,0,0,0,0,0V8.7
			C16,8.5,15.9,8.4,15.7,8.4C15.7,8.4,15.7,8.4,15.7,8.4z"/>
		<path class="st1" d="M15.7,5.7c-0.2,0-0.3,0.1-0.3,0.3v0.9c0,0.2,0.1,0.3,0.3,0.3c0.2,0,0.3-0.1,0.3-0.3c0,0,0,0,0,0V6
			C16,5.9,15.9,5.7,15.7,5.7C15.7,5.7,15.7,5.7,15.7,5.7z"/>
	</g>
</g>
</svg>
