<svg id="Layer_1" data-name="Layer 1" xmlns="http://www.w3.org/2000/svg" width="0.42in" height="0.56in" viewBox="0 0 30.24 40.32"><path d="M15.11808.87306A14.28871,14.28871,0,0,0,10.883,28.80774l2.99373,5.18532a1.30083,1.30083,0,0,0,2.25312,0l2.94871-5.1073A14.28627,14.28627,0,0,0,15.11808.87306Z" fill="#7b9eb0"/><circle cx="15.11809" cy="38.01828" r="1.42866" fill="#7b9eb0"/><path d="M20.90145,18.20391l1.62113,1.12217A1.21234,1.21234,0,0,1,24.352,20.89151a1.20974,1.20974,0,0,1-1.47087.44527,1.1804,1.1804,0,0,1-.64964-.64252,1.19536,1.19536,0,0,1-.01449-.916l-1.79777-1.24447-1.78759,1.23769a1.2051,1.2051,0,0,1-.06561,1.02942,1.17214,1.17214,0,0,1-.61843.5453,1.212,1.212,0,1,1,.37516-2.02492l1.61385-1.11679c-.02756-.021-.04823-.03806-.0702-.05327q-.678-.46932-1.35691-.93735a.77552.77552,0,0,0-.16147-.0812,5.05207,5.05207,0,0,1-1.23-.66973,3.733,3.733,0,0,1-1.09429-1.25,2.79127,2.79127,0,0,1-.33661-1.2177.69311.69311,0,0,0-.07274-.26442c-.10048-.22423-.2051-.44663-.30328-.67184a.09947.09947,0,0,0-.10861-.07109c-.53866.00251-1.07738-.00258-1.616.0038a.28207.28207,0,0,1-.29654-.27243.27586.27586,0,0,1,.29624-.27292c.60529-.00028,1.21059.00251,1.81585-.00186a.322.322,0,0,1,.32461.21076c.166.36921.334.73751.49815,1.10755a.1071.1071,0,0,0,.11451.07672q2.185-.003,4.37-.00154h.08955V10.11954c.12688,0,.242-.00755.35585.00128a4.6905,4.6905,0,0,1,1.63792.41663,4.12093,4.12093,0,0,1,1.95444,1.80512,3.41888,3.41888,0,0,1,.41207,1.43954,2.70432,2.70432,0,0,1-.28648,1.32182,3.78933,3.78933,0,0,1-1.42906,1.56087,5.20049,5.20049,0,0,1-1.00277.49212.84211.84211,0,0,0-.17384.09535c-.14591.099-.28868.20254-.43349.30315q-.43839.3046-.87755.60809C20.93974,18.17476,20.92419,18.187,20.90145,18.20391Zm-.48179-.33317.5551-.38533a7.2756,7.2756,0,0,1-1.1096.001Z" fill="#fff"/><path d="M9.21688,14.51215c-.01274-.19226-.02747-.37358-.036-.5552a3.11884,3.11884,0,0,1-.00821-.47584.806.806,0,0,1,1.60282.10322c.00932.18448.02571.3686.03969.56358.08666.00564.1722.01292.25789.0165.402.01681.80422.02915,1.206.05a.52773.52773,0,0,1,.505.47544.53536.53536,0,0,1-.34416.563.599.599,0,0,1-.22027.03421c-.42534-.01225-.85051-.03039-1.27574-.04644-.014-.00053-.028-.00007-.04661-.00007,0,.06733-.00359.13017.00059.19249.02557.38111.0533.76208.07943,1.14315.0089.1298.01547.25976.02272.38967.00532.09517.00518.094.09673.10612.37531.04947.75073.09815,1.12568.1502a.59707.59707,0,0,1,.49047.39138c.19638.47556.38706.95347.58,1.43044.12575.31081.2541.62059.37647.93273a.53481.53481,0,0,1-.52307.7431.51628.51628,0,0,1-.47978-.34221c-.08349-.19692-.16129-.39624-.24178-.59443-.00756-.01862-.01649-.03668-.03069-.068a3.33521,3.33521,0,0,1-2.01282,1.44048,3.28552,3.28552,0,0,1-2.45275-.31072,3.36233,3.36233,0,0,1-1.73978-3.32822A3.30582,3.30582,0,0,1,7.17,15.47886,3.3547,3.3547,0,0,1,9.21688,14.51215Zm.03644.54891c-.07856.01144-.14767.01728-.21475.0322-.12117.02695-.24311.053-.36128.09041A2.8272,2.8272,0,0,0,6.71762,17.9745a2.74657,2.74657,0,0,0,.5376,1.56751,2.78909,2.78909,0,0,0,2.04817,1.16107,2.74708,2.74708,0,0,0,1.2685-.17749,2.80462,2.80462,0,0,0,1.53533-1.41074.11207.11207,0,0,0,.00479-.10513c-.07893-.18942-.16434-.37692-.22887-.57128a.26565.26565,0,0,0-.26322-.21239c-.37088-.03514-.73966-.09361-1.10865-.14706a2.81321,2.81321,0,0,1-.55333-.0986.77948.77948,0,0,1-.52244-.53723,1.69951,1.69951,0,0,1-.0442-.34271c-.02914-.39832-.0547-.79691-.0815-1.19541C9.29118,15.62827,9.27275,15.35148,9.25332,15.06106Z" fill="#fff"/><path d="M8.57444,11.38636A1.23187,1.23187,0,1,1,9.78922,12.644,1.24573,1.24573,0,0,1,8.57444,11.38636Z" fill="#fff"/></svg>