<svg id="Layer_1" data-name="Layer 1" xmlns="http://www.w3.org/2000/svg" width="0.42in" height="0.56in" viewBox="0 0 30.24 40.32"><path d="M15.11808.87306A14.28871,14.28871,0,0,0,10.883,28.80774l2.99373,5.18532a1.30083,1.30083,0,0,0,2.25312,0l2.94871-5.1073A14.28627,14.28627,0,0,0,15.11808.87306Z" fill="#7b9eb0"/><circle cx="15.11809" cy="38.01828" r="1.42866" fill="#7b9eb0"/><circle cx="10.45829" cy="8.13575" r="1.41092" fill="#fff"/><path d="M13.15913,11.34191c-.29123-.91624-.79124-1.37236-1.53593-1.37236H9.296c-.74735,0-1.246.49868-1.53593,1.3697-.49867,1.41225-1.57981,4.407-1.57981,4.407a.68352.68352,0,0,0,1.28859.45479s.7899-2.16094,1.3697-3.69819c-.0399.29122.04122-.28724-.91358,4.9881,0,.125,0,.25.04122.2899a.46808.46808,0,0,0,.28857.125h.49868v4.85911a.78991.78991,0,1,0,1.57981.001V17.9444h.375v4.8631a.78991.78991,0,0,0,1.57981,0V17.9444h.49735a.31517.31517,0,0,0,.2899-.125c.04122-.08377.125-.16622.04122-.28856-1.03592-5.36311-.91091-4.73943-.99469-5.028.53857,1.57848,1.53592,3.98942,1.53592,4.11442a.67143.67143,0,0,0,1.24736-.49735C14.953,16.0348,13.6578,12.75017,13.15913,11.34191Z" fill="#fff"/><circle cx="20.68184" cy="8.13575" r="1.41092" fill="#fff"/><path d="M24.0888,11.58526A1.60641,1.60641,0,0,0,22.509,10.0121H18.89325a1.60641,1.60641,0,0,0-1.57981,1.57848v4.90566a.65426.65426,0,0,0,.64345.6649q.01073.00018.02146,0h0a.65426.65426,0,0,0,.6649-.64345q.00018-.01073,0-.02145v-4.911h0c0-.03989.04122-.125.16622-.125a.133.133,0,0,1,.125.125V22.80617a.78991.78991,0,0,0,1.57981,0V16.36592h.375v6.399a.7899.7899,0,1,0,1.57848.0648q.00132-.03238,0-.0648V11.54537a.125.125,0,0,1,.25,0h0V16.4497a.65427.65427,0,0,0,.64345.6649q.01072.00018.02146,0h0a.65427.65427,0,0,0,.6649-.64345q.00018-.01073,0-.02145Z" fill="#fff"/><path d="M16.02752,7.35249a.63963.63963,0,0,0-.62368.62235V22.3527a.62368.62368,0,0,0,1.24736,0V7.88441A.62368.62368,0,0,0,16.02752,7.35249Z" fill="#fff"/></svg>