<svg id="Layer_1" data-name="Layer 1" xmlns="http://www.w3.org/2000/svg" width="0.42in" height="0.56in" viewBox="0 0 30.24 40.32"><path d="M15.11808.87306A14.28871,14.28871,0,0,0,10.883,28.80774l2.99373,5.18532a1.30083,1.30083,0,0,0,2.25312,0l2.94871-5.1073A14.28627,14.28627,0,0,0,15.11808.87306Z" fill="#ffce00"/><circle cx="15.11809" cy="38.01828" r="1.42866" fill="#ffce00"/><path d="M17.69925,10.82837l1.73326,1.73391c.08717-.07377.20017-.157.29873-.25485.61239-.60786,1.21737-1.22323,1.83331-1.82746.3745-.36738.62408-.30218.74821.20352a4.0448,4.0448,0,0,1-3.8538,5.05708,4.35247,4.35247,0,0,1-1.19448-.20853.539.539,0,0,0-.64431.16052q-2.436,2.766-4.887,5.51874c-.22689.25554-.459.50708-.69951.74977a1.74861,1.74861,0,0,1-1.9753.4304,1.81043,1.81043,0,0,1-1.25474-1.7033,1.8878,1.8878,0,0,1,.68469-1.50841c.73832-.66349,1.48149-1.32158,2.22322-1.98128,1.30107-1.15716,2.59878-2.31814,3.90751-3.46656a.54734.54734,0,0,0,.179-.67359,4.0073,4.0073,0,0,1,3.10575-5.20982,3.59311,3.59311,0,0,1,1.73494.1194c.444.14556.50975.36873.18565.70367-.58863.6083-1.19419,1.20019-1.79126,1.80036C17.92029,10.58532,17.81416,10.70531,17.69925,10.82837Z" fill="#fff"/><path d="M15.851,18.40367c.459-.5259.8779-1.02065,1.31842-1.49535a.52221.52221,0,0,1,.35818-.07944c.35668.01308.71239.06572,1.06879.069a1.0069,1.0069,0,0,1,.71316.25449c.77125.70048,1.56062,1.38162,2.31656,2.09813a1.77953,1.77953,0,0,1,.55807,1.81816,1.86915,1.86915,0,0,1-3.12644.92035c-.80221-.80709-1.531-1.68732-2.28988-2.53725C16.46752,19.1154,16.17383,18.77315,15.851,18.40367Z" fill="#fff"/><path d="M12.57368,13.91821c-.413-.412-.779-.77686-1.14484-1.142-.24139-.241-.49151-.474-.72144-.72549a1.3012,1.3012,0,0,0-1.24321-.59609.398.398,0,0,1-.3255-.1528c-.44042-.69734-.861-1.40724-1.3116-2.153l1.01836-.889a1.55509,1.55509,0,0,1,.24645.10409c.573.3388,1.13854.69049,1.71549,1.02236a.54729.54729,0,0,1,.32706.59007,1.01573,1.01573,0,0,0,.39168.93372c.569.53238,1.10951,1.09527,1.65839,1.64892.38226.38559.38.42463-.02227.81278C12.98872,13.5392,12.809,13.7002,12.57368,13.91821Z" fill="#fff"/></svg>