<?xml version="1.0" encoding="utf-8"?>
<!-- Generator: Adobe Illustrator 26.0.0, SVG Export Plug-In . SVG Version: 6.00 Build 0)  -->
<svg version="1.1" id="Layer_1" xmlns="http://www.w3.org/2000/svg" xmlns:xlink="http://www.w3.org/1999/xlink" x="0px" y="0px"
	 width="30.2px" height="40.3px" viewBox="0 0 30.2 40.3" style="enable-background:new 0 0 30.2 40.3;" xml:space="preserve">
<style type="text/css">
	.st0{fill:#7B9EB0;}
	.st1{fill:#FFFFFF;}
</style>
<g>
	<path class="st0" d="M15.1,0.9C7.2,0.9,0.8,7.3,0.8,15.2c0,6.3,4.1,11.8,10.1,13.6l3,5.2c0.4,0.6,1.2,0.8,1.8,0.5
		c0.2-0.1,0.4-0.3,0.5-0.5l2.9-5.1c7.6-2.2,12-10.1,9.8-17.7C27.1,5.1,21.5,0.9,15.1,0.9L15.1,0.9z"/>
	<circle class="st0" cx="15.1" cy="38" r="1.4"/>
	<polygon class="st1" points="21.2,18.5 8.6,18.5 8.6,20.3 8.2,20.3 8.2,20.9 21.6,20.9 21.6,20.3 21.2,20.3 	"/>
	<path class="st1" d="M17.7,10.4c-0.2-0.1-0.3-0.2-0.4-0.3H17c0.2,0.2,0.4,0.3,0.6,0.4L17.7,10.4L17.7,10.4z"/>
	<path class="st1" d="M17.7,10.9c-0.3-0.1-0.7-0.3-0.9-0.6c0,0,0,0,0,0v0.1c0.2,0.3,0.5,0.5,0.9,0.6L17.7,10.9L17.7,10.9z"/>
	<path class="st1" d="M17.7,10.6c-0.3-0.1-0.5-0.3-0.7-0.5h0c0,0-0.1,0-0.1,0.1c0.2,0.3,0.5,0.5,0.8,0.6L17.7,10.6L17.7,10.6z"/>
	<path class="st1" d="M17.7,10.3c0-0.1-0.1-0.2-0.1-0.2h-0.2C17.4,10.2,17.6,10.3,17.7,10.3L17.7,10.3z"/>
	<path class="st1" d="M17.7,11.1c-0.3-0.1-0.7-0.3-0.9-0.5v0.2c0.2,0.3,0.5,0.4,0.9,0.5V11.1z"/>
	<path class="st1" d="M17.7,11.3c-0.3-0.1-0.6-0.2-0.9-0.5V11c0.2,0.2,0.5,0.4,0.9,0.4V11.3z"/>
	<path class="st1" d="M16.8,11.2c0.2,0.2,0.5,0.4,0.8,0.4c0,0,0-0.1,0-0.1v-0.1c-0.3,0-0.6-0.2-0.9-0.4
		C16.8,11.1,16.8,11.2,16.8,11.2z"/>
	<path class="st1" d="M17,11.7L17,11.7c0,0-0.1-0.1-0.2-0.2C16.8,11.6,16.9,11.7,17,11.7z"/>
	<path class="st1" d="M17.2,9.5C17.2,9.5,17.2,9.5,17.2,9.5l0,0.5H17v0.1h0.4V10h-0.2L17.2,9.5C17.3,9.5,17.3,9.5,17.2,9.5
		C17.2,9.5,17.2,9.5,17.2,9.5z"/>
	<path class="st1" d="M22,15.1c-0.1,0-0.3,0-0.4,0c-0.2,0-0.4,0.1-0.6,0l-0.3-0.1v-3.9h-0.4v1.4h-0.5v-0.5c0-0.2-0.1-0.3-0.3-0.3
		l0,0h-2.1v-0.1H17v0.1h0c-0.2,0-0.4,0.1-0.5,0.2c-0.7,0.4-1.6,0.6-2.4,0.6c-0.7,0-1.5-0.1-2.1-0.5c0.1,0,0.3,0,0.4,0
		c1.5,0,3-0.2,4.4-0.6l0,0c0.1,0.1,0.2,0.2,0.4,0.3h0.3c0,0,0,0,0.1,0c-0.3-0.1-0.6-0.2-0.8-0.4c-1.6,0.5-3.4,0.7-5.1,0.6
		c-0.1,0-0.2-0.1-0.3-0.1H10c-0.2,0-0.3,0.1-0.3,0.3v0.8H9.5c-0.1,0-0.1,0.1-0.1,0.1v0.7c0,0.1,0.1,0.1,0.1,0.1h0.2v2.1
		c0,0.2,0.1,0.3,0.3,0.3l0,0h1.4c0.2,0,0.3-0.1,0.3-0.3v-0.2c0-0.2,0.1-0.3,0.2-0.5c0.6-0.5,1.3-0.8,2.1-0.9
		c0.8-0.1,1.6,0.2,2.2,0.7c0.1,0.1,0.2,0.3,0.2,0.5l-0.3,2.6h3.8v-3.6h0.5v1.4h0.4v-0.2l0.3-0.1c0.2,0,0.4,0,0.6,0
		c0.1,0,0.3,0.1,0.4,0C22.2,15.6,22.3,15.3,22,15.1C22.1,15.2,22.1,15.1,22,15.1L22,15.1z M18,15.8c-0.8,0-1.5-0.7-1.5-1.5
		c0-0.8,0.7-1.5,1.5-1.5c0.8,0,1.5,0.7,1.5,1.5C19.5,15.1,18.8,15.8,18,15.8z"/>
</g>
</svg>
