<svg id="Layer_1" data-name="Layer 1" xmlns="http://www.w3.org/2000/svg" width="0.42in" height="0.56in" viewBox="0 0 30.24 40.32"><path d="M15.11808.87306A14.28871,14.28871,0,0,0,10.883,28.80774l2.99373,5.18532a1.30083,1.30083,0,0,0,2.25312,0l2.94871-5.1073A14.28627,14.28627,0,0,0,15.11808.87306Z" fill="#58427c"/><circle cx="15.11809" cy="38.01828" r="1.42866" fill="#58427c"/><path d="M18.57535,14.33455c.76941-.01746.54765.519.57545.91187.028.39583.0343.78133-.535.71178a6.75435,6.75435,0,0,1-.37949,1.24961,9.5156,9.5156,0,0,1-1.30476,2.10137c-.59408.63493-1.16569,1.15147-1.03872,2.14287.06319.49344-.42855.86158-.98083.86716-1.60931.01628-3.21906.01879-4.8283-.00112a.99053.99053,0,0,1-1.02582-1.14887,1.72449,1.72449,0,0,0-.67114-1.5243,6.051,6.051,0,0,1,.27092-9.24316.87745.87745,0,0,0,.39239-.82758,8.10063,8.10063,0,0,1-.00323-1.04643,1.01861,1.01861,0,0,1,1.05189-1.07937q2.38479-.02933,4.77015-.00182a.94917.94917,0,0,1,1.045,1.0627,2.6727,2.6727,0,0,0,1.06866,2.53456A5.37739,5.37739,0,0,1,18.57535,14.33455Zm-1.01463.84284a5.0725,5.0725,0,0,0-10.14484-.05267,5.07249,5.07249,0,1,0,10.14484.05267Z" fill="#fff"/><path d="M13.20841,15.15779a.72012.72012,0,0,1-.72057.71941.69558.69558,0,0,1-.19207-.02678l-2.10585,1.83112a.29085.29085,0,1,1-.38182-.43886l2.03367-1.76942a.7025.7025,0,0,1-.07334-.31547.72127.72127,0,0,1,.42839-.65887V12.24756a.291.291,0,0,1,.582,0v2.25136A.72041.72041,0,0,1,13.20841,15.15779Z" fill="#fff"/><rect x="16.54237" y="17.39581" width="1.82314" height="0.97234" fill="#cc1261"/><path d="M17.15009,13.85757l.21254.51318.46269.51231.78328.46h.43215a1.34451,1.34451,0,0,1,0-.40514,3.13021,3.13021,0,0,0-.13168-.67314l-.422-.78464-.63472-.24381-.4897.2971Z" fill="#cc1261"/><path d="M19.23727,18.04473v4.54894c-.04075.0018-.07757.00485-.11439.00487q-1.18027.00041-2.36054,0a.684.684,0,0,1-.73213-.73591q-.00051-1.773,0-3.546c0-.21781.05947-.27671.278-.27673q1.42783-.00015,2.85566,0C19.18414,18.03986,19.20447,18.04247,19.23727,18.04473Z" fill="#e0e0e0"/><path d="M20.15921,22.59874V18.0396c.18472,0,.3635,0,.54227,0q1.19415.00012,2.3883.00028c.21331,0,.27526.06006.2753.26885q.00032,1.783-.00015,3.56607a.682.682,0,0,1-.72321.72362q-1.19042.0016-2.38085.00031Z" fill="#e0e0e0"/><path d="M19.238,15.893v1.86925c-.03588.00192-.069.00526-.10212.00525q-1.4604,0-2.9208-.00078a.63959.63959,0,0,1-.68506-.68044c-.00083-.18367-.00276-.36739.00032-.551a.62491.62491,0,0,1,.632-.64711c1.005-.00656,2.01-.0027,3.015-.00265A.5609.5609,0,0,1,19.238,15.893Z" fill="#e0e0e0"/><path d="M20.162,15.89069c.03638-.00206.07009-.00563.1038-.00564q1.45566-.00045,2.91133.00018a.63539.63539,0,0,1,.66911.49214,1.44993,1.44993,0,0,1,.01862.29966c.00239.15937.00505.31905-.00174.4782a.62944.62944,0,0,1-.62716.61027c-1.00489.00313-2.00979.00168-3.01469.00183-.017,0-.034-.00233-.05927-.00419Z" fill="#e0e0e0"/><path d="M19.11224,15.62969a3.98181,3.98181,0,0,1-1.47265-.36484,1.5981,1.5981,0,0,1-.77876-.83159,1.05815,1.05815,0,0,1,.32438-1.23826,1.045,1.045,0,0,1,1.22125-.18389,1.77838,1.77838,0,0,1,.89529,1.09558,4.74522,4.74522,0,0,1,.22033,1.20239C19.53575,15.53634,19.3871,15.64966,19.11224,15.62969Zm-.20317-.60776a2.49121,2.49121,0,0,0-.36781-1.14017,1.38837,1.38837,0,0,0-.4053-.34521.45.45,0,0,0-.58912.122.474.474,0,0,0-.12452.601,1.04991,1.04991,0,0,0,.39246.43317A2.9034,2.9034,0,0,0,18.90907,15.02193Z" fill="#e0e0e0"/><path d="M22.61616,14.0359a1.34792,1.34792,0,0,1-.45337.9383,1.88181,1.88181,0,0,1-.76719.44179,4.66789,4.66789,0,0,1-1.20233.21974.288.288,0,0,1-.32016-.31244,4.2488,4.2488,0,0,1,.32222-1.47366,1.70974,1.70974,0,0,1,.63674-.74955,1.099,1.099,0,0,1,1.577.31551A1.03521,1.03521,0,0,1,22.61616,14.0359Zm-2.1286.9774a3.02793,3.02793,0,0,0,1.00451-.26915,1.10429,1.10429,0,0,0,.46263-.449.564.564,0,0,0-.44862-.81438.51107.51107,0,0,0-.2021.03308.94637.94637,0,0,0-.4366.34045A2.61066,2.61066,0,0,0,20.48756,15.0133Z" fill="#e0e0e0"/></svg>