<?xml version="1.0" encoding="utf-8"?>
<!-- Generator: Adobe Illustrator 23.0.1, SVG Export Plug-In . SVG Version: 6.00 Build 0)  -->
<svg version="1.1" id="Layer_1" xmlns="http://www.w3.org/2000/svg" xmlns:xlink="http://www.w3.org/1999/xlink" x="0px" y="0px"
	 width="19.843px" height="19.843px" viewBox="0 0 19.843 19.843" enable-background="new 0 0 19.843 19.843" xml:space="preserve">
<circle fill="#7B9EB0" stroke="#FFFFFF" stroke-miterlimit="10" cx="10.071" cy="9.971" r="8.504"/>
<g>
	<g>
		<circle fill="#FFFFFF" cx="11.63" cy="4.668" r="0.927"/>
		<path fill="#FFFFFF" d="M12.646,10.452c0.177-0.221-0.088-0.398-0.088-0.398l-0.839-0.618c-0.088-0.088-0.398-0.221-0.53,0
			c-0.177,0.177-0.088,0.398,0.088,0.486l0.486,0.398v0.045l-0.309,0.486c0,0,0,0.088-0.088,0.088
			c-0.309,0.706,0.177,0.927,0.309,1.016h0.088c0.177,0,0.839,0,1.413,0c0.706,0,0.706-0.486,0.706-0.486v-1.413l0,0
			c0,0,0-0.309-0.309-0.309c-0.221,0-0.221,0.177-0.221,0.221v0.088v0.53c0,0,0,0.088-0.088,0.088h-0.706l0,0
			C12.602,10.584,12.602,10.496,12.646,10.452z"/>
		<circle fill="#FFFFFF" cx="14.765" cy="11.291" r="0.618"/>
		<path fill="#FFFFFF" d="M15.383,12.306c0-0.177-0.088-0.221-0.221-0.221h-3.886c-0.177,0-0.221,0.088-0.221,0.221
			c0,0.177,0.088,0.221,0.221,0.221h3.886C15.295,12.571,15.383,12.483,15.383,12.306z"/>
		<path fill="#FFFFFF" d="M5.008,11.998h2.031v3.886c0,0.309,0.221,0.618,0.618,0.618c0.309,0,0.618-0.221,0.618-0.618v-3.886h1.634
			c0.177,0,0.177-0.088,0.177-0.221L9.158,8.245c0-0.088,0-0.221,0.177-0.309l1.502-0.927l0.088,1.104l1.855,1.413
			C12.867,9.613,12.955,9.613,13,9.613c0.045,0,0.221-0.088,0.309-0.177c0.177-0.177,0.088-0.398-0.088-0.53L11.676,7.67
			l-0.088-1.192c0-0.088,0-0.088-0.088-0.177c0,0,0,0,0-0.088l0,0l0,0l-1.545-1.81c-0.088-0.088-0.221-0.088-0.309,0l-2.34,2.826
			C7.216,7.317,7.128,7.45,7.084,7.627l-2.12,4.239C4.831,11.909,4.919,11.998,5.008,11.998z"/>
	</g>
</g>
</svg>
