<?xml version="1.0" encoding="utf-8"?>
<!-- Generator: Adobe Illustrator 23.0.1, SVG Export Plug-In . SVG Version: 6.00 Build 0)  -->
<svg version="1.1" id="Layer_1" xmlns="http://www.w3.org/2000/svg" xmlns:xlink="http://www.w3.org/1999/xlink" x="0px" y="0px"
	 width="19.843px" height="19.843px" viewBox="0 0 19.843 19.843" enable-background="new 0 0 19.843 19.843" xml:space="preserve">
<circle fill="#7B9EB0" stroke="#FFFFFF" stroke-miterlimit="10" cx="10.071" cy="9.971" r="8.504"/>
<g>
	<path fill="#FFFFFF" d="M12.388,7.465h-1.133V5.413h0.39c0.142,0,0.177-0.07,0.177-0.177V4.598c0-0.142-0.07-0.177-0.177-0.177
		H8.635c-0.142,0-0.177,0.07-0.177,0.177v0.566c0,0.142,0.07,0.177,0.177,0.177h0.39v2.053H7.892c-0.496,0-0.956,0.425-0.956,0.956
		v5.876c0,0.496,0.425,0.956,0.956,0.956v0.39c0,0.142,0.07,0.177,0.177,0.177h0.778c0.142,0,0.177-0.07,0.177-0.177v-0.318h2.266
		v0.39c0,0.142,0.07,0.177,0.177,0.177h0.743c0.142,0,0.177-0.07,0.177-0.177v-0.39c0.496,0,0.956-0.425,0.956-0.956V8.422
		C13.343,7.855,12.954,7.465,12.388,7.465z M8.458,13.944V8.776c0-0.142,0.07-0.177,0.177-0.177c0.142,0,0.177,0.07,0.177,0.177
		v5.168c0,0.142-0.07,0.177-0.177,0.177S8.458,13.979,8.458,13.944z M9.945,14.298V8.421c0-0.142,0.07-0.177,0.177-0.177
		c0.142,0,0.177,0.07,0.177,0.177v5.876c0,0.142-0.07,0.177-0.177,0.177C10.016,14.475,9.945,14.368,9.945,14.298z M11.857,13.944
		c0,0.142-0.07,0.177-0.177,0.177c-0.142,0-0.177-0.07-0.177-0.177V8.776c0-0.142,0.07-0.177,0.177-0.177
		c0.142,0,0.177,0.07,0.177,0.177V13.944z M9.414,7.465V5.413H10.9v2.053L9.414,7.465L9.414,7.465z M8.848,4.953V4.776h2.619v0.177
		H8.848z M8.635,15.431h-0.39v-0.177h0.39V15.431z M12.033,15.431h-0.39v-0.177h0.39V15.431z"/>
</g>
</svg>
