<?xml version="1.0" encoding="utf-8"?>
<!-- Generator: Adobe Illustrator 23.0.1, SVG Export Plug-In . SVG Version: 6.00 Build 0)  -->
<svg version="1.1" id="Layer_1" xmlns="http://www.w3.org/2000/svg" xmlns:xlink="http://www.w3.org/1999/xlink" x="0px" y="0px"
	 width="19.843px" height="19.843px" viewBox="0 0 19.843 19.843" enable-background="new 0 0 19.843 19.843" xml:space="preserve">
<circle fill="#4DC4FF" stroke="#FFFFFF" stroke-miterlimit="10" cx="10.071" cy="9.971" r="8.504"/>
<g>
	<g>
		<path fill="#FFFFFF" d="M5.529,13.459c0.277,0.277,0.611,0.416,1.003,0.416h7.098c0.392,0,0.726-0.138,1.003-0.416
			c0.277-0.277,0.415-0.611,0.415-1.003H5.113C5.113,12.847,5.252,13.182,5.529,13.459z"/>
		<path fill="#FFFFFF" d="M7.775,11.746h3.904c0.34,0,0.632-0.122,0.876-0.366c0.244-0.244,0.366-0.536,0.366-0.876v-0.177h0.355
			c0.588,0,1.09-0.208,1.506-0.624c0.415-0.416,0.624-0.918,0.624-1.506s-0.208-1.09-0.624-1.506s-0.918-0.624-1.506-0.624H6.888
			c-0.096,0-0.179,0.035-0.249,0.105c-0.07,0.07-0.105,0.154-0.105,0.249v4.081c0,0.34,0.122,0.633,0.366,0.876
			C7.143,11.623,7.435,11.746,7.775,11.746z M12.92,7.132h0.355c0.296,0,0.547,0.104,0.754,0.31c0.207,0.207,0.31,0.458,0.31,0.754
			c0,0.296-0.104,0.547-0.31,0.754c-0.207,0.207-0.458,0.31-0.754,0.31H12.92V7.132z"/>
	</g>
</g>
</svg>
