<svg id="Layer_1" data-name="Layer 1" xmlns="http://www.w3.org/2000/svg" width="19.44" height="19.44" viewBox="0 0 19.44 19.44"><circle cx="9.72" cy="9.72" r="8.5" fill="#7b9eb0" stroke="#fff" stroke-miterlimit="10"/><path d="M13.56508,10.18617c.57262.19887.65752.32066.65655.92564q-.00129.8079-.0049,1.61578c-.00189.52909-.16349.69037-.69511.69615-.06881.00075-.13758.006-.249.01106,0,.25146.00272.497-.00066.74246-.0047.34246-.12562.46457-.46935.47451-.15945.00461-.31947.00724-.47867-.0006-.3069-.0151-.428-.14126-.43649-.44884-.00662-.23905-.00736-.47827-.01162-.71739-.00015-.008-.01016-.01585-.0288-.04308H7.29234c0,.25331.00363.49958-.0009.7457-.00607.33-.12275.45139-.44858.4637a4.88889,4.88889,0,0,1-.53831-.00306.38031.38031,0,0,1-.39915-.42465c-.00686-.25693-.00148-.51418-.00148-.78792-.09633-.0058-.16359-.00755-.23036-.01427a.49272.49272,0,0,1-.49232-.50068c-.01034-.698-.01382-1.39659.00423-2.09431.00973-.37621.26987-.5553.63828-.62852.10517-.67569.209-1.3522.31661-2.02812a4.38689,4.38689,0,0,1,.114-.58515.59229.59229,0,0,1,.63392-.48388q2.78272-.008,5.56548-.002c.37675.00088.60764.23514.684.66.08633.48029.16734.96152.25169,1.44217C13.44771,9.533,13.50774,9.86494,13.56508,10.18617Zm-.51745-.53791c-.11785-.61767-.21462-1.21459-.35152-1.80215A.52543.52543,0,0,0,12.125,7.4554c-1.63608.0006-3.27217-.00287-4.90825.00076a.53913.53913,0,0,0-.58929.44941c-.11331.57215-.19362,1.15084-.29022,1.74269ZM11.41457,12.325c0-.25342.00479-.48115-.00124-.7086-.007-.26546-.09346-.35577-.364-.36642-.259-.0102-.51869-.00416-.77807-.00424q-.94281-.00031-1.8856,0c-.19613-.00019-.37645.04369-.39366.27283-.01979.26353-.00459.52968-.00459.80639Zm1.486-1.48017a.8679.8679,0,0,0-.88866.85458.88467.88467,0,0,0,.87131.87931.87319.87319,0,0,0,.86859-.84681A.85444.85444,0,0,0,12.90052,10.84478Zm-7.2444.86194a.85992.85992,0,0,0,.87117.87247.8921.8921,0,0,0,.85813-.8691.87494.87494,0,0,0-.88493-.86483A.84685.84685,0,0,0,5.65612,11.70672Z" fill="#fff"/><path d="M13.89071,4.78286c.13118.89945.35483,1.15327,1.32929,1.45993a1.32878,1.32878,0,0,0-.95528.48011,6.602,6.602,0,0,0-.39947.8908,1.34215,1.34215,0,0,0-1.35976-1.40007A1.53435,1.53435,0,0,0,13.89071,4.78286Z" fill="#fff"/><path d="M5.49456,7.30118a.458.458,0,0,0-.37288-.40525l.39938-.39751.35119.39815Z" fill="#fff"/><path d="M4.22,13.94916l.41424-.40176.37279.382-.39464.38673c-.06-.17417-.14262-.36625-.39239-.367" fill="#fff"/><path d="M11.19951,6.52391l-.36919-.41185.048.11592.43579-.38179L11.16577,5.742l.37559.40524Z" fill="#fff"/><path d="M13.99993,8.71081l.271-.2117-.11519-.00759.26029.25588-.0039-.10033-.2436.23366.0557.074Z" fill="#fff"/><path d="M14.6657,13.47272l.15143.16943-.1441.17306-.17041-.181Z" fill="#fff"/></svg>