<?xml version="1.0" encoding="utf-8"?>
<!-- Generator: Adobe Illustrator 23.0.1, SVG Export Plug-In . SVG Version: 6.00 Build 0)  -->
<svg version="1.1" id="Layer_1" xmlns="http://www.w3.org/2000/svg" xmlns:xlink="http://www.w3.org/1999/xlink" x="0px" y="0px"
	 width="19.843px" height="19.843px" viewBox="0 0 19.843 19.843" enable-background="new 0 0 19.843 19.843" xml:space="preserve">
<circle fill="#A071FF" stroke="#FFFFFF" stroke-miterlimit="10" cx="10.071" cy="9.971" r="8.504"/>
<g>
	<g>
		<g>
			<path fill="#FFFFFF" d="M6.882,9.884v4.693c0,0.175,0.14,0.315,0.315,0.315h5.813c0.175,0,0.315-0.14,0.315-0.315V9.884H6.882z
				 M10.104,14.226c-1.05,0-1.856-0.876-1.856-1.856c0-1.05,0.876-1.856,1.856-1.856c1.05,0,1.856,0.876,1.856,1.856
				C11.959,13.351,11.189,14.226,10.104,14.226z"/>
		</g>
	</g>
	<g>
		<g>
			<path fill="#FFFFFF" d="M11.049,6.837h-0.491l0,0c0.315-0.175,0.56-0.491,0.56-0.945v-0.28c0-0.56-0.42-0.981-0.981-0.981
				c-0.56,0-0.981,0.42-0.981,0.981v0.315c0,0.385,0.245,0.735,0.56,0.945l0,0l0,0H9.227c-0.42,0-0.806,0.385-0.806,0.806v0.14
				h3.537v-0.14C11.924,7.222,11.54,6.837,11.049,6.837z"/>
		</g>
	</g>
	<g>
		<g>
			<path fill="#FFFFFF" d="M13.325,8.413H6.882c-0.175,0-0.315,0.14-0.315,0.315v0.56h7.004v-0.56
				C13.606,8.588,13.466,8.413,13.325,8.413z"/>
		</g>
	</g>
	<g>
		<g>
			<path fill="#FFFFFF" d="M10.104,12.125c-0.175,0-0.315,0.14-0.315,0.315v0.735c0,0.175,0.14,0.315,0.315,0.315
				c0.175,0,0.315-0.14,0.315-0.315V12.44C10.419,12.23,10.313,12.125,10.104,12.125z"/>
		</g>
	</g>
	<g>
		<g>
			<path fill="#FFFFFF" d="M10.104,11.32c-0.175,0-0.315,0.14-0.315,0.315v0.07c0,0.175,0.14,0.315,0.315,0.315
				c0.175,0,0.315-0.14,0.315-0.315v-0.07C10.419,11.424,10.313,11.32,10.104,11.32z"/>
		</g>
	</g>
</g>
</svg>
