<svg id="Layer_1" data-name="Layer 1" xmlns="http://www.w3.org/2000/svg" width="19.44" height="19.44" viewBox="0 0 19.44 19.44"><circle cx="9.72" cy="9.72" r="8.5" fill="#f96d49" stroke="#fff" stroke-miterlimit="10"/><path d="M13.63649,8.09761h.34785c0-.072,0-.13793-.006-.20994V6.01637c0-.25189-.04195-.29388-.29988-.29388H4.51388c-.23992,0-.28788.048-.28788.28191V7.48583c0,.67175-.006,1.3495-.006,2.02124v2.15322c0,.22791,0,.46183.012.69572.012.174.048.20994.222.216q.2789.00894.55779,0a.1927.1927,0,0,1,.21591.14994,3.98624,3.98624,0,0,0,.162.36586.21322.21322,0,0,0,.21591.16191c.21591.006.43182.018.64777.018.22191,0,.44383-.012.66574-.018h.80368c.19794,0,.40188,0,.59978.006.20994,0,.41385.012.62379.012.22191,0,.44383-.012.66574-.018h.80372c.1979,0,.40184,0,.59977.006.096,0,.1919,0,.28188.006.072,0,.14394.006.21591.006a.34186.34186,0,0,1-.006-.078v-.92965H4.56188V6.03438h9.07461Z" fill="#e0e0e0"/><path d="M13.23462,6.83806a.37026.37026,0,0,0-.35985-.34184.90685.90685,0,0,0-.17993-.012H5.5155c-.41385,0-.54578.13194-.54578.53381V11.3064a.97168.97168,0,0,0,.006.132.36037.36037,0,0,0,.32387.36586,1.4467,1.4467,0,0,0,.22792.006h5.97975V8.30152c.018-.14394.078-.20391.22792-.20391h1.52345V7.102A1.27014,1.27014,0,0,0,13.23462,6.83806ZM7.33884,8.99127a.6022.6022,0,0,1,.09595-.12c.28788-.28788.5818-.58176.86968-.86968l.018-.018c.12-.10795.19793-.126.2639-.054s.048.14994-.066.26991c-.28187.28191-.56979.56979-.85767.85167a1.21733,1.21733,0,0,1-.168.126C7.36282,9.1772,7.29685,9.08126,7.33884,8.99127Zm2.45307-.79771c-.19194.19794-.38984.38987-.58777.58781-.49783.49182-.98965.98961-1.48743,1.48743a.51672.51672,0,0,1-.15595.126.17358.17358,0,0,1-.14394-.03.146.146,0,0,1-.024-.13193.5219.5219,0,0,1,.114-.168c.68976-.68972,1.38548-1.38548,2.07524-2.0752a.48641.48641,0,0,1,.16792-.102c.084-.024.156.042.156.14994C9.87588,8.07364,9.8399,8.1396,9.79191,8.19356Z" fill="#e0e0e0"/><path d="M15.21391,10.17882c0-.61175.006-1.22953,0-1.84132,0-.30585-.132-.44383-.43786-.44983H13.03071c-.44983,0-.89966.012-1.3555,0a.38075.38075,0,0,0-.37185.36589c-.006.06-.006.12593-.006.18593v4.86418a.42071.42071,0,0,0,.45584.40784c.06-.006.12593,0,.18593,0,.14394,0,.28187.006.41985,0,.15594,0,.31186-.006.4678-.006h.97164c.14394.006.28792.012.43786.012a4.31072,4.31072,0,0,1,.47981-.012.43361.43361,0,0,0,.50379-.47381C15.2079,12.21807,15.21391,11.19845,15.21391,10.17882Zm-1.97329-1.8053a.82373.82373,0,0,1,.85167.82766.83277.83277,0,0,1-.83966.8397.83379.83379,0,0,1-.012-1.66736Zm.006,4.79821a1.36153,1.36153,0,1,1,1.37348-1.3615A1.34794,1.34794,0,0,1,13.24662,13.17173Z" fill="#fff"/></svg>