<svg id="Layer_1" data-name="Layer 1" xmlns="http://www.w3.org/2000/svg" width="19.44" height="19.44" viewBox="0 0 19.44 19.44"><circle cx="9.72" cy="9.72" r="8.5" fill="#7b9eb0" stroke="#fff" stroke-miterlimit="10"/><path d="M10.96479,14.72H5.04818a.31072.31072,0,0,1-.14152-.29791,3.01185,3.01185,0,0,1,.00909-.43662,1.04257,1.04257,0,0,1,.1904-.446.45384.45384,0,0,0,.11974-.32718q-.0025-2.5744-.00111-5.14881c0-.70112-.00647-1.40231.002-2.10333A1.191,1.191,0,0,1,6.47527,4.72373c.98579-.00409,1.97168-.00732,2.95735.00443a1.44944,1.44944,0,0,1,.57.12132A1.15673,1.15673,0,0,1,10.68586,5.999c.00043.62078.00312,1.24159-.00194,1.86232-.00108.13264.0257.20779.16969.25329a1.02508,1.02508,0,0,1,.63646.53736,5.58468,5.58468,0,0,1,.35063.98019,5.29311,5.29311,0,0,1-.01129,1.93561,2.88152,2.88152,0,0,0,.09912,1.36266.64559.64559,0,0,0,.68524.46792.62519.62519,0,0,0,.63178-.50316,2.58262,2.58262,0,0,0,.06333-1.1285c-.09838-.846-.22471-1.68873-.33867-2.52546-.64569-.18829-.72765-.31756-.79245-1.23369a.16487.16487,0,0,0-.04977-.02583c-.18133-.02659-.16086-.16382-.1512-.28618.01016-.1286.11036-.13472.21067-.13329.09947.00143.199.00032.31688.00032,0-.22728-.00258-.42349.00071-.61961.00346-.20638.07013-.29417.21474-.29469.14454-.00052.21465.09026.21724.29061.00261.2016.00057.40326.00057.6114h.615c0-.08939-.00016-.16767,0-.24595.00037-.146-.004-.29235.003-.43809a.20089.20089,0,0,1,.20007-.21686c.14437-.00726.21289.08029.22746.21253a2.25648,2.25648,0,0,1,.00367.24078c.00036.14923.00011.29845.00011.4598.1259,0,.21286-.00138.29976.00027.21519.00409.302.10946.22243.30323-.02866.0698-.13161.10908-.21527.17356.00316.51741-.01158,1.04879-.71332,1.17771a5.12214,5.12214,0,0,0-.03241.73555c.05105.53681.14338,1.06957.20187,1.60584a3.62216,3.62216,0,0,1-.06474,1.45572,1.03863,1.03863,0,0,1-.68679.76375,1.1249,1.1249,0,0,1-1.51063-.75614,3.05921,3.05921,0,0,1-.09059-.4043A6.77809,6.77809,0,0,1,11.463,10.808a3.57971,3.57971,0,0,0-.24456-1.75849.83218.83218,0,0,0-.51022-.50841,1.02426,1.02426,0,0,0-.01273.10584c-.00071,1.53368-.00233,3.06738.00355,4.601a.32411.32411,0,0,0,.10674.21285A1.094,1.094,0,0,1,10.96479,14.72ZM7.97554,8.37023c.40138,0,.80279.00232,1.20415-.00064.40847-.003.59022-.18361.59158-.58512q.00247-.73353-.00017-1.46708a.51007.51007,0,0,0-.56473-.57177q-1.226-.00483-2.45209.00021a.50468.50468,0,0,0-.55784.5561q-.00489.75542-.0001,1.51087a.49711.49711,0,0,0,.55316.55614C7.15812,8.374,7.56685,8.37011,7.97554,8.37023Zm.36279,2.14909c.02431-.45208.05241-.86725.064-1.28289a.30817.30817,0,0,0-.09744-.23684c-.10509-.06519-.1638.04345-.21209.127q-.613,1.06067-1.225,2.12191c-.11522.201-.067.28.166.28461.1861.00367.37232.00074.57186.00074-.008.10377-.00976.18388-.02108.26261-.04978.34643-.10912.69169-.14872,1.03923a.29767.29767,0,0,0,.07814.24073c.0993.06595.166-.03157.21679-.11831.41643-.71106.83543-1.42062,1.25045-2.1325.12349-.21183.0654-.30218-.18839-.30591C8.64848,10.51758,8.504,10.51932,8.33833,10.51932Zm-2.97316,3.743H10.6041c.05672-.41349-.01934-.47347-.38181-.46753-.802.01312-1.60443.00408-2.40668.00408q-1.083,0-2.16607.00037c-.24286.00033-.29145.051-.2924.29644C5.357,14.14609,5.36184,14.19648,5.36517,14.26235Z" fill="#fff"/></svg>