<?xml version="1.0" encoding="utf-8"?>
<!-- Generator: Adobe Illustrator 23.0.1, SVG Export Plug-In . SVG Version: 6.00 Build 0)  -->
<svg version="1.1" id="Layer_1" xmlns="http://www.w3.org/2000/svg" xmlns:xlink="http://www.w3.org/1999/xlink" x="0px" y="0px"
	 width="19.843px" height="19.843px" viewBox="0 0 19.843 19.843" enable-background="new 0 0 19.843 19.843" xml:space="preserve">
<circle fill="#EE4D4D" stroke="#FFFFFF" stroke-miterlimit="10" cx="10.071" cy="9.971" r="8.504"/>
<g>
	<g>
		<g>
			<path fill="#FFFFFF" d="M14.369,9.612c-0.018-0.043-0.044-0.082-0.076-0.114l-1.049-1.05c-0.137-0.136-0.358-0.136-0.495,0
				c-0.137,0.137-0.137,0.358,0,0.495l0.453,0.453h-1.954c-0.194,0-0.35,0.157-0.35,0.35s0.156,0.35,0.35,0.35h1.954l-0.453,0.453
				c-0.137,0.137-0.137,0.358,0,0.495c0.068,0.069,0.158,0.103,0.247,0.103c0.09,0,0.179-0.034,0.247-0.103l1.05-1.05
				c0.032-0.032,0.058-0.071,0.076-0.114C14.405,9.795,14.405,9.698,14.369,9.612z"/>
			<path fill="#FFFFFF" d="M11.947,10.796c-0.194,0-0.35,0.157-0.35,0.35v1.749h-1.4V7.297c0-0.155-0.101-0.291-0.249-0.335
				L8.733,6.597h2.865v1.749c0,0.193,0.156,0.35,0.35,0.35c0.194,0,0.35-0.157,0.35-0.35V6.247c0-0.193-0.156-0.35-0.35-0.35H6.349
				c-0.013,0-0.023,0.005-0.036,0.006C6.296,5.906,6.281,5.909,6.266,5.912c-0.037,0.01-0.07,0.024-0.101,0.044
				C6.157,5.961,6.147,5.961,6.14,5.966C6.138,5.969,6.136,5.972,6.134,5.974c-0.039,0.03-0.07,0.067-0.093,0.111
				C6.035,6.094,6.034,6.105,6.03,6.115C6.019,6.141,6.007,6.167,6.002,6.196c-0.002,0.011,0.002,0.02,0.002,0.031
				c0,0.007-0.005,0.013-0.005,0.02v6.998c0,0.167,0.118,0.31,0.281,0.343l3.499,0.7c0.023,0.005,0.046,0.007,0.069,0.007
				c0.08,0,0.159-0.028,0.222-0.079c0.081-0.066,0.128-0.165,0.128-0.271v-0.35h1.749c0.194,0,0.35-0.157,0.35-0.35v-2.1
				C12.297,10.953,12.141,10.796,11.947,10.796z"/>
		</g>
	</g>
</g>
</svg>
