<svg id="Layer_1" data-name="Layer 1" xmlns="http://www.w3.org/2000/svg" width="19.44" height="19.44" viewBox="0 0 19.44 19.44"><circle cx="9.72" cy="9.72" r="8.5" fill="#e761b2" stroke="#fff" stroke-miterlimit="10"/><path d="M14.54225,9.07721a1.6194,1.6194,0,0,0-1.576-1.29095H6.47379a1.61937,1.61937,0,0,0-1.576,1.29095H4.22v.64548h.65623c.113,1.36626.936,1.93105,2.26455,1.93105a2.01763,2.01763,0,0,0,2.23765-1.8934,1.56757,1.56757,0,0,1,.68313,0,2.04288,2.04288,0,0,0,2.25917,1.8934,1.94141,1.94141,0,0,0,2.243-1.93105H15.22V9.07721Zm-4.47531.0269a2.49039,2.49039,0,0,0-.34963-.0269,2.621,2.621,0,0,0-.34963.0269,1.5199,1.5199,0,0,0-.29585-.67237h1.291a1.65172,1.65172,0,0,0-.29587.67237Z" fill="#fff"/></svg>