<svg id="Layer_1" data-name="Layer 1" xmlns="http://www.w3.org/2000/svg" width="19.44" height="19.44" viewBox="0 0 19.44 19.44"><circle cx="9.72" cy="9.72" r="8.5" fill="#58427c" stroke="#fff" stroke-miterlimit="10"/><path d="M12.71583,5.979a2.6093,2.6093,0,0,0-1.82956.74817H8.55373A2.59448,2.59448,0,0,0,6.73046,5.979,2.62416,2.62416,0,0,0,4.10872,8.60069v2.99268a1.87331,1.87331,0,0,0,3.52709.87392L8.69834,10.468h2.04332l1.06882,2.0056a1.87147,1.87147,0,0,0,3.5208-.8802V8.60069A2.62283,2.62283,0,0,0,12.71583,5.979ZM6.73046,9.7198A1.12226,1.12226,0,1,1,7.84957,8.59441v.00628A1.127,1.127,0,0,1,6.73042,9.7198Zm3.36363-.74817H9.34593A.36766.36766,0,0,1,8.975,8.60727V8.60069a.373.373,0,0,1,.36876-.37721l.00218,0h.74812a.37836.37836,0,0,1,.37723.37723.373.373,0,0,1-.37506.371l-.00217,0Zm3.36991,0h-.37723v.37723a.36766.36766,0,0,1-.36435.37094h-.00659a.373.373,0,0,1-.37721-.36877l0-.00217V8.97163h-.37094a.373.373,0,0,1-.37721-.36879l0-.00215a.37835.37835,0,0,1,.37723-.37723h.37094V7.85252a.37835.37835,0,0,1,.37723-.37723.373.373,0,0,1,.371.375l0,.0022v.37094H13.464a.373.373,0,0,1,.371.375l0,.0022a.36766.36766,0,0,1-.36435.37094Z" fill="#fff"/></svg>