<svg id="Layer_1" data-name="Layer 1" xmlns="http://www.w3.org/2000/svg" width="19.44" height="19.44" viewBox="0 0 19.44 19.44"><circle cx="9.72" cy="9.72" r="8.5" fill="#fa808e" stroke="#fff" stroke-miterlimit="10"/><path d="M13.53878,9.71712q0,1.63061-.00017,3.2612a1.60622,1.60622,0,0,1-.00482.19861.37187.37187,0,0,1-.38915.3456c-.18553.00368-.37119.00337-.55677.00163a.37077.37077,0,0,1-.39663-.33658.94391.94391,0,0,1-.00753-.15864q.00092-3.28105.00406-6.56209a1.34744,1.34744,0,0,1,.03616-.31381.26054.26054,0,0,1,.29274-.238c.22522-.005.45069.002.676-.00181a.29086.29086,0,0,1,.30748.22968,1.06041,1.06041,0,0,1,.0368.29309q.00366,1.64054.00154,3.28108Z" fill="#fff"/><path d="M7.31318,9.67879q0,1.5602-.00022,3.12037a3.25306,3.25306,0,0,1-.00731.39577.34066.34066,0,0,1-.3745.32908c-.18543.00354-.37109.00417-.55646-.00068a.3651.3651,0,0,1-.39369-.3808c-.00407-.07268-.00279-.1457-.00277-.21857q.00093-3.08064.00138-6.16128c0-.11228-.02128-.22521-.01405-.33664a1.39428,1.39428,0,0,1,.061-.32632.24616.24616,0,0,1,.23959-.179c.2575-.00526.51534-.00739.77272.00017a.25906.25906,0,0,1,.24731.22182A.73821.73821,0,0,1,7.30109,6.32q.0012,1.67937.00059,3.35875Z" fill="#fff"/><path d="M7.59858,10.26444c0-.10915.00114-.18067-.00021-.25213-.00389-.20491-.008-.40982-.0135-.61468-.00595-.22083.02306-.25324.246-.25344Q9.06181,9.143,10.29271,9.1439q.68495,0,1.36988.00064c.07058.00016.14114.00737.22608.01213v1.07614c-.05541.069-.14692.0525-.229.05334-.37718.00385-.7544.00431-1.13161.00435q-1.33017.00014-2.66034-.00221C7.78466,10.28809,7.70165,10.274,7.59858,10.26444Z" fill="#fff"/><path d="M5.69614,6.89669c.00315,1.85347.00652,3.6792.0077,5.50493a.60435.60435,0,0,1-.043.14671,4.77507,4.77507,0,0,1-.49427-.0036.386.386,0,0,1-.33-.34718,1.148,1.148,0,0,1-.00336-.13892Q4.833,9.74356,4.83309,7.42849c0-.05961-.00205-.11946.00245-.17878a.3665.3665,0,0,1,.368-.36766C5.35952,6.87606,5.51629,6.89054,5.69614,6.89669Z" fill="#fff"/><path d="M13.81868,12.52551c-.00424-.07831-.01016-.13681-.01018-.19532q-.0007-2.46315-.00068-4.9263c0-.10587-.00359-.2118-.0083-.31759-.00744-.16693.01321-.19379.18349-.20848.09222-.008.18516-.0113.27775-.01075a.36921.36921,0,0,1,.393.29408.867.867,0,0,1,.03.23463q.0033,2.31417.00446,4.62835a.5495.5495,0,0,1-.17006.42806.31431.31431,0,0,1-.14987.09072A1.30319,1.30319,0,0,1,13.81868,12.52551Z" fill="#fff"/><path d="M4.55023,9.70675c0,.13207.00518.26439-.0015.39611-.00628.12388-.063.17963-.16518.18232-.10095.00266-.16145-.0548-.16279-.17843-.0028-.25744.00283-.515.006-.77246a.253.253,0,0,1,.01245-.07779A.15988.15988,0,0,1,4.42481,9.144a.132.132,0,0,1,.12848.14676c.002.13863.00054.27731.00054.416Z" fill="#fff"/><path d="M15.2167,9.71773c0,.132.00409.26417-.00125.396-.00454.1122-.05061.15717-.138.15091-.09538-.00683-.11726-.07283-.11746-.15212-.00067-.27062-.003-.54129.00184-.81183.0019-.105.06171-.16338.14011-.15353.08937.01122.11815.07286.118.15477q-.00027.20791,0,.41584Z" fill="#fff"/></svg>