<svg id="Layer_1" data-name="Layer 1" xmlns="http://www.w3.org/2000/svg" width="19.44" height="19.44" viewBox="0 0 19.44 19.44"><circle cx="9.72" cy="9.72" r="8.5" fill="#fa808e"/><path d="M15.179,9.76194a.55815.55815,0,0,1-.52254.35833h-.79125v4.50118a.325.325,0,0,1-.321.32845H10.83451a.33.33,0,0,1-.321-.32845v-2.732h-1.59v2.732a.325.325,0,0,1-.321.32845H5.89289a.325.325,0,0,1-.321-.32845V10.12031H4.78067a.55444.55444,0,0,1-.52254-.36576A.56841.56841,0,0,1,4.4,9.135L9.34158,4.64121a.555.555,0,0,1,.76142,0l1.1197,1.02266V5.4847a.325.325,0,0,1,.321-.32845h2.2394a.325.325,0,0,1,.321.32845V8.2914l.93309.84352A.56427.56427,0,0,1,15.179,9.76194Z" fill="#fff"/></svg>