<svg id="Layer_1" data-name="Layer 1" xmlns="http://www.w3.org/2000/svg" width="19.44" height="19.44" viewBox="0 0 19.44 19.44"><circle cx="9.72" cy="9.72" r="8.5" fill="#58427c" stroke="#fff" stroke-miterlimit="10"/><path d="M9.68013,14.70851,8.46851,13.38434,7.22323,14.72l-.71947-.73221.75481-.65333-.05181-.0979c-.34985,0-.69978.00417-1.04952-.00188a2.00593,2.00593,0,0,1-.47569-.04377.94229.94229,0,0,1-.71524-.92159c-.00711-.85676-.00582-1.71364-.00107-2.57042.00212-.38368.15046-.60128.59683-.90822a1.76882,1.76882,0,0,1-.58918-1.5586,1.69367,1.69367,0,0,1,.5636-1.06456,1.77152,1.77152,0,0,1,2.51412.15379A2.24032,2.24032,0,0,1,10.48109,4.7337a2.11719,2.11719,0,0,1,1.85427,1.45288,2.23644,2.23644,0,0,1-.69329,2.54426,1.08186,1.08186,0,0,1,.83091,1.2997l2.00883-.7919v3.48843l-1.99121-.78513c-.00581.10331-.01234.17907-.014.25494a.98815.98815,0,0,1-1.0672,1.03924c-.54349.002-1.087.00041-1.67734.05671l.78928.64408Zm-.70719-7.731a1.24545,1.24545,0,0,0,1.2865,1.24631,1.2637,1.2637,0,0,0,1.2314-1.25794A1.28243,1.28243,0,0,0,10.20591,5.7002,1.25084,1.25084,0,0,0,8.97294,6.97754ZM6.7144,6.70722a.75832.75832,0,1,0,.75976.76963A.77489.77489,0,0,0,6.7144,6.70722ZM7.97187,8.7129h.8233l-.46741-.52057Z" fill="#fff"/></svg>