<svg id="Layer_1" data-name="Layer 1" xmlns="http://www.w3.org/2000/svg" width="19.44" height="19.44" viewBox="0 0 19.44 19.44"><circle cx="9.72" cy="9.72" r="8.5" fill="#4ddbc4" stroke="#fff" stroke-miterlimit="10"/><path d="M4.22,7.29768a6.59267,6.59267,0,0,1,.29107-.84921,1.08209,1.08209,0,0,1,1.8951-.2988,2.28821,2.28821,0,0,1,.67939,1.76192,1.508,1.508,0,0,1-.96835,1.36948,1.41853,1.41853,0,0,1-1.49762-.55738A5.031,5.031,0,0,1,4.22,7.95715Z" fill="#fff"/><path d="M9.06333,14.82847A4.55473,4.55473,0,0,1,6.00989,13.768a2.35051,2.35051,0,0,1-.037-3.85028A4.39676,4.39676,0,0,1,8.83045,8.80428a2.73952,2.73952,0,0,1,2.40632,1.29789,4.07179,4.07179,0,0,1,.7276,2.51405,2.14528,2.14528,0,0,1-1.93183,2.09111C9.66488,14.77494,9.28958,14.801,9.06333,14.82847Z" fill="#fff"/><path d="M10.215,6.585a1.66467,1.66467,0,0,1-.85309,1.4895,1.122,1.122,0,0,1-1.26639-.04689,1.70548,1.70548,0,0,1-.69928-1.80125,2.48612,2.48612,0,0,1,.72911-1.26392A1.046,1.046,0,0,1,9.81908,5.144,2.4213,2.4213,0,0,1,10.215,6.585Z" fill="#fff"/><path d="M13.46387,7.46887a2.176,2.176,0,0,1-.96963,1.79648A1.29855,1.29855,0,0,1,10.43441,8.252a2.13069,2.13069,0,0,1,1.98874-2.18611,1.08836,1.08836,0,0,1,1.02467,1.0574C13.45824,7.21386,13.45672,7.30582,13.46387,7.46887Z" fill="#fff"/><path d="M14.06744,9.32568a1.0095,1.0095,0,0,1,1.02087,1.528,1.98182,1.98182,0,0,1-1.42966,1.25,1.18749,1.18749,0,0,1-1.44054-1.55642A1.77988,1.77988,0,0,1,14.06744,9.32568Z" fill="#fff"/></svg>