<?xml version="1.0" encoding="utf-8"?>
<!-- Generator: Adobe Illustrator 23.0.1, SVG Export Plug-In . SVG Version: 6.00 Build 0)  -->
<svg version="1.1" id="Layer_1" xmlns="http://www.w3.org/2000/svg" xmlns:xlink="http://www.w3.org/1999/xlink" x="0px" y="0px"
	 width="19.843px" height="19.843px" viewBox="0 0 19.843 19.843" enable-background="new 0 0 19.843 19.843" xml:space="preserve">
<circle fill="#7B9EB0" stroke="#FFFFFF" stroke-miterlimit="10" cx="10.071" cy="9.971" r="8.504"/>
<g>
	<g>
		<g>
			<path fill="#FFFFFF" d="M14.277,12.803L14.277,12.803v-0.969c0-0.242-0.104-0.485-0.312-0.623L7.664,6.017
				C7.318,5.74,6.868,5.568,6.418,5.568c-0.45,0-0.831,0.381-0.831,0.831c0,0.035,0,0.069,0.035,0.069
				C5.657,6.641,5.83,6.813,6.002,6.813c0.242,0,0.415-0.173,0.415-0.415c0-0.138-0.069-0.277-0.208-0.346
				c0.069-0.035,0.138-0.069,0.208-0.069c0.346,0,0.692,0.138,0.969,0.346l0.692,0.59l0.901,3.843
				c0.104,0.381,0.277,0.692,0.554,0.935l-0.346,0.901c0.138,0,0.277,0.035,0.415,0.104l0.312-0.761
				c0.277,0.138,0.589,0.242,0.901,0.242c0.104,0,0.173,0,0.277-0.035l2.805-0.415c0,0.035,0.035,0.069,0.035,0.069v0.761"/>
		</g>
	</g>
	<path fill="#FFFFFF" d="M9.188,12.596C9.153,12.596,9.153,12.596,9.188,12.596L9.188,12.596z"/>
	<path fill="#FFFFFF" d="M13.654,12.596c-0.554,0-1.038,0.449-1.038,1.038c0,0.554,0.449,1.038,1.038,1.038
		c0.554,0,1.038-0.449,1.038-1.038C14.693,13.046,14.208,12.596,13.654,12.596z M13.654,13.843c-0.104,0-0.208-0.104-0.208-0.208
		c0-0.104,0.104-0.208,0.208-0.208c0.104,0,0.208,0.104,0.208,0.208C13.862,13.738,13.758,13.843,13.654,13.843z"/>
	<path fill="#FFFFFF" d="M9.193,12.596c-0.554,0-1.038,0.449-1.038,1.038c0,0.554,0.449,1.038,1.038,1.038
		c0.554,0,1.038-0.449,1.038-1.038C10.232,13.046,9.747,12.596,9.193,12.596z M9.193,13.843c-0.104,0-0.208-0.104-0.208-0.208
		c0-0.104,0.104-0.208,0.208-0.208c0.104,0,0.208,0.104,0.208,0.208C9.401,13.738,9.298,13.843,9.193,13.843z"/>
</g>
</svg>
