<svg id="Layer_1" data-name="Layer 1" xmlns="http://www.w3.org/2000/svg" width="19.44" height="19.44" viewBox="0 0 19.44 19.44"><circle cx="9.72" cy="9.72" r="8.5" fill="#7b9eb0" stroke="#fff" stroke-miterlimit="10"/><path d="M11.42061,13.46947c-.1727-.84845-.03693-1.1545.64534-1.42548a3.72114,3.72114,0,0,1-.49131-1.78359,5.46648,5.46648,0,0,1,.40094-1.96194.71306.71306,0,0,1,.96479-.47278.73889.73889,0,0,1,.36252.98014,7.601,7.601,0,0,0-.28255,1.16893,1.79489,1.79489,0,0,0,1.2827,2.0483c.15355.05625.318.0867.46537.155a.76215.76215,0,0,1,.43535.84887c-.06574.311-.29354.47257-.70935.475-.94057.00557-1.8812.00292-2.82179.00059A1.87554,1.87554,0,0,1,11.42061,13.46947Z" fill="#fff"/><path d="M6.86335,11.87512A2.28069,2.28069,0,0,1,4.751,8.62731,3.57527,3.57527,0,0,1,6.18741,6.84108a1.56268,1.56268,0,0,1,.83672-.21394.83267.83267,0,0,1,.78172.87509.89812.89812,0,0,1-.82647.85445c-.103.00945-.20767.00139-.342.00139a5.28283,5.28283,0,0,0-.46551,2.25507C6.19238,11.09336,6.30706,11.26815,6.86335,11.87512Z" fill="#fff"/><path d="M4.26416,13.49758c-.12223-.98282-.01809-1.20414.66244-1.44848a3.41338,3.41338,0,0,1-.49008-1.86584,2.733,2.733,0,0,1,.13775.2762,2.26928,2.26928,0,0,0,2.08895,1.56832c.23719.0304.47685.04238.71352.07589a.76168.76168,0,0,1,.65275.54007.59768.59768,0,0,1-.5205.84574C6.43518,13.51418,5.36042,13.49758,4.26416,13.49758Z" fill="#fff"/><path d="M9.54636,5.93471h.35492v7.53163l-.35492.01765Z" fill="#fff"/><path d="M14.93894,7.54966c-.17618.64681-.63214.93474-1.13581.77228a.86069.86069,0,0,1-.47646-1.26108Z" fill="#fff"/><path d="M14.93452,7.392l-1.47147-.45514a.70169.70169,0,0,1,.80358-.30814A.83962.83962,0,0,1,14.93452,7.392Z" fill="#fff"/></svg>