<?xml version="1.0" encoding="utf-8"?>
<!-- Generator: Adobe Illustrator 23.0.1, SVG Export Plug-In . SVG Version: 6.00 Build 0)  -->
<svg version="1.1" id="Layer_1" xmlns="http://www.w3.org/2000/svg" xmlns:xlink="http://www.w3.org/1999/xlink" x="0px" y="0px"
	 width="19.843px" height="19.843px" viewBox="0 0 19.843 19.843" enable-background="new 0 0 19.843 19.843" xml:space="preserve">
<circle fill="#CC1261" stroke="#FFFFFF" stroke-miterlimit="10" cx="10.071" cy="9.971" r="8.504"/>
<g id="XMLID_1_">
	<path id="XMLID_4_" fill="#FFFFFF" d="M9.572,6.412c0.678,0,1.187-0.509,1.187-1.187S10.25,4.037,9.572,4.037
		S8.385,4.547,8.385,5.224C8.386,5.903,8.894,6.412,9.572,6.412z"/>
	<path id="XMLID_3_" fill="#FFFFFF" d="M11.395,12.984c-0.297,1.06-1.272,1.866-2.459,1.866c-1.442,0-2.544-1.144-2.544-2.544
		c0-1.06,0.594-1.95,1.485-2.332V8.786c-1.485,0.467-2.544,1.781-2.544,3.434c0,1.95,1.654,3.604,3.604,3.604
		c1.442,0,2.714-0.805,3.307-2.12L11.863,12.9C11.608,12.984,11.523,12.984,11.395,12.984z"/>
	<path id="XMLID_2_" fill="#FFFFFF" d="M14.746,14.341l-1.569-3.095c-0.17-0.212-0.381-0.381-0.594-0.381h-2.035v-0.467h1.739
		c0.17,0,0.297-0.085,0.381-0.212c0.085-0.085,0.085-0.17,0.085-0.297c0-0.297-0.212-0.509-0.509-0.509h-1.102h-0.678V7.811
		c0-0.467-0.297-1.06-1.06-1.06c-0.594,0-1.061,0.467-1.061,1.06v3.392c0,0.594,0.467,1.06,1.06,1.06h1.866h0.721l1.357,2.714
		c0.17,0.212,0.381,0.381,0.594,0.381c0.085,0,0.212,0,0.297-0.085C14.746,15.104,14.915,14.722,14.746,14.341z"/>
</g>
</svg>
