<svg id="Layer_1" data-name="Layer 1" xmlns="http://www.w3.org/2000/svg" width="19.44" height="19.44" viewBox="0 0 19.44 19.44"><circle cx="9.72" cy="9.72" r="8.5" fill="#ffce00" stroke="#fff" stroke-miterlimit="10"/><path d="M11.66039,6.463l1.303,1.30348c.06553-.05546.15048-.11805.22457-.19159.46036-.457.91516-.91957,1.37819-1.37379.28154-.27618.46916-.22717.56247.153a3.04069,3.04069,0,0,1-2.8971,3.80167,3.27168,3.27168,0,0,1-.89795-.15677.40524.40524,0,0,0-.48436.12068Q9.018,12.19907,7.17538,14.26843c-.17057.19211-.34506.3812-.52586.56364a1.3145,1.3145,0,0,1-1.48493.32355,1.361,1.361,0,0,1-.94326-1.28046,1.41919,1.41919,0,0,1,.51472-1.13395q.83256-.74817,1.67131-1.48942c.97808-.8699,1.95364-1.74267,2.93748-2.606a.41146.41146,0,0,0,.13453-.50637,3.0125,3.0125,0,0,1,2.33476-3.91649,2.70106,2.70106,0,0,1,1.30424.08976c.33375.10942.3832.27719.13956.529-.4425.4573-.89774.90225-1.34658,1.35343C11.82656,6.28033,11.74677,6.37054,11.66039,6.463Z" fill="#fff"/><path d="M10.27095,12.15779c.345-.39535.66-.76728.99113-1.12414a.39254.39254,0,0,1,.26925-.05971c.26814.00983.53555.0494.80347.05184a.757.757,0,0,1,.53612.19132c.57979.52658,1.1732,1.03864,1.74147,1.57727a1.33777,1.33777,0,0,1,.41954,1.36681,1.40514,1.40514,0,0,1-2.35031.69187c-.60306-.60673-1.15089-1.26845-1.72142-1.90738C10.73443,12.69284,10.51365,12.43555,10.27095,12.15779Z" fill="#fff"/><path d="M7.80723,8.78584c-.31046-.30969-.58565-.584-.86063-.85853-.18147-.18115-.3695-.35633-.54234-.54538a.97818.97818,0,0,0-.93459-.44811A.29924.29924,0,0,1,5.225,6.819c-.33108-.52423-.64721-1.0579-.986-1.61854l.76555-.66828a1.169,1.169,0,0,1,.18527.07825c.43077.25469.8559.51907,1.28962.76855a.41143.41143,0,0,1,.24587.44359.76359.76359,0,0,0,.29444.70193c.42772.40022.83408.82337,1.2467,1.23958.28737.28986.28566.31921-.01674.611C8.11924,8.50091,7.98412,8.62194,7.80723,8.78584Z" fill="#fff"/></svg>