<?xml version="1.0" encoding="utf-8"?>
<!-- Generator: Adobe Illustrator 23.0.1, SVG Export Plug-In . SVG Version: 6.00 Build 0)  -->
<svg version="1.1" id="Layer_1" xmlns="http://www.w3.org/2000/svg" xmlns:xlink="http://www.w3.org/1999/xlink" x="0px" y="0px"
	 width="19.843px" height="19.843px" viewBox="0 0 19.843 19.843" enable-background="new 0 0 19.843 19.843" xml:space="preserve">
<circle fill="#7B9EB0" stroke="#FFFFFF" stroke-miterlimit="10" cx="10.071" cy="9.971" r="8.504"/>
<g>
	<g>
		<path fill="#FFFFFF" d="M15.041,13.123c0.242-0.049,0.339-0.387,0.242-0.581l-0.726-1.789c-0.145-0.194-0.242-0.339-0.581-0.339
			c-0.049,0-0.145,0-0.194,0c0.242-0.049,0.435-0.387,0.194-0.628c-0.435-0.435-0.871-0.967-1.306-1.354
			c-0.049-0.049-0.194-0.194-0.339-0.242c-0.339-0.145-0.726,0.145-0.822,0.435c-0.145,0.628-0.194,1.306-0.242,1.935
			c0,0.387,0.194,0.677,0.484,0.677c0.726,0,2.031,0,2.031,0l0.677,1.548C14.46,12.929,14.654,13.268,15.041,13.123z M12.622,10.366
			c0-0.242,0.049-0.484,0.049-0.726c0.242,0.242,0.435,0.484,0.677,0.677c0.049,0.049,0.049,0.049,0.145,0.049
			C13.155,10.366,12.912,10.366,12.622,10.366z"/>
		<circle fill="#FFFFFF" cx="12.381" cy="7.271" r="0.726"/>
		<path fill="#FFFFFF" d="M14.315,12.833c-0.387,0.628-1.064,0.967-1.886,0.967c-1.209,0-2.176-0.967-2.176-2.176
			c0-0.435,0.145-0.871,0.387-1.258V9.254l-0.145-0.049c0,0,0.194-0.049,0.242-0.242l0.145,0.049c0.049,0,0.049,0.049,0.049,0.145
			l0.049,0.919c0.049,0,0.145,0,0.194,0.049c0.049,0.049,0.049,0.194,0,0.242c-0.387,0.387-0.581,0.822-0.581,1.306
			c0,0.967,0.822,1.886,1.886,1.886c0.628,0,1.258-0.339,1.548-0.871c0.049-0.049,0.145-0.049,0.194-0.049
			C14.315,12.639,14.315,12.784,14.315,12.833z"/>
		<path fill="#FFFFFF" d="M10.736,8.964c0,0.194-0.242,0.242-0.242,0.242c-0.049,0-0.194,0-0.242,0s-0.145-0.049-0.194-0.049
			C9.623,8.964,9.188,8.722,8.753,8.529l0,0c-0.387,0.484-0.726,1.064-1.064,1.644c0.628,0.822,1.064,1.741,1.306,2.757
			c0.145,0.628-0.726,0.677-0.871,0.145c-0.194-0.822-0.484-1.499-0.967-2.176c-0.242,1.064-0.967,1.741-1.935,2.176
			c-0.628,0.194-0.871-0.677-0.387-0.871c0.967-0.387,1.548-1.112,1.499-2.273c0-0.194,0.049-0.339,0.145-0.435
			c0.387-0.677,0.822-1.354,1.306-2.031c0.242-0.339,0.677-0.242,0.967,0C8.8,7.513,8.896,7.61,8.896,7.658
			c0.581,0.242,1.112,0.581,1.693,0.871C10.736,8.625,10.736,8.819,10.736,8.964z"/>
		<circle fill="#FFFFFF" cx="9.141" cy="6.787" r="0.726"/>
	</g>
</g>
</svg>
