<svg id="Layer_1" data-name="Layer 1" xmlns="http://www.w3.org/2000/svg" width="0.42in" height="0.56in" viewBox="0 0 30.24 40.32"><path d="M15.16429.86a14.26022,14.26022,0,0,0-4.1,27.9l3,5.2a1.43581,1.43581,0,0,0,1.8.5,1.205,1.205,0,0,0,.5-.5l2.9-5.1a14.29212,14.29212,0,0,0,9.8-17.7,14.58273,14.58273,0,0,0-13.9-10.3Z" fill="#ff4da5"/><circle cx="15.29772" cy="38.06" r="1.4" fill="#ff4da5"/><path d="M21.08215,23.10732c-.46792.15418-.87368.28983-1.2808.42129-.24443.07893-.5293.06346-.65692.377-.03331.08187-.21186.12831-.3308.1479a8.895,8.895,0,0,1-2.9173.30648,16.24518,16.24518,0,0,0-2.3191-.01649,4.90785,4.90785,0,0,1-2.18729-.37342c-.71053-.393-1.51013-.53125-2.23209-.96246.111-.31609.21263-.61834.32274-.91749a42.39816,42.39816,0,0,1,3.20059-7.39168,3.32409,3.32409,0,0,0,.41537-3.05073,1.70155,1.70155,0,0,1-.05969-.95273,3.28785,3.28785,0,0,0-.16912-1.78886c-.07614-.26963-.13256-.54482-.20823-.86049l1.215-.33906-.13833,1.85193,1.40894.67532L16.501,9.58841l-.139-1.85856,1.26187.33884c-.15706.55414-.31195,1.02829-.42035,1.51284a1.79559,1.79559,0,0,0-.029.77894,2.98887,2.98887,0,0,1-.02953,1.43311,4.93679,4.93679,0,0,0-.20163,1.10544,2.08044,2.08044,0,0,0,.20914,1.03,43.08454,43.08454,0,0,1,3.281,7.29991c.17692.48871.36958.97172.54869,1.45967A4.04578,4.04578,0,0,1,21.08215,23.10732Z" fill="#fff"/></svg>