<svg id="Layer_1" data-name="Layer 1" xmlns="http://www.w3.org/2000/svg" width="0.42in" height="0.56in" viewBox="0 0 30.24 40.32"><path d="M15.16429.86a14.26022,14.26022,0,0,0-4.1,27.9l3,5.2a1.43581,1.43581,0,0,0,1.8.5,1.205,1.205,0,0,0,.5-.5l2.9-5.1a14.29212,14.29212,0,0,0,9.8-17.7,14.58273,14.58273,0,0,0-13.9-10.3Z" fill="#835227"/><circle cx="15.29772" cy="38.06" r="1.4" fill="#835227"/><path d="M15.92574,12.61747c-.05857.271-.10859.5146-.16676.75625a.12949.12949,0,0,1-.08858.072c-.52941.09711-1.05692.21224-1.59048.2768a2.11657,2.11657,0,0,1-1.36557-.25837,1.11356,1.11356,0,0,1-.39088-1.54255c.16857-.25645.383-.48241.55684-.73583a2.07354,2.07354,0,0,0,.24614-.496.34164.34164,0,0,0-.169-.407,1.2333,1.2333,0,0,0-.92946-.16479,4.89279,4.89279,0,0,0-2.26408,1.05448,5.616,5.616,0,0,0-2.14665,3.62731,5.70291,5.70291,0,0,0,1.09412,4.39091A4.7207,4.7207,0,0,0,11.712,21.13957a5.56885,5.56885,0,0,0,3.86343-.70019c.067-.03773.13276-.07788.19819-.11837.06513-.0403.12912-.08245.21688-.13871.01863.17018.03558.32365.052.47717a.27432.27432,0,0,0,.003.05753c.09391.27248-.0647.38127-.28074.49358a6.51193,6.51193,0,0,1-3.5206.76672,5.43351,5.43351,0,0,1-3.7568-1.85779,6.54492,6.54492,0,0,1,.50835-9.29421,5.93715,5.93715,0,0,1,2.60372-1.40042,2.24269,2.24269,0,0,1,1.60453.11826,1.20241,1.20241,0,0,1,.51757,1.76828c-.16392.26957-.38512.5038-.57249.75981a1.45759,1.45759,0,0,0-.19159.33553.30061.30061,0,0,0,.15569.4037,1.71273,1.71273,0,0,0,.50567.14945,4.42842,4.42842,0,0,0,1.41359-.15638C15.31972,12.74635,15.60607,12.68424,15.92574,12.61747Z" fill="#fff"/><path d="M16.61928,14.94607a5.23931,5.23931,0,0,0,2.184-.0238c-.01472.26014-.02653.50377-.04261.74712q-.11049,1.67132-.22264,3.3425c-.05243.79723-.10188,1.59464-.15336,2.39193-.00713.11046-.01522.221-.02815.33092a.55408.55408,0,0,1-.52139.509.5738.5738,0,0,1-.5698-.42351,6.383,6.383,0,0,1-.09233-.72891q-.12924-1.37236-.25189-2.74537-.1065-1.17159-.21163-2.34331c-.02516-.27792-.05158-.55572-.07652-.83366C16.627,15.10275,16.62469,15.03621,16.61928,14.94607Z" fill="#fff"/><path d="M17.676,7.45823c.23.32324.47452.63726.68672.9718a3.27462,3.27462,0,0,1,.58353,1.84242,1.9114,1.9114,0,0,1-.23847.93951,1.2028,1.2028,0,0,1-2.02906.1988,1.43609,1.43609,0,0,1-.22527-1.68645,6.08153,6.08153,0,0,1,.40465-.664A3.56376,3.56376,0,0,0,17.63394,7.474Z" fill="#fff"/><path d="M13.85308,19.21587a1.10173,1.10173,0,1,1-1.09848-1.10368A1.09482,1.09482,0,0,1,13.85308,19.21587Z" fill="#fff"/><path d="M9.82892,18.00491a1.10343,1.10343,0,1,1,1.11816-1.09768A1.10612,1.10612,0,0,1,9.82892,18.00491Z" fill="#fff"/><path d="M11.57524,13.66121a1.09172,1.09172,0,1,1-1.08343-1.10258A1.09448,1.09448,0,0,1,11.57524,13.66121Z" fill="#fff"/><path d="M18.87561,14.54842a4.447,4.447,0,0,1-2.25035.00654l.46214-2.14484a1.58287,1.58287,0,0,0,1.07728.01551Z" fill="#fff"/><path d="M15.78949,17.95575a1.25734,1.25734,0,1,1-.42868-2.4701c.20056-.02738.20627-.01922.22425.18026.06258.69411.12835,1.38794.19228,2.08193C15.78346,17.81437,15.78525,17.8813,15.78949,17.95575Z" fill="#fff"/><path d="M15.25042,17.61342a.83187.83187,0,0,1,.70507-.58572A1.6626,1.6626,0,0,1,17.027,17.153a.48379.48379,0,0,0,.41431.01059,2.37981,2.37981,0,0,1,.75657-.19455,1.585,1.585,0,0,0,1.64051-1.30649c.01094-.04237.02918-.0828.04165-.12483a4.56652,4.56652,0,0,1,2.49629-2.5946.66965.66965,0,0,1,.09252.09189.31876.31876,0,0,1,.05132.12016,2.11774,2.11774,0,0,0,.73613,1.25913,3.09744,3.09744,0,0,1,.34189.40022,2.36431,2.36431,0,0,1,.29809.53128.73618.73618,0,0,1-.30264.88623.6897.6897,0,0,1-.82.03852c-.07692-.04183-.1454-.099-.22176-.14205-.31425-.17713-.52608-.09234-.63.25768a.99362.99362,0,0,0-.04442.30257,12.77648,12.77648,0,0,0,.28978,2.74675c.07583.30808.18165.60878.286.95318l-1.01392.42993a2.10034,2.10034,0,0,0-2.11871-1.42508c-1.14909.07805-1.50532.91277-1.75835,1.88726l-1.07832-.22153A11.99692,11.99692,0,0,1,16.92,17.55206c-.41223.12077-.50047.13835-.73266.55639a1.26033,1.26033,0,0,1-1.80988.399A1.11618,1.11618,0,0,0,15.25042,17.61342Zm7.34586-3.06634a.357.357,0,0,0-.28963-.18189.21886.21886,0,0,0-.19227.31766c.039.09774.16641.16022.31963.2969C22.51522,14.78238,22.61733,14.65243,22.59628,14.54708Z" fill="#ddd"/><path d="M24.33263,20.50755l-.47906-.59013a8.64037,8.64037,0,0,1-8.474,1.16429l-.29064.67581A9.01845,9.01845,0,0,0,24.33263,20.50755Z" fill="#ddd"/></svg>