<?xml version="1.0" encoding="utf-8"?>
<!-- Generator: Adobe Illustrator 26.0.0, SVG Export Plug-In . SVG Version: 6.00 Build 0)  -->
<svg version="1.1" id="Layer_1" xmlns="http://www.w3.org/2000/svg" xmlns:xlink="http://www.w3.org/1999/xlink" x="0px" y="0px"
	 width="30.2px" height="40.3px" viewBox="0 0 30.2 40.3" style="enable-background:new 0 0 30.2 40.3;" xml:space="preserve">
<style type="text/css">
	.st0{fill:#7B9EB0;}
	.st1{fill:#FFFFFF;}
</style>
<g>
	<path class="st0" d="M15.1,0.9C7.2,0.9,0.8,7.3,0.8,15.2c0,6.3,4.1,11.8,10.1,13.6l3,5.2c0.4,0.6,1.2,0.8,1.8,0.5
		c0.2-0.1,0.4-0.3,0.5-0.5l2.9-5.1c7.6-2.2,12-10.1,9.8-17.7C27.1,5.1,21.5,0.9,15.1,0.9L15.1,0.9z"/>
	<circle class="st0" cx="15.1" cy="38" r="1.4"/>
	<path class="st1" d="M21.8,17.6c0.5,0,1,0.1,1.4,0.4h0.3c-0.3-0.8-1-1.2-1.8-1.2l-0.2,0.1c0-0.1,0.1-0.2,0.1-0.2c0,0,0,0,0,0
		l0.5-0.1v-0.7l-0.3-0.1c0,0,0-0.1,0-0.1c0-1-1.4-3.2-2.2-4.1c-0.2-0.3-0.6-0.5-1-0.4H12c-3.6,0-3.5,2.2-3.5,2.2v2.4h4.4v-3.4
		c0-0.2,0.1-0.3,0.3-0.3h2.3c0.2,0,0.4,0.1,0.4,0.3v6.1c0,0.2-0.1,0.5-0.3,0.5h-1.5c-0.2,0-0.4-0.2-0.4-0.4c0,0,0-1.4-0.6-1.8
		c-0.2-0.2-0.3-0.4-0.3-0.6H8.5v0.7l-0.3,0v0.7l0.3,0.1v2.2h11.1C19.6,18.5,20.6,17.6,21.8,17.6z M18.8,15.1h-1.8
		c-0.2,0-0.4-0.2-0.3-0.4v-2.4c0-0.2,0.2-0.3,0.3-0.3h1.6c0.2,0,0.3,0.1,0.3,0.3c0,0,0,0,0,0l0.3,2.4C19.1,15,19,15.1,18.8,15.1z
		 M20.1,14.8C20.1,14.8,20.1,14.8,20.1,14.8c-0.2,0-0.3-0.1-0.3-0.2l-0.4-2.1c0-0.2,0.1-0.3,0.2-0.3l0.1,0c0.6,0.8,1.1,1.6,1.5,2.5
		L20.1,14.8L20.1,14.8z"/>
	<path class="st1" d="M9,20c0.2,0.9,1.1,1.5,2.1,1.3c0.7-0.1,1.2-0.7,1.3-1.3H9z"/>
	<path class="st1" d="M21.7,17.9c-1,0-1.8,0.8-1.8,1.8c0,1,0.8,1.8,1.8,1.8c1,0,1.8-0.8,1.8-1.8c0,0,0,0,0,0
		C23.5,18.7,22.7,17.9,21.7,17.9z M21.7,20.2c-0.3,0-0.6-0.3-0.6-0.6c0-0.3,0.3-0.6,0.6-0.6c0.3,0,0.6,0.3,0.6,0.6c0,0,0,0,0,0
		C22.3,19.9,22,20.2,21.7,20.2C21.7,20.2,21.7,20.2,21.7,20.2z"/>
</g>
</svg>
