<svg id="Layer_1" data-name="Layer 1" xmlns="http://www.w3.org/2000/svg" width="0.42in" height="0.56in" viewBox="0 0 30.24 40.32"><path d="M15.16429.86a14.26022,14.26022,0,0,0-4.1,27.9l3,5.2a1.43581,1.43581,0,0,0,1.8.5,1.205,1.205,0,0,0,.5-.5l2.9-5.1a14.29212,14.29212,0,0,0,9.8-17.7,14.58273,14.58273,0,0,0-13.9-10.3Z" fill="#7b9eb0"/><circle cx="15.29772" cy="38.06" r="1.4" fill="#7b9eb0"/><path d="M18.90326,11.31147H16.99505V7.85552h.65672c.23881,0,.29738-.11828.29738-.29851V6.48688c0-.23993-.11264-.29851-.29738-.29851h-5.069c-.23993,0-.2985.11828-.2985.29851v.953c0,.23881.11827.29738.2985.29738h.65673v3.4582H11.33689a1.64125,1.64125,0,0,0-1.6097,1.6097V22.701a1.64238,1.64238,0,0,0,1.6097,1.60632v.65334c0,.2388.11828.29738.29851.29738h1.31006c.23881,0,.29738-.11265.29738-.29738v-.5362h3.81642v.65785c0,.23881.11264.29739.29851.29739h1.25036c.23993,0,.29851-.11828.29851-.29739v-.65785a1.64123,1.64123,0,0,0,1.60406-1.60406V12.92229a1.53306,1.53306,0,0,0-1.60744-1.61082Zm-6.619,10.9108v-8.703c0-.23993.11827-.29851.2985-.29851.23881,0,.29739.11828.29739.29851v8.703c0,.2388-.11265.2985-.29739.2985S12.28423,22.28084,12.28424,22.22227Zm2.50409.59589v-9.897c0-.23881.11828-.29851.29851-.29851.23881,0,.29739.11827.29739.29851v9.89924c0,.23881-.11265.29738-.29739.29738a.31653.31653,0,0,1-.29851-.29738Zm3.22053-.59589c0,.2388-.11828.2985-.29851.2985-.23881,0-.29851-.11827-.29851-.2985v-8.703c0-.23993.11828-.29851.29851-.29851.2388,0,.29851.11828.29851.29851Zm-4.11493-10.9108V7.85552h2.503v3.45707Zm-.953-4.23095V6.78314h4.41118v.29738Zm-.35821,17.64584H11.926v-.29851h.65672Zm5.72237,0H17.645v-.29851h.65672Z" fill="#fff"/></svg>