<svg id="Layer_1" data-name="Layer 1" xmlns="http://www.w3.org/2000/svg" width="0.42in" height="0.56in" viewBox="0 0 30.24 40.32"><path d="M15.16429.86a14.26022,14.26022,0,0,0-4.1,27.9l3,5.2a1.43581,1.43581,0,0,0,1.8.5,1.205,1.205,0,0,0,.5-.5l2.9-5.1a14.29212,14.29212,0,0,0,9.8-17.7,14.58273,14.58273,0,0,0-13.9-10.3Z" fill="#7b9eb0"/><circle cx="15.29772" cy="38.06" r="1.4" fill="#7b9eb0"/><path d="M13.61875,7.79977V9.00209h-3.607V22.22214h3.607v1.20011l6.60947-1.20232V9.00209Zm1.00157,7.41138c.19965,0,.40041.20076.40041.60006,0,.20076-.20076.60117-.40041.60117s-.40041-.40041-.40041-.80192A.4302.4302,0,0,1,14.62032,15.21115Zm-3.607,6.005V10.00366h2.6054v11.218Z" fill="#fff"/></svg>