<?xml version="1.0" encoding="utf-8"?>
<!-- Generator: Adobe Illustrator 26.0.0, SVG Export Plug-In . SVG Version: 6.00 Build 0)  -->
<svg version="1.1" id="Layer_1" xmlns="http://www.w3.org/2000/svg" xmlns:xlink="http://www.w3.org/1999/xlink" x="0px" y="0px"
	 width="30.2px" height="40.3px" viewBox="0 0 30.2 40.3" style="enable-background:new 0 0 30.2 40.3;" xml:space="preserve">
<style type="text/css">
	.st0{fill:#EE4D4D;stroke:#FFFFFF;stroke-width:1;stroke-miterlimit:9.9999;}
	.st1{fill:#FFFFFF;}
</style>
<g>
	<path class="st0" d="M15.1,0.9C7.2,0.9,0.8,7.3,0.8,15.2c0,6.3,4.1,11.8,10.1,13.6l3,5.2c0.4,0.6,1.2,0.8,1.8,0.5
		c0.2-0.1,0.4-0.3,0.5-0.5l2.9-5.1c7.6-2.2,12-10.1,9.8-17.7C27.1,5.1,21.5,0.9,15.1,0.9L15.1,0.9z"/>
	<circle class="st0" cx="15.1" cy="38" r="1.4"/>
	<path class="st1" d="M21.4,13h-3.1v-2c0-0.4-0.3-0.7-0.6-0.7c0,0,0,0,0,0h-4.2c-0.4,0-0.7,0.3-0.7,0.7v2H9.5
		c-0.4,0-0.7,0.3-0.7,0.7v7.2c0,0.4,0.3,0.7,0.7,0.7h11.8c0.4,0,0.7-0.3,0.7-0.7v-7.2C22,13.3,21.7,13,21.4,13z M13.6,11.1h3.8V13
		h-3.8L13.6,11.1L13.6,11.1z M17.7,18.2h-1.5v1.5h-1.9v-1.5h-1.5v-1.9h1.5v-1.4h1.9v1.5h1.5L17.7,18.2L17.7,18.2z"/>
</g>
</svg>
