<svg id="Layer_1" data-name="Layer 1" xmlns="http://www.w3.org/2000/svg" width="0.42in" height="0.56in" viewBox="0 0 30.24 40.32"><path d="M15.16429.86a14.26022,14.26022,0,0,0-4.1,27.9l3,5.2a1.43581,1.43581,0,0,0,1.8.5,1.205,1.205,0,0,0,.5-.5l2.9-5.1a14.29212,14.29212,0,0,0,9.8-17.7,14.58273,14.58273,0,0,0-13.9-10.3Z" fill="#4ddbc4"/><circle cx="15.29772" cy="38.06" r="1.4" fill="#4ddbc4"/><path d="M14.86544,10.1807h1.40491V8.34351a.69731.69731,0,0,0-.64842-.64842H11.19105c-.32421,0-.54035.21614-.54035.64842V9.64035h3.134A.94724.94724,0,0,1,14.86544,10.1807Z" fill="#fff"/><path d="M20.80929,17.20526a7.446,7.446,0,0,0-.86456-.32421c-1.40491-.54035-3.67438-1.40491-3.67438-2.91789V11.47755H14.97351v4.97122c0,.97263,2.26947,1.94526,3.35017,2.37755a7.446,7.446,0,0,1,.86456.32421,2.10676,2.10676,0,0,1,1.0807,1.0807h.97263a.69731.69731,0,0,0,.64842-.64842v-.64842a1.92513,1.92513,0,0,0-1.0807-1.72913Z" fill="#fff"/><path d="M14.43316,12.66632v-1.8372a.69731.69731,0,0,0-.64843-.64842H9.35386a.69731.69731,0,0,0-.64842.64842v1.8372Z" fill="#fff"/><path d="M18.9721,19.69087a7.446,7.446,0,0,0-.86456-.32421c-1.40491-.54035-3.67438-1.40491-3.67438-2.91789V13.96316H8.81351v8.21333a.69731.69731,0,0,0,.64842.64842h2.48562a.69731.69731,0,0,0,.64842-.64842v-.21614a13.01944,13.01944,0,0,0,3.56631.64842c1.72912.10807,3.2421.10807,3.35017.10807a.69731.69731,0,0,0,.64843-.64842V21.42A2.2554,2.2554,0,0,0,18.9721,19.69087Z" fill="#fff"/></svg>