<svg id="Layer_1" data-name="Layer 1" xmlns="http://www.w3.org/2000/svg" width="0.42in" height="0.56in" viewBox="0 0 30.24 40.32"><path d="M15.11808.87306A14.28871,14.28871,0,0,0,10.883,28.80774l2.99373,5.18532a1.30083,1.30083,0,0,0,2.25312,0l2.94871-5.1073A14.28627,14.28627,0,0,0,15.11808.87306Z" fill="#58427c"/><circle cx="15.11809" cy="38.01828" r="1.42866" fill="#58427c"/><path d="M15.05,24.0749,12.9211,21.74831l-2.188,2.34678L9.469,22.80858l1.32622-1.14791-.091-.172c-.61469,0-1.22952.00734-1.844-.0033a3.52438,3.52438,0,0,1-.8358-.0769A1.6556,1.6556,0,0,1,6.7677,19.78921c-.01249-1.50534-.01023-3.01089-.00189-4.51628.00374-.67413.26436-1.05644,1.04864-1.59576a3.10787,3.10787,0,0,1-1.0352-2.73846,2.97581,2.97581,0,0,1,.99026-1.87045,3.11257,3.11257,0,0,1,4.41735.2702A3.93629,3.93629,0,0,1,16.45725,6.549a3.72,3.72,0,0,1,3.258,2.55274A3.92945,3.92945,0,0,1,18.4971,13.572,1.90083,1.90083,0,0,1,19.957,15.85563l3.52955-1.39137v6.12922L19.988,19.214c-.0102.18152-.02168.31464-.02454.44794a1.73619,1.73619,0,0,1-1.87509,1.826c-.95491.00348-1.90984.00072-2.94711.09963L16.528,22.71918ZM13.8074,10.49147a2.18828,2.18828,0,0,0,2.26041,2.18978A2.22034,2.22034,0,0,0,18.2314,10.471a2.25324,2.25324,0,0,0-2.25765-2.22387A2.19772,2.19772,0,0,0,13.8074,10.49147Zm-3.96829-.475A1.33238,1.33238,0,1,0,11.174,11.36876,1.36149,1.36149,0,0,0,9.83911,10.01651Zm2.2094,3.524h1.44655l-.82125-.91464Z" fill="#fff"/></svg>