<svg id="Layer_1" data-name="Layer 1" xmlns="http://www.w3.org/2000/svg" width="0.42in" height="0.56in" viewBox="0 0 30.24 40.32"><path d="M15.11808.87306A14.28871,14.28871,0,0,0,10.883,28.80774l2.99373,5.18532a1.30083,1.30083,0,0,0,2.25312,0l2.94871-5.1073A14.28627,14.28627,0,0,0,15.11808.87306Z" fill="#f96d49"/><circle cx="15.11809" cy="38.01828" r="1.42866" fill="#f96d49"/><path d="M17.27825,12.53542c.17921.04939.3793.09239.57069.16a1.16865,1.16865,0,0,1,.66868.66016q.14335.31028.278.62456a.56713.56713,0,0,0,.5571.35613c.32234.01.64413.03994.96647.04664a1.08715,1.08715,0,0,1,.73411.36248,1.42281,1.42281,0,0,1,.444,1.05951c-.006,1.78218-.01192,3.56446.00167,5.34656a1.48057,1.48057,0,0,1-1.45749,1.46235q-4.92613-.01766-9.85236-.00061A1.47428,1.47428,0,0,1,8.741,21.16453c.01089-1.78932.00279-3.57875.00371-5.36814A1.41434,1.41434,0,0,1,9.637,14.44718a3.47219,3.47219,0,0,1,.63122-.11611.76761.76761,0,0,0,.33153-.16653.768.768,0,0,1,1.0565.008.63006.63006,0,0,0,.38.15466c.45918.0184.91967.01383,1.37942.005.35558-.00681.48047-.13611.63786-.52849a2.27029,2.27029,0,0,1,.51285-.88074,1.2639,1.2639,0,0,1,.74493-.34173c.06271-.00665.12531-.01443.16508-.019-.04962-.20058-.089-.39059-.14774-.57443a.19441.19441,0,0,0-.14246-.09273,3.10708,3.10708,0,0,0-.43037-.01453,1.01365,1.01365,0,0,1-.94344-.87363,1.61656,1.61656,0,0,1-.01874-.25748q-.00173-1.81093-.00111-3.62188a1.11919,1.11919,0,0,1,.40848-.92922.91969.91969,0,0,1,.591-.2231c1.06356.00224,2.12715-.00351,3.19067.00336a.93884.93884,0,0,1,.93255.81084,5.29027,5.29027,0,0,1,.07778.80741c.00889,1.01318.0136,2.02665-.002,3.03968a1.29654,1.29654,0,0,1-.34982.98108.99533.99533,0,0,1-.74405.27032.945.945,0,0,0-.27854.00891.30876.30876,0,0,0-.18449.14271A4.71547,4.71547,0,0,0,17.27825,12.53542Zm-.88653-3.67608v.001c.45984,0,.91969.00152,1.37952-.00114a1.81521,1.81521,0,0,0,.32135-.02575.45151.45151,0,0,0,.35477-.40517c.0053-.51.00151-1.02017.00093-1.53027a.35459.35459,0,0,0-.20732-.32755,1.11009,1.11009,0,0,0-.446-.12569c-.9411-.01107-1.88241-.00712-2.82365-.00468a.59705.59705,0,0,0-.67154.642c-.01344.38751-.02279.77712.00192,1.16351.02883.45088.17661.61485.62433.614C15.41456,8.85859,15.90314,8.85934,16.39172,8.85934Zm2.83676,9.53207a2.94407,2.94407,0,0,0-2.93962-2.95556,2.9801,2.9801,0,0,0-2.95334,2.93253,2.93077,2.93077,0,0,0,2.963,2.9757A2.89707,2.89707,0,0,0,19.22848,18.39141ZM13.1792,16.24217a.35129.35129,0,0,0-.39437-.39942.37218.37218,0,0,0-.41622.38941.41432.41432,0,0,0,.41787.42046A.36632.36632,0,0,0,13.1792,16.24217Z" fill="#fff"/><path d="M16.284,15.92375A2.47081,2.47081,0,1,1,13.80216,18.372,2.44432,2.44432,0,0,1,16.284,15.92375Z" fill="#fff"/></svg>