<?xml version="1.0" encoding="utf-8"?>
<!-- Generator: Adobe Illustrator 26.0.0, SVG Export Plug-In . SVG Version: 6.00 Build 0)  -->
<svg version="1.1" id="Layer_1" xmlns="http://www.w3.org/2000/svg" xmlns:xlink="http://www.w3.org/1999/xlink" x="0px" y="0px"
	 width="30.2px" height="40.3px" viewBox="0 0 30.2 40.3" style="enable-background:new 0 0 30.2 40.3;" xml:space="preserve">
<style type="text/css">
	.st0{fill:#7B9EB0;}
	.st1{fill:#7182FF;}
	.st2{fill:#FFFFFF;}
</style>
<g>
	<path class="st0" d="M15.1,0.9C7.2,0.9,0.8,7.3,0.8,15.2c0,6.3,4.1,11.8,10.1,13.6l3,5.2c0.4,0.6,1.2,0.8,1.8,0.5
		c0.2-0.1,0.4-0.3,0.5-0.5l2.9-5.1c7.6-2.2,12-10.1,9.8-17.7C27.1,5.1,21.5,0.9,15.1,0.9L15.1,0.9z"/>
	<circle class="st1" cx="15.1" cy="38" r="1.4"/>
	<path class="st2" d="M20.6,19.7L20.6,19.7v-1.3c0-0.3-0.2-0.7-0.4-0.9l-8.6-7.1c-0.5-0.4-1.1-0.6-1.7-0.6c-0.6,0-1.1,0.5-1.1,1.1
		c0,0,0,0.1,0,0.1c0.1,0.3,0.3,0.4,0.5,0.5c0.3,0,0.6-0.2,0.6-0.5c0,0,0,0,0,0c0-0.2-0.1-0.4-0.3-0.5c0.1-0.1,0.2-0.1,0.3-0.1
		c0.5,0,0.9,0.2,1.3,0.5l0.9,0.8l1.2,5.3c0.1,0.5,0.4,0.9,0.8,1.3l-0.5,1.2c0.2,0,0.4,0.1,0.6,0.1l0.4-1c0.4,0.2,0.8,0.3,1.2,0.3
		c0.1,0,0.3,0,0.4,0l3.8-0.6c0,0,0,0.1,0,0.1v1"/>
	<path class="st2" d="M19.8,19.4c-0.8,0-1.4,0.6-1.4,1.4s0.6,1.4,1.4,1.4c0.8,0,1.4-0.6,1.4-1.4C21.2,20,20.6,19.4,19.8,19.4z
		 M19.8,21.1c-0.2,0-0.3-0.1-0.3-0.3s0.1-0.3,0.3-0.3s0.3,0.1,0.3,0.3l0,0C20.1,21,19.9,21.1,19.8,21.1z"/>
	<path class="st2" d="M13.7,19.4c-0.8,0-1.4,0.6-1.4,1.4s0.6,1.4,1.4,1.4c0.8,0,1.4-0.6,1.4-1.4C15.1,20,14.5,19.4,13.7,19.4z
		 M13.7,21.1c-0.2,0-0.3-0.1-0.3-0.3s0.1-0.3,0.3-0.3c0.2,0,0.3,0.1,0.3,0.3l0,0C14,21,13.8,21.1,13.7,21.1z"/>
</g>
</svg>
