<svg id="Layer_1" data-name="Layer 1" xmlns="http://www.w3.org/2000/svg" width="0.42in" height="0.56in" viewBox="0 0 30.24 40.32"><path d="M15.11808.87306A14.28871,14.28871,0,0,0,10.883,28.80774l2.99373,5.18532a1.30083,1.30083,0,0,0,2.25312,0l2.94871-5.1073A14.28627,14.28627,0,0,0,15.11808.87306Z" fill="#7b9eb0"/><circle cx="15.11809" cy="38.01828" r="1.42866" fill="#7b9eb0"/><path d="M18.1003,21.37474c-.30265-1.48688-.06472-2.02324,1.131-2.49814a6.52133,6.52133,0,0,1-.861-3.12572,9.57991,9.57991,0,0,1,.70265-3.43828,1.24962,1.24962,0,0,1,1.69078-.82854,1.29489,1.29489,0,0,1,.63532,1.71768,13.3205,13.3205,0,0,0-.49517,2.04854,3.14554,3.14554,0,0,0,2.24792,3.58963c.26909.09858.55729.15195.81556.27171a1.3357,1.3357,0,0,1,.763,1.48764c-.11521.545-.51443.82816-1.24315.83248-1.64834.00977-3.29677.00511-4.94516.001A3.2867,3.2867,0,0,1,18.1003,21.37474Z" fill="#fff"/><path d="M10.11374,18.58066a3.99686,3.99686,0,0,1-3.70192-5.69175A6.26551,6.26551,0,0,1,8.92916,9.75855a2.73863,2.73863,0,0,1,1.46636-.37493,1.45924,1.45924,0,0,1,1.37,1.53359,1.574,1.574,0,0,1-1.4484,1.49742c-.18055.01655-.36393.00243-.59936.00243a9.25825,9.25825,0,0,0-.8158,3.952C8.93787,17.21063,9.13884,17.517,10.11374,18.58066Z" fill="#fff"/><path d="M5.55867,21.424c-.21421-1.72238-.0317-2.11023,1.16093-2.53845a5.98184,5.98184,0,0,1-.85885-3.26986,4.79251,4.79251,0,0,1,.2414.484A3.97687,3.97687,0,0,0,9.763,18.8482c.41568.05328.83568.07428,1.25045.133a1.33481,1.33481,0,0,1,1.14393.94647,1.04741,1.04741,0,0,1-.91216,1.48215C9.36338,21.45311,7.47987,21.424,5.55867,21.424Z" fill="#fff"/><path d="M14.81569,8.17013h.622V21.36927l-.622.03094Z" fill="#fff"/><path d="M24.26615,11.00032c-.30874,1.13354-1.10782,1.63813-1.99049,1.35342a1.50833,1.50833,0,0,1-.835-2.21Z" fill="#fff"/><path d="M24.2584,10.72394l-2.57874-.79762a1.2297,1.2297,0,0,1,1.40828-.54A1.47138,1.47138,0,0,1,24.2584,10.72394Z" fill="#fff"/></svg>