<?xml version="1.0" encoding="utf-8"?>
<!-- Generator: Adobe Illustrator 26.0.0, SVG Export Plug-In . SVG Version: 6.00 Build 0)  -->
<svg version="1.1" id="Layer_1" xmlns="http://www.w3.org/2000/svg" xmlns:xlink="http://www.w3.org/1999/xlink" x="0px" y="0px"
	 width="30.2px" height="40.3px" viewBox="0 0 30.2 40.3" style="enable-background:new 0 0 30.2 40.3;" xml:space="preserve">
<style type="text/css">
	.st0{fill:#A071FF;}
	.st1{fill:#FFFFFF;}
</style>
<g>
	<path class="st0" d="M15.1,0.9C7.2,0.9,0.8,7.3,0.8,15.2c0,6.3,4.1,11.8,10.1,13.6l3,5.2c0.4,0.6,1.2,0.8,1.8,0.5
		c0.2-0.1,0.4-0.3,0.5-0.5l2.9-5.1c7.6-2.2,12-10.1,9.8-17.7C27.1,5.1,21.5,0.9,15.1,0.9L15.1,0.9z"/>
	<circle class="st0" cx="15.1" cy="38" r="1.4"/>
	<path class="st1" d="M15.9,21.3l0.2-3.8l0.5-0.1c0,0,0,0.1,0,0.1c0.1,0.4,0.2,0.8,0.2,1.1c0,0.7,0,1.5,0.7,1.8
		c0.4,0.2,0.8,0.3,1.2,0.3V21h3.1v-1.5h-0.2v-0.4H19v0.4h-0.4v1c-0.4,0-0.8-0.1-1.1-0.3c-0.5-0.2-0.6-0.9-0.6-1.7
		c0-0.4,0-0.8-0.2-1.2c0,0,0,0,0-0.1l2.4-0.4l0,0l1-0.2l-1.2-3.3l-0.8,0.3c0.1-0.4,0.1-0.9,0-1.3c0-0.6-0.4-1.2-1.1-1.3
		c0,0-0.1,0-0.1,0c0,0-0.1,0-0.1,0.1c0,0,0,0,0,0c0,0,0,0,0,0l0,0v0c-0.1,0.2-0.3,1.1-0.1,1.3c0.1,0.1,0.1,0.1,0.2,0.1
		c0.4,0,0.4,0.3,0.3,0.6c-0.1,0.4-0.1,1.1-0.6,0.9c0,0-0.1,0-0.1,0c-0.3,0.3-0.4,0.8-0.4,1.2c0,0.2,0.2,0.3,0.4,0.3
		c0,0.1,0,0.2,0,0.2c0,0,0,0,0,0l-0.5,0.1h-1.5l-1,1.2l-1-1.1l-2.1,0.4l-0.1,4.7h0.9v0.1H7.3v1h16.6v-1L15.9,21.3L15.9,21.3z
		 M16.5,16c0-0.1,0-0.2,0-0.3c0.2,0,0.4-0.1,0.6-0.2c0.4-0.3,0.6-0.7,0.8-1.1l0.5,1.3L16.5,16L16.5,16z"/>
	<circle class="st1" cx="13.4" cy="13.1" r="2.6"/>
</g>
</svg>
