<?xml version="1.0" encoding="utf-8"?>
<!-- Generator: Adobe Illustrator 26.0.0, SVG Export Plug-In . SVG Version: 6.00 Build 0)  -->
<svg version="1.1" id="Layer_1" xmlns="http://www.w3.org/2000/svg" xmlns:xlink="http://www.w3.org/1999/xlink" x="0px" y="0px"
	 width="30.2px" height="40.3px" viewBox="0 0 30.2 40.3" style="enable-background:new 0 0 30.2 40.3;" xml:space="preserve">
<style type="text/css">
	.st0{fill:#CC1261;}
	.st1{fill:#FFFFFF;}
</style>
<g>
	<path class="st0" d="M15.1,0.9C7.2,0.9,0.8,7.3,0.8,15.2c0,6.3,4.1,11.8,10.1,13.6l3,5.2c0.4,0.6,1.2,0.8,1.8,0.5
		c0.2-0.1,0.4-0.3,0.5-0.5l2.9-5.1c7.6-2.2,12-10.1,9.8-17.7C27.1,5.1,21.5,0.9,15.1,0.9L15.1,0.9z"/>
	<circle class="st0" cx="15.1" cy="38" r="1.4"/>
	<path class="st1" d="M15,11c0.8,0,1.5-0.7,1.5-1.5S15.8,8,15,8c-0.8,0-1.5,0.7-1.5,1.5C13.5,10.3,14.1,11,15,11
		C14.9,11,15,11,15,11z"/>
	<path class="st1" d="M17.3,19.4c-0.4,1.4-1.7,2.4-3.1,2.4c-1.8,0-3.2-1.4-3.2-3.2c0,0,0,0,0-0.1c0-1.3,0.7-2.5,1.9-3V14
		c-1.9,0.6-3.2,2.4-3.2,4.4c0,2.5,2.1,4.5,4.6,4.6c1.8,0,3.5-1,4.2-2.7l-0.5-1C17.7,19.3,17.5,19.4,17.3,19.4z"/>
	<path class="st1" d="M21.6,21.1l-2-3.9c-0.2-0.3-0.4-0.4-0.8-0.5h-2.6v-0.6h2.2c0.2,0,0.4-0.1,0.5-0.3c0.1-0.1,0.1-0.2,0.1-0.4
		c0-0.3-0.3-0.6-0.6-0.6c0,0,0,0,0,0h-2.3v-2c0-0.7-0.5-1.3-1.2-1.3c0,0-0.1,0-0.1,0c-0.7,0-1.3,0.6-1.3,1.3c0,0,0,0,0,0v4.3
		c0,0.7,0.6,1.3,1.3,1.3c0,0,0,0,0,0h3.3l1.7,3.4c0.2,0.3,0.4,0.4,0.8,0.5c0.1,0,0.3,0,0.4-0.1C21.6,22.1,21.8,21.6,21.6,21.1z"/>
</g>
</svg>
