<svg id="Layer_1" data-name="Layer 1" xmlns="http://www.w3.org/2000/svg" width="0.42in" height="0.56in" viewBox="0 0 30.24 40.32"><path d="M15.11808.87306A14.28871,14.28871,0,0,0,10.883,28.80774l2.99373,5.18532a1.30083,1.30083,0,0,0,2.25312,0l2.94871-5.1073A14.28627,14.28627,0,0,0,15.11808.87306Z" fill="#e761b2"/><circle cx="15.11809" cy="38.01828" r="1.42866" fill="#e761b2"/><path d="M14.01522,12.99291l-4.4535.68758a1.85214,1.85214,0,0,0-.21106-.169,2.34433,2.34433,0,0,0-2.85883.3711,2.5761,2.5761,0,0,0-.82144,1.57633,1.957,1.957,0,0,0,.49129,1.58651,1.83287,1.83287,0,0,0,.31937.27352v.00115A2.21933,2.21933,0,0,0,8.702,17.388a.502.502,0,0,0,.11006.10225.5313.5313,0,0,0,.7291-.7515,2.52674,2.52674,0,0,0,.6202-1.36725,2.0883,2.0883,0,0,0-.08216-.88586l4.37249-.35393ZM9.52751,15.29774a1.9341,1.9341,0,0,1-.62164,1.1826,1.70664,1.70664,0,0,1-2.06677.30953,1.21162,1.21162,0,0,1-.20931-.17943,1.32842,1.32842,0,0,1-.3249-1.07842,1.93225,1.93225,0,0,1,.62224-1.18146,1.70475,1.70475,0,0,1,2.067-.31042,1.18854,1.18854,0,0,1,.20907.17943A1.33309,1.33309,0,0,1,9.52751,15.29774Z" fill="#fff"/><polygon points="16.702 13.948 24.286 9.065 24.584 8.545 19.109 11.048 16.649 13.953 16.702 13.948" fill="#fff"/><path d="M11.80478,22.298a2.72209,2.72209,0,0,0,.8409-.31007A2.34433,2.34433,0,0,0,13.85415,19.37a1.7045,1.7045,0,0,0-.09872-.25149l2.4207-5.1579,6.74848-7.97146-.71657.42042-7.732,6.71363.41376,1.081-1.94134,4.05769a2.12306,2.12306,0,0,0-.62806-.2218,2.57107,2.57107,0,0,0-1.75.313,2.34367,2.34367,0,0,0-1.20846,2.61728,1.83526,1.83526,0,0,0,.1661.38621,1.86879,1.86879,0,0,0,.64631.66426c.52789.65913.08245,1.63356.06534,1.87053-.0177.24154.4158.529.51337.4157C10.84632,24.20091,11.04664,22.57437,11.80478,22.298Zm3.56-8.71564a.36009.36009,0,1,1,.00031.00028l-.00027-.00028Zm-3.036,7.85157a1.936,1.936,0,0,1-1.31359.23925,1.32542,1.32542,0,0,1-.93206-.63183,1.17793,1.17793,0,0,1-.10861-.25378,1.70521,1.70521,0,0,1,.91316-1.87977,1.94083,1.94083,0,0,1,1.31413-.2404,1.32987,1.32987,0,0,1,.93206.63237,1.25992,1.25992,0,0,1,.10861.25383,1.70808,1.70808,0,0,1-.91363,1.88033Z" fill="#fff"/></svg>