<?xml version="1.0" encoding="utf-8"?>
<!-- Generator: Adobe Illustrator 26.0.0, SVG Export Plug-In . SVG Version: 6.00 Build 0)  -->
<svg version="1.1" id="Layer_1" xmlns="http://www.w3.org/2000/svg" xmlns:xlink="http://www.w3.org/1999/xlink" x="0px" y="0px"
	 width="30.2px" height="40.3px" viewBox="0 0 30.2 40.3" style="enable-background:new 0 0 30.2 40.3;" xml:space="preserve">
<style type="text/css">
	.st0{fill:#13B5C7;}
	.st1{fill:#FFFFFF;}
</style>
<g>
	<path class="st0" d="M15.1,0.9C7.2,0.9,0.8,7.3,0.8,15.2c0,6.3,4.1,11.8,10.1,13.6l3,5.2c0.4,0.6,1.2,0.8,1.8,0.5
		c0.2-0.1,0.4-0.3,0.5-0.5l2.9-5.1c7.6-2.2,12-10.1,9.8-17.7C27.1,5.1,21.5,0.9,15.1,0.9L15.1,0.9z"/>
	<circle class="st0" cx="15.1" cy="38" r="1.4"/>
	<path class="st1" d="M22.2,18.9l-1.9-2.3c-0.2-0.2-0.6-0.2-0.6,0l-1.9,2.3c-0.2,0.2,0,0.6,0.4,0.6H19v1.9c0,0.2,0.2,0.4,0.4,0.4
		h1.5c0.2,0,0.4-0.2,0.4-0.4v-1.9H22c0.2-0.1,0.3-0.3,0.2-0.5C22.2,19,22.2,19,22.2,18.9z"/>
	<path class="st1" d="M13.7,10.2c-0.8,0-1.5,0.7-1.5,1.5c0,0,0,0,0,0c0,0.9,0.6,1.6,1.5,1.7c0.8,0,1.5-0.7,1.5-1.5c0,0,0,0,0,0
		C15.1,11.1,14.5,10.4,13.7,10.2z"/>
	<path class="st1" d="M20.9,12.7h-3.4c-0.2,0-0.2,0-0.4,0.2l-4.6,5.9c-0.1,0.1-0.2,0.2-0.4,0.2h-1.9c-0.6,0-1.1,0.4-1.3,0.9
		c-0.1,0.6,0.3,1.2,0.9,1.3c0.1,0,0.1,0,0.2,0h3.6c0.2,0,0.2,0,0.4-0.2l4.6-5.9c0.1-0.1,0.2-0.2,0.4-0.2h2.1c0.6,0,1.1-0.5,1.1-1.1
		l0,0C22.2,13.1,21.8,12.7,20.9,12.7z"/>
	<path class="st1" d="M13.7,13.4c-0.8,0-1.5,0.7-1.5,1.5c0,0,0,0,0,0v3l0,0l3-3.8C14.8,13.8,14.2,13.5,13.7,13.4z"/>
</g>
</svg>
