<?xml version="1.0" encoding="utf-8"?>
<!-- Generator: Adobe Illustrator 26.0.0, SVG Export Plug-In . SVG Version: 6.00 Build 0)  -->
<svg version="1.1" id="Layer_1" xmlns="http://www.w3.org/2000/svg" xmlns:xlink="http://www.w3.org/1999/xlink" x="0px" y="0px"
	 width="30.2px" height="40.3px" viewBox="0 0 30.2 40.3" style="enable-background:new 0 0 30.2 40.3;" xml:space="preserve">
<style type="text/css">
	.st0{fill:#7B9EB0;}
	.st1{fill:#FFFFFF;}
</style>
<g>
	<path class="st0" d="M15.1,0.9C7.2,0.9,0.8,7.3,0.8,15.2c0,6.3,4.1,11.8,10.1,13.6l3,5.2c0.4,0.6,1.2,0.8,1.8,0.5
		c0.2-0.1,0.4-0.3,0.5-0.5l2.9-5.1c7.6-2.2,12-10.1,9.8-17.7C27.1,5.1,21.5,0.9,15.1,0.9L15.1,0.9z"/>
	<circle class="st0" cx="15.1" cy="38" r="1.4"/>
	<path class="st1" d="M22.4,20.2c0.3-0.1,0.5-0.5,0.4-0.8c0,0,0,0,0,0l-1-2.6c-0.2-0.3-0.5-0.5-0.8-0.5h-0.3
		c0.3-0.1,0.5-0.3,0.4-0.6c0-0.1-0.1-0.2-0.1-0.3c-0.6-0.6-1.3-1.4-1.9-1.9c-0.1-0.1-0.3-0.3-0.5-0.3c-0.5-0.1-1,0.1-1.2,0.6
		c-0.2,0.9-0.3,1.8-0.3,2.8c0,0.6,0.3,1,0.7,1h2.9l1,2.2c0,0.3,0.3,0.6,0.7,0.5C22.3,20.3,22.4,20.2,22.4,20.2z M19,16.3
		c0-0.3,0.1-0.7,0.1-1c0.3,0.3,0.6,0.7,1,1c0.1,0.1,0.1,0.1,0.2,0.1H19z"/>
	<circle class="st1" cx="18.6" cy="11.8" r="1"/>
	<path class="st1" d="M21.4,19.8c-0.6,0.9-1.6,1.4-2.7,1.4c-1.7,0-3.1-1.4-3.1-3.1c0,0,0,0,0,0c0-0.6,0.2-1.3,0.6-1.8v-1.6l-0.2-0.1
		c0.2,0,0.3-0.2,0.3-0.3l0.2,0.1c0.1,0,0.1,0.1,0.1,0.2l0.1,1.3c0.1,0,0.2,0,0.3,0.1c0.1,0.1,0.1,0.2,0,0.3
		c-0.5,0.5-0.8,1.2-0.8,1.9c0,1.5,1.2,2.7,2.7,2.7c0.9,0,1.8-0.5,2.2-1.2c0.1-0.1,0.2-0.1,0.3-0.1C21.4,19.5,21.4,19.7,21.4,19.8z"
		/>
	<path class="st1" d="M16.2,14.2c0,0.3-0.3,0.3-0.3,0.3h-0.3c-0.1,0-0.2-0.1-0.3-0.1c-0.6-0.3-1.2-0.6-1.9-0.9l0,0
		c-0.6,0.7-1.1,1.5-1.5,2.4c0.9,1.2,1.5,2.5,1.9,4c0.2,0.9-1,1-1.3,0.2C12.3,19,11.8,18,11.1,17c-0.4,1.4-1.4,2.6-2.8,3.1
		c-0.4,0.1-0.7-0.1-0.9-0.4c-0.1-0.3,0-0.7,0.3-0.8c1.4-0.5,2.3-1.8,2.1-3.3c0-0.2,0.1-0.5,0.2-0.6c0.6-1,1.2-2,1.9-2.9
		c0.3-0.4,0.9-0.4,1.3-0.1c0,0,0.1,0.1,0.1,0.1c0.1,0.1,0.2,0.2,0.2,0.3c0.8,0.3,1.6,0.8,2.4,1.3C16.2,13.8,16.2,14,16.2,14.2z"/>
	<circle class="st1" cx="14" cy="11.1" r="1"/>
</g>
</svg>
