<?xml version="1.0" encoding="utf-8"?>
<!-- Generator: Adobe Illustrator 26.0.0, SVG Export Plug-In . SVG Version: 6.00 Build 0)  -->
<svg version="1.1" id="Layer_1" xmlns="http://www.w3.org/2000/svg" xmlns:xlink="http://www.w3.org/1999/xlink" x="0px" y="0px"
	 width="30.2px" height="40.3px" viewBox="0 0 30.2 40.3" style="enable-background:new 0 0 30.2 40.3;" xml:space="preserve">
<style type="text/css">
	.st0{fill:#FF4DA5;}
	.st1{fill:#FFFFFF;}
</style>
<g>
	<path class="st0" d="M15.1,0.9C7.2,0.9,0.8,7.3,0.8,15.2c0,6.3,4.1,11.8,10.1,13.6l3,5.2c0.4,0.6,1.2,0.8,1.8,0.5
		c0.2-0.1,0.4-0.3,0.5-0.5l2.9-5.1c7.6-2.2,12-10.1,9.8-17.7C27.1,5.1,21.5,0.9,15.1,0.9L15.1,0.9z"/>
	<circle class="st0" cx="15.1" cy="38" r="1.4"/>
	<path class="st1" d="M8.7,10.7h2.7V13H8.7V10.7z"/>
	<path class="st1" d="M11.4,9.9c0-0.1-0.1-0.2-0.2-0.2c0,0,0,0,0,0H8.9c-0.1,0-0.2,0.1-0.2,0.2c0,0,0,0,0,0v0.2h2.7L11.4,9.9z"/>
	<path class="st1" d="M21.8,9.7h-3.2c-0.1,0-0.2,0.1-0.2,0.2c0,0,0,0,0,0v1.5H22V9.9L21.8,9.7z"/>
	<path class="st1" d="M18.4,12.2c0,0.1,0.1,0.2,0.2,0.2c0,0,0,0,0,0h3.2c0.1,0,0.2-0.1,0.2-0.2c0,0,0,0,0,0V12h-3.6L18.4,12.2z"/>
	<path class="st1" d="M8.7,22.8c0,0.1,0.1,0.2,0.2,0.2c0,0,0,0,0,0h3.6c0.1,0,0.2-0.1,0.2-0.2c0,0,0,0,0,0v-0.2h-4V22.8z"/>
	<path class="st1" d="M19.3,23H22v-1.3h-2.7V23z M21,22.1h0.4v0.4H21V22.1z M19.7,22.1h0.9v0.4h-0.9V22.1z"/>
	<path class="st1" d="M20.9,17.1h-1.7c0-0.2,0-0.4-0.2-0.4h1.3v-3.4H21V13h-1.9v0.4h0.8V16h-1.3c-0.2-0.1-0.4-0.2-0.6-0.2v-0.2
		c0-0.8-0.7-1.5-1.5-1.5c0,0,0,0,0,0c-0.6,0-1.2,0.4-1.5,0.9c-0.2-0.2-0.4-0.2-0.8-0.2c-0.7-0.1-1.4,0.4-1.5,1.1h-2.5v-1.1h0.9
		c0.1,0,0.2-0.1,0.2-0.2c0,0,0,0,0,0v-1.3H8.7v1.1c0,0.1,0.1,0.2,0.2,0.2c0,0,0,0,0,0h0.9v1.7h1.9c0,0.1-0.1,0.3-0.2,0.4h-1.3v3H9.5
		c-0.1,0-0.2,0.1-0.2,0.2c0,0,0,0,0,0v2.1h3.2V20c0-0.1-0.1-0.2-0.2-0.2c0,0,0,0,0,0h-1.5v-2.5h0.8c0,0.7,0.6,1.3,1.3,1.3
		c0,0,0,0,0.1,0H18c0.7,0,1.3-0.5,1.3-1.1h1.1v2.3h-1.1v1.3H22v-1.3h-1.1L20.9,17.1z M9.7,13.9h0.9v0.4H9.7V13.9z M20.1,20.7h-0.4
		v-0.4h0.4V20.7z M21.6,20.7h-0.9v-0.4h0.9L21.6,20.7z"/>
</g>
</svg>
