<?xml version="1.0" encoding="utf-8"?>
<!-- Generator: Adobe Illustrator 28.0.0, SVG Export Plug-In . SVG Version: 6.00 Build 0)  -->
<svg version="1.1" id="Layer_2_00000056385974573041092980000004815039472966386304_"
	 xmlns="http://www.w3.org/2000/svg" xmlns:xlink="http://www.w3.org/1999/xlink" x="0px" y="0px" width="148.9px" height="37.9px"
	 viewBox="0 0 148.9 37.9" style="enable-background:new 0 0 148.9 37.9;" xml:space="preserve">
<style type="text/css">
	.st0{fill:#40B6FF;}
</style>
<g>
	<g>
		<g>
			<g>
				<path class="st0" d="M18.5,19.5c0,3-0.7,5.3-2,7.1c-1.3,1.7-3.1,2.6-5.4,2.6c-2.2,0-4-0.8-5.2-2.4l-0.2,2.1H1.8v-27h4.3v9.8
					c1.2-1.5,2.9-2.2,5-2.2c2.3,0,4.1,0.9,5.5,2.6c1.3,1.7,2,4.1,2,7.2V19.5z M14.2,19.1c0-2.1-0.4-3.6-1.1-4.6
					c-0.7-1-1.8-1.5-3.2-1.5c-1.9,0-3.2,0.8-3.9,2.4v7.8c0.8,1.7,2.1,2.5,3.9,2.5c1.3,0,2.4-0.5,3.1-1.5c0.7-1,1.1-2.5,1.1-4.5V19.1
					z"/>
			</g>
			<g>
				<path class="st0" d="M29.1,29.2c-2.7,0-4.9-0.9-6.6-2.6c-1.7-1.7-2.5-4-2.5-6.8v-0.5c0-1.9,0.4-3.6,1.1-5.1s1.8-2.7,3.1-3.5
					c1.3-0.8,2.8-1.2,4.4-1.2c2.6,0,4.6,0.8,6,2.5s2.1,4,2.1,7v1.7H24.3c0.1,1.6,0.7,2.8,1.6,3.7c0.9,0.9,2.1,1.4,3.5,1.4
					c2,0,3.6-0.8,4.8-2.4l2.3,2.2c-0.8,1.1-1.8,2-3.1,2.6C32.1,28.9,30.7,29.2,29.1,29.2z M28.6,12.9c-1.2,0-2.1,0.4-2.8,1.2
					c-0.7,0.8-1.2,2-1.4,3.4h8.1v-0.3c-0.1-1.4-0.5-2.5-1.1-3.2C30.7,13.2,29.8,12.9,28.6,12.9z"/>
			</g>
			<g>
				<path class="st0" d="M59.4,20.5c-0.3,2.7-1.3,4.9-3,6.4s-4.1,2.3-7,2.3c-2,0-3.8-0.5-5.4-1.5s-2.8-2.3-3.6-4.1
					c-0.8-1.8-1.3-3.9-1.3-6.2V15c0-2.4,0.4-4.5,1.3-6.4c0.9-1.8,2.1-3.3,3.7-4.3s3.5-1.5,5.6-1.5c2.8,0,5.1,0.8,6.8,2.3
					c1.7,1.5,2.7,3.7,3,6.5H55c-0.2-1.8-0.7-3.2-1.6-4c-0.9-0.8-2.1-1.2-3.8-1.2c-1.9,0-3.4,0.7-4.5,2.1s-1.6,3.5-1.6,6.2v2.3
					c0,2.8,0.5,4.9,1.5,6.3c1,1.5,2.4,2.2,4.4,2.2c1.7,0,3.1-0.4,3.9-1.2c0.9-0.8,1.4-2.1,1.7-3.9H59.4z"/>
			</g>
			<g>
				<path class="st0" d="M61.6,19.1c0-1.9,0.4-3.5,1.1-5s1.8-2.6,3.1-3.4c1.3-0.8,2.9-1.2,4.6-1.2c2.6,0,4.7,0.8,6.3,2.5
					c1.6,1.7,2.5,3.8,2.6,6.6l0,1c0,1.9-0.4,3.6-1.1,5c-0.7,1.5-1.8,2.6-3.1,3.4c-1.3,0.8-2.9,1.2-4.7,1.2c-2.7,0-4.8-0.9-6.4-2.7
					c-1.6-1.8-2.4-4.2-2.4-7.2V19.1z M65.9,19.5c0,2,0.4,3.5,1.2,4.6s1.9,1.7,3.4,1.7c1.4,0,2.6-0.6,3.4-1.7
					c0.8-1.1,1.2-2.8,1.2-4.9c0-1.9-0.4-3.4-1.2-4.6s-2-1.7-3.4-1.7c-1.4,0-2.5,0.6-3.3,1.7S65.9,17.3,65.9,19.5z"/>
			</g>
			<g>
				<path class="st0" d="M85.6,9.8l0.1,2c1.3-1.6,3.2-2.3,5.5-2.3c2.5,0,4.3,1,5.2,2.9c1.4-1.9,3.3-2.9,5.8-2.9
					c2.1,0,3.7,0.6,4.7,1.7c1,1.2,1.6,2.9,1.6,5.1v12.5h-4.3V16.4c0-1.2-0.3-2.1-0.8-2.7c-0.5-0.6-1.4-0.8-2.6-0.8
					c-1,0-1.8,0.3-2.4,0.8c-0.6,0.5-1,1.2-1.3,2l0,13.1h-4.3V16.3c-0.1-2.2-1.2-3.4-3.4-3.4c-1.7,0-2.9,0.7-3.6,2.1v13.8h-4.3v-19
					H85.6z"/>
			</g>
			<g>
				<path class="st0" d="M123.7,28.8c-0.2-0.4-0.4-1-0.5-1.8c-1.4,1.4-3,2.1-5,2.1c-1.9,0-3.5-0.5-4.7-1.6c-1.2-1.1-1.8-2.4-1.8-4
					c0-2,0.8-3.6,2.3-4.7c1.5-1.1,3.7-1.6,6.5-1.6h2.6v-1.2c0-1-0.3-1.8-0.8-2.4c-0.6-0.6-1.4-0.9-2.5-0.9c-1,0-1.8,0.2-2.4,0.7
					s-0.9,1.1-0.9,1.9h-4.3c0-1,0.3-2,1-2.9c0.7-0.9,1.6-1.6,2.8-2.1s2.5-0.8,4-0.8c2.2,0,4,0.6,5.3,1.7c1.3,1.1,2,2.7,2,4.7v8.6
					c0,1.7,0.2,3.1,0.7,4.1v0.3H123.7z M119,25.7c0.8,0,1.6-0.2,2.4-0.6c0.7-0.4,1.3-1,1.7-1.7v-3.6h-2.3c-1.6,0-2.8,0.3-3.6,0.8
					c-0.8,0.6-1.2,1.3-1.2,2.3c0,0.8,0.3,1.5,0.8,2C117.4,25.5,118.1,25.7,119,25.7z"/>
			</g>
			<g>
				<path class="st0" d="M147.1,19.5c0,2.9-0.7,5.3-2,7c-1.3,1.8-3.1,2.6-5.4,2.6c-2.1,0-3.8-0.7-5-2.1v9h-4.3V9.8h3.9l0.2,1.9
					c1.3-1.5,3-2.3,5.1-2.3c2.3,0,4.1,0.9,5.5,2.6c1.3,1.7,2,4.1,2,7.2V19.5z M142.9,19.1c0-1.9-0.4-3.4-1.1-4.5
					c-0.8-1.1-1.8-1.7-3.2-1.7c-1.7,0-3,0.7-3.8,2.2v8.4c0.8,1.5,2,2.2,3.8,2.2c1.4,0,2.4-0.5,3.2-1.6
					C142.5,23,142.9,21.3,142.9,19.1z"/>
			</g>
		</g>
	</g>
</g>
</svg>
