<?xml version="1.0" encoding="utf-8"?>
<!-- Generator: Adobe Illustrator 23.0.1, SVG Export Plug-In . SVG Version: 6.00 Build 0)  -->
<svg version="1.1" id="Layer_1" xmlns="http://www.w3.org/2000/svg" xmlns:xlink="http://www.w3.org/1999/xlink" x="0px" y="0px"
	 width="20px" height="20px" viewBox="0 0 20 20" style="enable-background:new 0 0 20 20;" xml:space="preserve">
<style type="text/css">
	.st0{fill-rule:evenodd;clip-rule:evenodd;fill:#5F7EFF;stroke:#FFFFFF;stroke-width:0.25;stroke-miterlimit:10;}
	.st1{fill-rule:evenodd;clip-rule:evenodd;fill:#FFFFFF;}
</style>
<g>
	<path class="st0" d="M10,19.4c-0.4-2.1-1.2-3.9-2.1-5.5c-0.7-1.2-1.5-2.3-2.2-3.5C5.4,10,5.2,9.6,5,9.2c-0.5-0.8-0.9-1.8-0.8-3
		C4.2,5,4.5,4,5,3.3c0.8-1.3,2.2-2.4,4-2.6C10.6,0.4,12,0.8,13,1.4c0.8,0.5,1.5,1.1,1.9,1.9C15.5,4,15.8,5,15.8,6.2
		c0,0.6-0.1,1.2-0.2,1.7c-0.1,0.5-0.4,0.9-0.6,1.3c-0.4,0.8-0.9,1.6-1.4,2.4C12.1,13.9,10.6,16.2,10,19.4z"/>
	<circle class="st1" cx="10" cy="6.2" r="2.7"/>
</g>
</svg>
