<?xml version="1.0" encoding="utf-8"?>
<!-- Generator: Adobe Illustrator 23.0.1, SVG Export Plug-In . SVG Version: 6.00 Build 0)  -->
<svg version="1.1" id="Layer_1" xmlns="http://www.w3.org/2000/svg" xmlns:xlink="http://www.w3.org/1999/xlink" x="0px" y="0px"
	 width="30px" height="30px" viewBox="0 0 30 30" style="enable-background:new 0 0 30 30;" xml:space="preserve">
<style type="text/css">
	.st0{fill:#7D8695;}
	.st1{fill:#FFFFFF;}
</style>
<g>
	<path class="st0" d="M15,2c7.1,0,13,5.9,13,13s-5.9,13-13,13S2,22.2,2,15C2,7.9,7.9,2,15,2z"/>
	<path class="st1" d="M15,26.6C8.6,26.6,3.4,21.4,3.4,15S8.6,3.4,15,3.4S26.6,8.6,26.6,15S21.4,26.6,15,26.6 M15,29.4
		c7.9,0,14.4-6.5,14.4-14.4S22.9,0.6,15,0.6S0.6,7.1,0.6,15S7.1,29.4,15,29.4L15,29.4z"/>
	<g>
		<path class="st1" d="M9.3,10.9c0.5,0,0.9,0.2,1.3,0.5L15,15l4.5-3.7c0.3-0.3,0.8-0.5,1.3-0.5s0.9,0.2,1.3,0.5s0.6,0.8,0.6,1.3
			s-0.3,1-0.7,1.3l-5.7,4.8c-0.4,0.3-0.8,0.5-1.3,0.5s-0.9-0.2-1.3-0.5L8,13.9c-0.4-0.3-0.6-0.8-0.6-1.3s0.2-1,0.6-1.3
			C8.3,11,8.8,10.9,9.3,10.9z"/>
		<path class="st1" d="M9.3,11.9c0.2,0,0.5,0.1,0.6,0.2l5.1,4.2l5.1-4.3c0.2-0.1,0.4-0.2,0.6-0.2s0.5,0.1,0.6,0.2
			c0.2,0.1,0.3,0.3,0.3,0.5s-0.1,0.4-0.3,0.5l-5.7,4.8C15.4,17.9,15.2,18,15,18s-0.5-0.1-0.6-0.2L8.7,13c-0.4-0.3-0.4-0.8,0-1.1
			C8.8,11.9,9,11.9,9.3,11.9z"/>
	</g>
</g>
</svg>
