<?xml version="1.0" encoding="utf-8"?>
<!-- Generator: Adobe Illustrator 23.0.1, SVG Export Plug-In . SVG Version: 6.00 Build 0)  -->
<svg version="1.1" id="Layer_1" xmlns="http://www.w3.org/2000/svg" xmlns:xlink="http://www.w3.org/1999/xlink" x="0px" y="0px"
	 width="28px" height="28px" viewBox="0 0 28 28" style="enable-background:new 0 0 28 28;" xml:space="preserve">
<style type="text/css">
	.st0{fill:#2D8AE8;}
	.st1{fill:#FFFFFF;}
</style>
<g>
	<g>
		<g>
			<circle class="st0" cx="14" cy="14" r="12.6"/>
			<path class="st1" d="M14,27.2C6.7,27.2,0.8,21.3,0.8,14S6.7,0.8,14,0.8S27.2,6.7,27.2,14S21.3,27.2,14,27.2z M14,2
				C7.4,2,2,7.4,2,14s5.4,12,12,12s12-5.4,12-12S20.6,2,14,2z"/>
		</g>
	</g>
</g>
<g>
	<g>
		<path class="st1" d="M15.2,21L15.2,21l0-10.5l3.3,3.3c0.2,0.2,0.4,0.3,0.6,0.3c0.2,0,0.5-0.1,0.6-0.3l0.5-0.5
			c0.2-0.2,0.3-0.4,0.3-0.6c0-0.2-0.1-0.4-0.3-0.6l-5.7-5.7c-0.2-0.2-0.4-0.3-0.6-0.3c-0.2,0-0.5,0.1-0.6,0.3L7.7,12
			c-0.2,0.2-0.3,0.4-0.3,0.6c0,0.2,0.1,0.4,0.3,0.6l0.5,0.5C8.4,14,8.6,14,8.8,14C9,14,9.3,14,9.4,13.8l3.3-3.4V21
			c0,0.5,0.4,0.9,0.9,0.9h0.7C14.9,21.9,15.2,21.5,15.2,21z"/>
	</g>
</g>
</svg>
