<?xml version="1.0" encoding="utf-8"?>
<!-- Generator: Adobe Illustrator 23.0.1, SVG Export Plug-In . SVG Version: 6.00 Build 0)  -->
<svg version="1.1" id="Layer_1" xmlns="http://www.w3.org/2000/svg" xmlns:xlink="http://www.w3.org/1999/xlink" x="0px" y="0px"
	 width="20px" height="20px" viewBox="0 0 20 20" style="enable-background:new 0 0 20 20;" xml:space="preserve">
<style type="text/css">
	.st0{fill:#2D8AE8;}
	.st1{fill:#FFFFFF;}
</style>
<g>
	<g>
		<circle class="st0" cx="10" cy="10" r="9.3"/>
		<path class="st1" d="M10,19.7c-5.4,0-9.7-4.4-9.7-9.7S4.6,0.3,10,0.3c5.4,0,9.7,4.4,9.7,9.7S15.4,19.7,10,19.7z M10,1.2
			c-4.9,0-8.8,4-8.8,8.8s4,8.8,8.8,8.8c4.9,0,8.8-4,8.8-8.8S14.9,1.2,10,1.2z"/>
	</g>
	<g>
		<path class="st1" d="M14,15.2l-3.3-1.7c-0.4-0.2-0.9-0.2-1.4,0L6,15.2l4-10.3L14,15.2z"/>
	</g>
</g>
</svg>
