<svg id="Layer_1" data-name="Layer 1" xmlns="http://www.w3.org/2000/svg" width="19.44" height="19.44" viewBox="0 0 19.44 19.44"><circle cx="9.72" cy="9.72" r="8.5" fill="#5e94ff" stroke="#fff" stroke-miterlimit="10"/><path d="M15.101,7.85263,13.37728,5.55434a.91224.91224,0,0,0-.50275-.28729H11.7972a.268.268,0,0,0-.28729.21546,2.20723,2.20723,0,0,1-1.79554.71822,2.01735,2.01735,0,0,1-1.79555-.71822c-.07182-.14364-.14364-.14364-.28728-.14364H6.55421a.60459.60459,0,0,0-.50275.28729L4.32773,7.92445a.4344.4344,0,0,0,0,.57458L5.33324,9.72c.07182.07182.14364.14364.21546.14364s.14365-.07182.21547-.14364l.79-.93368A.07034.07034,0,0,1,6.626,8.7145v5.09934a.33927.33927,0,0,0,.35911.35911h5.53028a.33928.33928,0,0,0,.35911-.35911V8.71449l.07182.07183.79.93368c.07182.07182.14364.14364.21546.14364h0c.07183,0,.14365-.07182.21547-.14364l1.0055-1.221C15.24465,8.21174,15.24465,7.99628,15.101,7.85263Z" fill="#fff"/></svg>