<svg id="Layer_1" data-name="Layer 1" xmlns="http://www.w3.org/2000/svg" width="19.44" height="19.44" viewBox="0 0 19.44 19.44"><circle cx="9.72" cy="9.72" r="8.5" fill="#7b9eb0" stroke="#fff" stroke-miterlimit="10"/><path d="M13.83939,5.13112H5.60061A1.38809,1.38809,0,0,0,4.22,6.51174V8.34146A1.38809,1.38809,0,0,0,5.60061,9.72208h.93483v4.14184a.44663.44663,0,0,0,.44579.445h5.47754a.44579.44579,0,0,0,.445-.445V9.72208h.93566A1.38809,1.38809,0,0,0,15.22,8.34147V6.51174A1.3881,1.3881,0,0,0,13.83939,5.13112Zm-1.82973,8.23877H7.42618V7.89235H12.013v5.47754Zm2.27385-5.03258a.44662.44662,0,0,1-.445.44578h-.93482V7.84744h.44579a.44579.44579,0,0,0,.445-.445.47905.47905,0,0,0-.445-.44579H6.04973a.44663.44663,0,0,0-.445.44579.47907.47907,0,0,0,.445.445h.44579V8.7831H5.5557a.44661.44661,0,0,1-.44495-.44579V6.50758a.44661.44661,0,0,1,.44495-.44579h8.23877a.44744.44744,0,0,1,.44579.44579l.04408,1.82973Z" fill="#fff"/><path d="M9.92044,10.20779V9.54243a1.0979,1.0979,0,0,1,.40088.178h.089a.21125.21125,0,0,0,.22289-.19893.20835.20835,0,0,0,0-.024.16138.16138,0,0,0-.04491-.13307,1.31654,1.31654,0,0,0-.66536-.31188v-.2229a.19128.19128,0,0,0-.178-.178h0a.16634.16634,0,0,0-.17881.178v.2229a.83668.83668,0,0,0-.84584.80175c0,.534.44579.66536.84584.80176v.75684a1.37139,1.37139,0,0,1-.534-.2229.16638.16638,0,0,0-.1339-.04491.21047.21047,0,0,0-.22207.2229.16637.16637,0,0,0,.04408.1339,1.21592,1.21592,0,0,0,.84584.356v.2229h0c0,.089.08982.178.17881.1339a.19211.19211,0,0,0,.178-.17882v-.22206a.80674.80674,0,0,0,.84251-.76932l.00083-.03659C10.76627,10.47476,10.32132,10.29678,9.92044,10.20779Zm-.3568-.089c-.22206-.04491-.356-.13391-.356-.31189a.31766.31766,0,0,1,.356-.31188Zm.3568,1.29162v-.66536h0c.22289.04408.356.178.356.356C10.2764,11.18753,10.18741,11.36551,9.92044,11.41042Z" fill="#fff"/></svg>