<?xml version="1.0" encoding="utf-8"?>
<!-- Generator: Adobe Illustrator 23.0.1, SVG Export Plug-In . SVG Version: 6.00 Build 0)  -->
<svg version="1.1" id="Layer_1" xmlns="http://www.w3.org/2000/svg" xmlns:xlink="http://www.w3.org/1999/xlink" x="0px" y="0px"
	 width="19.843px" height="19.843px" viewBox="0 0 19.843 19.843" enable-background="new 0 0 19.843 19.843" xml:space="preserve">
<circle fill="#7B9EB0" stroke="#FFFFFF" stroke-miterlimit="10" cx="10.071" cy="9.971" r="8.504"/>
<g>
	<path fill="#FFFFFF" d="M14.193,11.024c0.351,0,0.67,0.097,0.926,0.305h0.233c-0.052-0.416-0.611-0.799-1.25-0.787l-0.158,0.035
		c0.026-0.053,0.05-0.108,0.074-0.16c0.007-0.004,0.028-0.006,0.028-0.006l0.371-0.07V9.845l-0.215-0.037
		c0.002-0.022-0.002-0.044-0.002-0.065c0-0.7-0.929-2.177-1.491-2.811c-0.163-0.184-0.314-0.283-0.692-0.283
		c-0.314,0-3.64,0-4.496,0c-2.437,0-2.359,1.512-2.359,1.512v1.608h3.015V8.892V8.356V7.474c0-0.134,0.092-0.2,0.226-0.2h1.593
		c0.134,0,0.261,0.066,0.261,0.2v0.883v0.537v2.713c0,0.143-0.048,0.347-0.19,0.347h-1.04c-0.143,0-0.282-0.16-0.282-0.304
		c0,0,0.002-0.979-0.389-1.252c-0.164-0.114-0.19-0.317-0.195-0.421H5.161v0.46L4.953,10.47v0.496l0.208,0.035v1.472h2.652h4.887
		C12.74,11.64,13.391,11.024,14.193,11.024z M12.168,9.353H10.91c-0.131,0-0.237-0.15-0.237-0.281V7.467
		c0-0.131,0.106-0.194,0.237-0.194h1.085c0.131,0,0.237,0.084,0.237,0.215l0.173,1.616C12.405,9.236,12.299,9.353,12.168,9.353z
		 M13.059,9.137c-0.01,0.002-0.019,0.002-0.028,0.002c-0.093,0-0.174-0.067-0.191-0.159l-0.276-1.45
		c-0.02-0.106,0.05-0.208,0.156-0.229l0.091-0.017c0.336,0.444,0.76,1.119,1.009,1.708l-0.752,0.143L13.059,9.137z"/>
	<path fill="#FFFFFF" d="M5.513,12.68c0.119,0.535,0.595,0.936,1.167,0.936s1.048-0.401,1.167-0.936H5.513z"/>
	<path fill="#FFFFFF" d="M14.156,11.225c-0.66,0-1.195,0.535-1.195,1.195s0.535,1.195,1.195,1.195s1.195-0.535,1.195-1.195
		S14.816,11.225,14.156,11.225z M14.156,12.811c-0.215,0-0.39-0.175-0.39-0.39s0.175-0.39,0.39-0.39c0.215,0,0.39,0.175,0.39,0.39
		S14.371,12.811,14.156,12.811z"/>
</g>
</svg>
