<svg id="Layer_1" data-name="Layer 1" xmlns="http://www.w3.org/2000/svg" width="19.44" height="19.44" viewBox="0 0 19.44 19.44"><circle cx="9.72" cy="9.72" r="8.5" fill="#7b9eb0" stroke="#fff" stroke-miterlimit="10"/><path d="M11.69134,7.38948H10.697V5.5887h.3422c.12443,0,.15495-.06163.15495-.15555V4.87554c0-.125-.05869-.15554-.15495-.15554H8.39792c-.125,0-.15555.06163-.15555.15554v.49657c0,.12444.06163.155.15555.155h.34219V7.329H7.74874A.8552.8552,0,0,0,6.91,8.16779v5.15642a.85578.85578,0,0,0,.83876.837v.34043c0,.12444.06163.155.15554.155h.68264c.12443,0,.155-.0587.155-.155v-.27939h1.98862V14.565c0,.12444.05869.155.15554.155h.65152c.125,0,.15555-.06163.15555-.155v-.34278a.85521.85521,0,0,0,.83583-.83583V8.22883a.79889.79889,0,0,0-.83759-.83935Zm-3.449,5.68528V8.53992c0-.125.06163-.15554.15555-.15554.12443,0,.155.06163.155.15554v4.53484c0,.12443-.05869.15554-.155.15554S8.24237,13.10528,8.24237,13.07476Zm1.30481.3105v-5.157c0-.12444.06163-.15555.15554-.15555.12444,0,.155.06163.155.15555v5.15818c0,.12444-.0587.155-.155.155a.16494.16494,0,0,1-.15554-.155Zm1.67811-.3105c0,.12443-.06163.15554-.15554.15554-.12444,0-.15555-.06163-.15555-.15554V8.53992c0-.125.06164-.15554.15555-.15554.12443,0,.15554.06163.15554.15554ZM9.08113,7.38948V5.5887h1.30423V7.39007ZM8.58457,5.18487v-.155H10.8831v.155Zm-.18665,9.19469h-.3422V14.224h.3422Zm2.98174,0h-.344V14.224h.3422Z" fill="#fff"/></svg>