<?xml version="1.0" encoding="utf-8"?>
<!-- Generator: Adobe Illustrator 23.0.1, SVG Export Plug-In . SVG Version: 6.00 Build 0)  -->
<svg version="1.1" id="Layer_1" xmlns="http://www.w3.org/2000/svg" xmlns:xlink="http://www.w3.org/1999/xlink" x="0px" y="0px"
	 width="19.843px" height="19.843px" viewBox="0 0 19.843 19.843" enable-background="new 0 0 19.843 19.843" xml:space="preserve">
<circle fill="#5E94FF" stroke="#FFFFFF" stroke-miterlimit="10" cx="10.071" cy="9.971" r="8.504"/>
<g>
	<path fill="#FFFFFF" d="M8.823,6.038c0-0.79,0.653-1.442,1.442-1.442c0.79,0,1.442,0.653,1.442,1.442s-0.653,1.442-1.442,1.442
		C9.476,7.481,8.823,6.829,8.823,6.038z"/>
	<path fill="#FFFFFF" d="M10.952,8.443c0-0.309,0.138-0.618,0.309-0.858C11.124,7.55,11.021,7.55,10.884,7.55H9.647
		c-0.138,0-0.241,0-0.377,0.034c0.206,0.275,0.309,0.584,0.309,0.927c0.241-0.138,0.481-0.206,0.756-0.206
		C10.54,8.305,10.781,8.374,10.952,8.443z"/>
	<path fill="#FFFFFF" d="M11.193,8.581c0.412,0.275,0.722,0.687,0.756,1.237c0.172,0.069,0.377,0.138,0.55,0.138
		c0.722,0,1.34-0.584,1.34-1.34c0-0.756-0.584-1.34-1.34-1.34C11.811,7.275,11.193,7.859,11.193,8.581z"/>
	<path fill="#FFFFFF" d="M10.334,11.294c0.722,0,1.34-0.584,1.34-1.34c0-0.756-0.584-1.34-1.34-1.34s-1.34,0.584-1.34,1.34
		S9.613,11.294,10.334,11.294z"/>
	<path fill="#FFFFFF" d="M10.884,11.397H9.751c-0.927,0-1.683,0.756-1.683,1.683v1.374v0.034l0.103,0.034
		c0.893,0.275,1.683,0.377,2.301,0.377c1.237,0,1.958-0.343,2.026-0.377l0.103-0.034l0,0v-1.374
		C12.601,12.152,11.846,11.397,10.884,11.397z"/>
	<path fill="#FFFFFF" d="M13.082,10.023h-1.099c0,0.446-0.206,0.858-0.515,1.133c0.824,0.241,1.442,1.03,1.442,1.924v0.412
		c1.099-0.034,1.752-0.343,1.786-0.377l0.103-0.034l0,0v-1.374C14.799,10.779,14.009,10.023,13.082,10.023z"/>
	<path fill="#FFFFFF" d="M7.999,9.919c0.275,0,0.515-0.069,0.687-0.206c0.069-0.412,0.275-0.79,0.618-1.03c0-0.034,0-0.034,0-0.069
		c0-0.722-0.584-1.34-1.34-1.34c-0.756,0-1.34,0.584-1.34,1.34C6.659,9.336,7.278,9.919,7.999,9.919z"/>
	<path fill="#FFFFFF" d="M9.201,11.156c-0.309-0.275-0.481-0.687-0.515-1.133c-0.034,0-0.069,0-0.138,0H7.415
		c-0.927,0-1.683,0.756-1.683,1.683v1.374v0.034l0.103,0.034c0.722,0.241,1.374,0.343,1.924,0.377v-0.411
		C7.758,12.186,8.377,11.397,9.201,11.156z"/>
</g>
</svg>
