<svg id="Layer_1" data-name="Layer 1" xmlns="http://www.w3.org/2000/svg" width="19.44" height="19.44" viewBox="0 0 19.44 19.44"><circle cx="9.72" cy="9.72" r="8.5" fill="#ea2642" stroke="#fff" stroke-miterlimit="10"/><path d="M9.99506,6.15616q-.45546.46307-.91259.925c-.15393.15562-.243.15534-.39836.00225-.29461-.29066-.29461-.30786.00169-.59317.049-.04708.09952-.09275.16859-.157H5.94718v-.7471H8.84c-.08768-.08768-.16464-.16521-.24189-.24245-.16323-.16408-.1638-.2574-.0031-.41922.27149-.27347.307-.27347.58133.00535q.40935.41528.81758.8314A.23627.23627,0,0,1,9.99506,6.15616Z" fill="#fff"/><path d="M13.47344,11.09238a.34247.34247,0,0,1-.36566.20158c-.43472-.09389-.8686-.19087-1.30305-.28588a.37478.37478,0,0,1-.27431-.23371c-.09445-.21426-.19284-.42683-.29969-.66224-.24978.40541-.48688.79051-.72934,1.18436.09642.073.18607.14125.27573.20919.16774.12715.33774.25148.50267.382a.51993.51993,0,0,1,.18748.70481q-.40048.943-.81533,1.87987a.3889.3889,0,1,1-.713-.31011c.23118-.56019.4649-1.119.702-1.68873-.03806-.03017-.07471-.06005-.11249-.08881q-.50324-.381-1.007-.76176a.57214.57214,0,0,1-.18212-.75471c.15647-.29179.338-.57033.51-.85367.159-.26191.32-.52269.48773-.79643-.232-.08233-.45108-.16268-.673-.23541a.17943.17943,0,0,0-.11136.0296q-.59247.29391-1.18268.59148a.33071.33071,0,0,1-.36481-.03468.27833.27833,0,0,1-.1122-.28869A.3302.3302,0,0,1,8.0822,9.029c.43726-.22864.87594-.45418,1.31292-.68282a.49663.49663,0,0,1,.40033-.01381c.35044.11136.70115.22244,1.05046.33718a.59987.59987,0,0,1,.15815.08627c.16719.12151.32788.25148.49732.369a.58885.58885,0,0,1,.23231.32844c.08288.27037.17479.53819.25655.80884a.15616.15616,0,0,0,.12714.1232c.34931.08571.69749.1762,1.0451.269a.66344.66344,0,0,1,.19988.08232A.31485.31485,0,0,1,13.47344,11.09238Z" fill="#fff"/><path d="M9.55948,12.02019c-.18578.221-.35691.44573-.55257.64646a.465.465,0,0,1-.30222.12207c-.57795.00366-1.15589-.00789-1.73384-.02086a.39053.39053,0,0,1-.36537-.3572.37679.37679,0,0,1,.30391-.40738.81835.81835,0,0,1,.16831-.01523c.45277-.00451.90554-.0093,1.35832-.009a.19177.19177,0,0,0,.17958-.09247c.08824-.13025.18607-.254.2901-.39441C9.12476,11.66892,9.33451,11.83835,9.55948,12.02019Z" fill="#fff"/><path d="M12.52956,8.05943a.75885.75885,0,0,1-.75725.74429.74457.74457,0,0,1-.74485-.73893.75247.75247,0,0,1,.73808-.76176A.77616.77616,0,0,1,12.52956,8.05943Z" fill="#fff"/></svg>