<svg id="Layer_1" data-name="Layer 1" xmlns="http://www.w3.org/2000/svg" width="19.44" height="19.44" viewBox="0 0 19.44 19.44"><circle cx="9.72" cy="9.72" r="8.5" fill="#7b9eb0" stroke="#fff" stroke-miterlimit="10"/><path id="Shape" d="M13.48324,8.33167H11.7091a1.03468,1.03468,0,0,0-.7352.3009l-3.53976,3.576A.36336.36336,0,0,1,7.2,12.30858H5.92826a1.183,1.183,0,0,0-.836,2.04309,1.29232,1.29232,0,0,0,.90339.36832H7.90039a1.03184,1.03184,0,0,0,.73449-.30161l3.5426-3.544a.36468.36468,0,0,1,.23418-.10006h1.0361a1.35476,1.35476,0,0,0,.90268-.36761,1.21493,1.21493,0,0,0,.36831-.87,1.24616,1.24616,0,0,0-1.23551-1.20642Zm-7.555,4.81359a.445.445,0,0,0-.26683.10006.35984.35984,0,0,0-.10007.23419.16818.16818,0,0,1-.33566,0,.73658.73658,0,0,1,.20083-.50243.6827.6827,0,0,1,.50173-.20084.15967.15967,0,0,1,.16818.16819C6.095,13.07855,6.029,13.14526,5.92826,13.14526Zm6.18535-3.07493h-.33425v.33425a.159.159,0,0,1-.14921.16814.15685.15685,0,0,1-.01827,0h-.33425v.33354a.159.159,0,0,1-.16819.16819h-.33353v.33425a.159.159,0,0,1-.16819.16748h-.33354v.33424a.15967.15967,0,0,1-.16819.16819H9.77317v.33354a.15968.15968,0,0,1-.16819.16819H9.27073v.33282a.159.159,0,0,1-.14921.16815.15685.15685,0,0,1-.01827,0H8.769v.33354a.159.159,0,0,1-.16819.16819H8.26728v.33425a.16819.16819,0,0,1-.33638,0v-.50386a.15968.15968,0,0,1,.16819-.16819h.33425v-.33495a.159.159,0,0,1,.14921-.16815.15667.15667,0,0,1,.01826,0h.33425v-.33354a.159.159,0,0,1,.16819-.16819h.33354v-.33424a.159.159,0,0,1,.14992-.16752.15685.15685,0,0,1,.01827,0h.33424v-.33425a.159.159,0,0,1,.16748-.16819h.335v-.33354a.159.159,0,0,1,.16819-.16818h.33353V10.401a.15968.15968,0,0,1,.16819-.16819h.33354V9.90072a.15968.15968,0,0,1,.16819-.16819H12.115a.15968.15968,0,0,1,.16819.16819.16252.16252,0,0,1-.15509.16961Q12.12086,10.07064,12.11361,10.07033Zm1.90471-.33567a.15827.15827,0,0,1-.16748-.16819.30443.30443,0,0,0-.10006-.23347.36117.36117,0,0,0-.23419-.10006.16819.16819,0,0,1,0-.33638.73591.73591,0,0,1,.50173.20154.67844.67844,0,0,1,.20083.50173C14.1858,9.63531,14.08574,9.73466,14.01832,9.73466Z" fill="#fff"/><path d="M7.13254,10.73953V11.946h.03335l.9701-.96939c0-.23419.03407-.401-.13412-.56773a.5053.5053,0,0,0-.56773-.10077A.47335.47335,0,0,0,7.13254,10.73953Z" fill="#fff"/><circle id="Oval" cx="7.63285" cy="9.36706" r="0.50173" fill="#fff"/><path d="M9.974,6.62566l.60178.6025a.1618.1618,0,0,0,.22876.00543L10.81,7.22816l1.13545-1.13545.20154.20083c.03335.06742.13341.06742.20083.03407a.1845.1845,0,0,0,.10006-.16819v-1.271a.15967.15967,0,0,0-.16818-.16819H11.10944a.18662.18662,0,0,0-.16747.10006c-.03407.06671,0,.13413.03406.20083l.13341.16819L9.903,6.39574a.176.176,0,0,0-.06671.13412c.06671,0,.10077.066.13413.09864Z" fill="#fff"/><path d="M9.03725,10.10368l1.03539-1.03609v-.071a.50173.50173,0,0,0-1.00345,0l-.03194,1.10422Z" fill="#fff"/><circle cx="9.53827" cy="7.66318" r="0.50173" fill="#fff"/></svg>