<svg id="Layer_1" data-name="Layer 1" xmlns="http://www.w3.org/2000/svg" width="19.44" height="19.44" viewBox="0 0 19.44 19.44"><circle cx="9.72" cy="9.72" r="8.5" fill="#7b9eb0" stroke="#fff" stroke-miterlimit="10"/><path d="M11.12515,12.46639c-.10541,0-.21091.00288-.31621-.00049a1.45374,1.45374,0,0,1-1.16357-.62517c-.142-.19084-.2591-.40025-.38707-.60151-.05193-.08168-.09638-.169-.15547-.245a.47193.47193,0,0,0-.47512-.174.30735.30735,0,0,0-.252.24112,1.02486,1.02486,0,0,0,.0036.49162,1.551,1.551,0,0,0,.18356.45893,1.074,1.074,0,0,1,.06907.14743.14852.14852,0,0,1-.071.2114,1.41789,1.41789,0,0,1-.34945.13011c-.22919.045-.4626.06822-.69393.10267A1.32738,1.32738,0,0,0,7.376,12.641a.39553.39553,0,0,0,.19129.18572,3.05113,3.05113,0,0,0,1.11623.30183c.2642.01715.5294.01959.79421.02652a1.04859,1.04859,0,0,1,.55559.14473.62979.62979,0,0,1,.10587,1.00625,1.35139,1.35139,0,0,1-.75869.37072,2.89066,2.89066,0,0,1-1.2786-.07069,3.92291,3.92291,0,0,1-1.39993-.63341,1.889,1.889,0,0,1-.7562-1.2708,2.66924,2.66924,0,0,1,.1771-1.32876,11.99372,11.99372,0,0,1,.64355-1.38932c.13241-.26088.28109-.51459.43811-.76157a1.78194,1.78194,0,0,1,.54024-.53612,1.34884,1.34884,0,0,1,.73651-.2257c.91082-.00532,1.82175-.00752,2.73252.0007a1.33762,1.33762,0,0,1,1.03375.50177,3.20717,3.20717,0,0,1,.33931.47112q.36321.62958.70153,1.27341a2.0299,2.0299,0,0,1,.22485.79327,1.65968,1.65968,0,0,1-.27919,1.08549,3.32859,3.32859,0,0,1-1.14529,1.091,1.56814,1.56814,0,0,1-.9381.19009.74094.74094,0,0,1-.36051-.13776.57.57,0,0,1-.16629-.68429,1.03131,1.03131,0,0,1,.27724-.34587c.0782-.07151.15537-.14415.233-.21628Zm-.1561-2.49526a1.13505,1.13505,0,1,0,1.13842,1.1266A1.1352,1.1352,0,0,0,10.96905,9.97113Z" fill="#fff"/><path d="M8.077,6.36453A1.64557,1.64557,0,1,1,9.72265,8.00928,1.64707,1.64707,0,0,1,8.077,6.36453Z" fill="#fff"/></svg>