<svg id="Layer_1" data-name="Layer 1" xmlns="http://www.w3.org/2000/svg" width="19.44" height="19.44" viewBox="0 0 19.44 19.44"><circle cx="9.72" cy="9.72" r="8.5" fill="#cc1261" stroke="#fff" stroke-miterlimit="10"/><path d="M9.58519,14.45587l5.38329-5.0817c.30419.2192.30617.434.14545.65834a2.29356,2.29356,0,0,1-.29486.29819q-2.34284,2.24234-4.68684,4.48343c-.4413.42162-.452.42822-.99282.179-1.29023-.5947-2.57453-1.20227-3.86566-1.795a1.33833,1.33833,0,0,1-.899-1.22558c-.03653-.83693-.1241-1.67182-.15331-2.50884A1.85659,1.85659,0,0,1,4.997,7.86317C6.3305,6.8065,7.63958,5.71832,8.93635,4.61687a1.183,1.183,0,0,1,1.38233-.19976c1.2205.555,2.44487,1.10153,3.66206,1.66362.51064.23581.55546.46925.14183.84306-1.48527,1.3423-2.987,2.66641-4.47331,4.00759a.659.659,0,0,1-.82315.06663C7.74069,10.48526,6.6515,9.98046,5.5624,9.47554,5.421,9.41,5.27182,9.36118,5.124,9.30373a1.248,1.248,0,0,0,.71842,1.75235c1.17553.5536,2.348,1.11373,3.60433,1.71031L14.8509,7.67306c.29.27975.30276.50406.07726.73156-.21135.21323-.42751.42182-.64459.62928q-2.12728,2.03313-4.25623,4.06453c-.47838.45634-.496.46053-1.09705.18017-1.0335-.48211-2.06452-.96953-3.09763-1.45248-.17736-.08292-.35993-.15473-.57178-.2452-.09831.43151-.06454.77888.32329.96723C6.89493,13.18471,8.21417,13.80388,9.58519,14.45587Z" fill="#fff"/></svg>