<?xml version="1.0" encoding="utf-8"?>
<!-- Generator: Adobe Illustrator 23.0.1, SVG Export Plug-In . SVG Version: 6.00 Build 0)  -->
<svg version="1.1" id="Layer_1" xmlns="http://www.w3.org/2000/svg" xmlns:xlink="http://www.w3.org/1999/xlink" x="0px" y="0px"
	 width="19.843px" height="19.843px" viewBox="0 0 19.843 19.843" enable-background="new 0 0 19.843 19.843" xml:space="preserve">
<circle fill="#4DDBC4" stroke="#FFFFFF" stroke-miterlimit="10" cx="10.071" cy="9.971" r="8.504"/>
<g>
	<g>
		<path fill="#FFFFFF" d="M6.961,10.429l1.808,1.165c0.058,0.037,0.124,0.055,0.189,0.055c0.114,0,0.227-0.056,0.293-0.16
			c0.104-0.162,0.058-0.377-0.104-0.482L7.339,9.842C7.177,9.738,6.962,9.785,6.858,9.946C6.753,10.109,6.799,10.324,6.961,10.429z"
			/>
		<path fill="#FFFFFF" d="M13.351,12.691h-1.071c0.345-0.5,0.547-1.109,0.547-1.764c0-1.338-0.846-2.481-2.03-2.925l0.503-0.78
			c0.12-0.185,0.161-0.411,0.114-0.628c-0.047-0.216-0.177-0.405-0.363-0.525c-0.387-0.249-0.903-0.138-1.152,0.249L7.715,9.704
			l1.401,0.904l0.993-1.54c0.855,0.186,1.498,0.948,1.498,1.858c0,0.798-0.493,1.488-1.191,1.764h-3.69
			c-0.385,0-0.697,0.313-0.697,0.699s0.313,0.699,0.697,0.699h6.625c0.385,0,0.697-0.313,0.697-0.699
			C14.048,13.005,13.736,12.691,13.351,12.691z"/>
	</g>
</g>
</svg>
