<?xml version="1.0" encoding="utf-8"?>
<!-- Generator: Adobe Illustrator 23.0.1, SVG Export Plug-In . SVG Version: 6.00 Build 0)  -->
<svg version="1.1" id="Layer_1" xmlns="http://www.w3.org/2000/svg" xmlns:xlink="http://www.w3.org/1999/xlink" x="0px" y="0px"
	 width="19.843px" height="19.843px" viewBox="0 0 19.843 19.843" enable-background="new 0 0 19.843 19.843" xml:space="preserve">
<circle fill="#7B9EB0" stroke="#FFFFFF" stroke-miterlimit="10" cx="10.071" cy="9.971" r="8.504"/>
<g>
	<g>
		<g>
			<g>
				<path fill="#FFFFFF" d="M6.306,8.881c0.036,0.108,0.18,0.144,0.288,0.108s0.144-0.18,0.108-0.288L6.234,7.657
					c-0.036-0.108,0-0.216,0.108-0.288l1.872-0.828c0.036-0.036,0.108-0.036,0.144,0C8.394,6.578,8.466,6.613,8.466,6.65
					l1.008,2.231c0.036,0.072,0.108,0.108,0.18,0.108c0.036,0,0.072,0,0.072-0.036c0.108-0.036,0.144-0.18,0.108-0.288L8.826,6.434
					C8.754,6.289,8.646,6.182,8.502,6.11s-0.324-0.036-0.467,0L6.162,7.046C5.838,7.19,5.73,7.55,5.838,7.874L6.306,8.881z"/>
				<path fill="#FFFFFF" d="M10.661,8.881c0.036,0.072,0.108,0.144,0.216,0.144h3.384c0.108,0,0.18-0.072,0.216-0.144l0.36-1.224
					c0.036-0.108-0.036-0.216-0.108-0.252c-0.108-0.036-0.216,0-0.252,0.108c-0.108,0.108-0.467,0.252-0.9,0.252
					c-0.467,0-0.828-0.216-0.828-0.396V6.145c0-0.467-0.36-0.828-0.828-0.828s-0.828,0.36-0.828,0.828v0.216
					c0,0.108,0.108,0.216,0.216,0.216s0.216-0.108,0.216-0.216V6.145c0-0.216,0.18-0.396,0.396-0.396
					c0.216,0,0.396,0.18,0.396,0.396v1.224c0,0.18-0.36,0.396-0.828,0.396c-0.432,0-0.756-0.144-0.828-0.288
					c-0.036-0.072-0.144-0.108-0.252-0.072c-0.108,0.036-0.144,0.144-0.108,0.252L10.661,8.881z"/>
				<path fill="#FFFFFF" d="M14.62,9.421H5.586c-0.108,0-0.216,0.108-0.216,0.216v3.707c0,1.008,0.828,1.835,1.835,1.835h5.723
					c1.008,0,1.835-0.828,1.835-1.835V9.637C14.8,9.529,14.728,9.421,14.62,9.421z M10.229,13.884
					c-0.036,0.036-0.108,0.072-0.144,0.072c-0.072,0-0.108-0.036-0.144-0.072c-0.036-0.036-0.072-0.108-0.072-0.144
					c0-0.072,0.036-0.108,0.072-0.144c0.072-0.072,0.216-0.072,0.288,0c0.036,0.036,0.072,0.108,0.072,0.144
					S10.301,13.848,10.229,13.884z M10.301,12.552v0.36c0,0.108-0.108,0.216-0.216,0.216s-0.216-0.108-0.216-0.216v-0.504
					c0-0.108,0.072-0.18,0.144-0.216h0.036c0.288-0.072,0.611-0.18,0.611-0.576c0-0.324-0.288-0.576-0.611-0.576
					c-0.324,0-0.611,0.216-0.611,0.54c0,0.108-0.108,0.216-0.216,0.18c-0.108,0-0.216-0.108-0.18-0.216
					c0.036-0.504,0.467-0.9,1.008-0.9c0.576,0,1.008,0.432,1.008,0.972C11.129,12.085,10.841,12.409,10.301,12.552z"/>
				<path fill="#FFFFFF" d="M6.701,7.513c-0.108,0-0.216,0.108-0.216,0.216c0,0.109,0.108,0.216,0.216,0.216
					s0.216-0.108,0.216-0.216C6.918,7.621,6.81,7.513,6.701,7.513L6.701,7.513z"/>
			</g>
		</g>
	</g>
</g>
</svg>
