<?xml version="1.0" encoding="utf-8"?>
<!-- Generator: Adobe Illustrator 23.0.1, SVG Export Plug-In . SVG Version: 6.00 Build 0)  -->
<svg version="1.1" id="Layer_1" xmlns="http://www.w3.org/2000/svg" xmlns:xlink="http://www.w3.org/1999/xlink" x="0px" y="0px"
	 width="19.843px" height="19.843px" viewBox="0 0 19.843 19.843" enable-background="new 0 0 19.843 19.843" xml:space="preserve">
<circle fill="#FFCE00" stroke="#FFFFFF" stroke-miterlimit="10" cx="10.071" cy="9.971" r="8.504"/>
<g>
	<path fill="#FFFFFF" d="M6.394,7.952c0.606,0,1.099-0.493,1.099-1.099S7,5.754,6.394,5.754S5.296,6.247,5.296,6.853
		S5.789,7.952,6.394,7.952z"/>
	<path fill="#FFFFFF" d="M5.405,9.524v2.281c0,0.524,0.425,0.949,0.949,0.949h1.237v1.685c0,0.128,0.104,0.232,0.232,0.232h1.096
		c0.128,0,0.232-0.104,0.232-0.232V12.01c0-0.442-0.359-0.801-0.801-0.801H7.385V9.525c0-0.547-0.443-0.991-0.991-0.991
		C5.848,8.534,5.405,8.978,5.405,9.524z"/>
	<path fill="#FFFFFF" d="M13.748,7.952c0.606,0,1.098-0.493,1.098-1.099s-0.493-1.099-1.098-1.099c-0.605,0-1.099,0.493-1.099,1.099
		C12.649,7.459,13.142,7.952,13.748,7.952z"/>
	<path fill="#FFFFFF" d="M12.758,9.524v1.684h-0.965c-0.442,0-0.801,0.359-0.801,0.801v2.431c0,0.128,0.104,0.232,0.232,0.232h1.096
		c0.128,0,0.232-0.104,0.232-0.232v-1.685h1.237c0.524,0,0.949-0.425,0.949-0.949V9.523c0-0.547-0.443-0.991-0.991-0.991
		C13.201,8.534,12.758,8.978,12.758,9.524L12.758,9.524z"/>
	<path fill="#FFFFFF" d="M11.715,10.105c0.156,0,0.282-0.126,0.282-0.282s-0.126-0.282-0.282-0.282H8.427
		c-0.156,0-0.282,0.126-0.282,0.282c0,0.156,0.126,0.282,0.282,0.282h1.361v4.386c0,0.156,0.126,0.282,0.282,0.282
		c0.156,0,0.282-0.126,0.282-0.282v-4.386H11.715z"/>
</g>
</svg>
