<svg id="Layer_1" data-name="Layer 1" xmlns="http://www.w3.org/2000/svg" width="19.44" height="19.44" viewBox="0 0 19.44 19.44"><circle cx="9.72" cy="9.72" r="8.5" fill="#f96d49" stroke="#fff" stroke-miterlimit="10"/><path d="M11.01712,8.6628c.10771.02969.228.05553.343.09617a.70235.70235,0,0,1,.40187.39676q.08617.18648.16709.37537a.34085.34085,0,0,0,.33482.214c.19373.006.38713.024.58086.028A.65339.65339,0,0,1,13.286,9.991a.85516.85516,0,0,1,.26682.63678c-.00363,1.0711-.00716,2.14227.001,3.21332a.88983.88983,0,0,1-.876.87888q-2.96065-.0106-5.92135-.00036a.886.886,0,0,1-.8703-.87067c.00654-1.07539.00168-2.15085.00223-3.22629a.85.85,0,0,1,.53625-.81089A2.08725,2.08725,0,0,1,6.804,9.742a.46149.46149,0,0,0,.19925-.10008.46156.46156,0,0,1,.635.00483.37874.37874,0,0,0,.22836.09295c.276.01106.55273.00831.829.003.21371-.0041.28877-.0818.38336-.31763a1.36461,1.36461,0,0,1,.30823-.52933.7596.7596,0,0,1,.44771-.20538c.03769-.004.07531-.00867.09921-.01144-.02982-.12056-.0535-.23475-.08879-.34524A.11686.11686,0,0,0,9.75975,8.278a1.8696,1.8696,0,0,0-.25866-.00873.60921.60921,0,0,1-.567-.52506.97137.97137,0,0,1-.01126-.15474Q8.92177,6.501,8.92215,5.41264a.67265.67265,0,0,1,.2455-.55847.55275.55275,0,0,1,.35523-.13408c.6392.00134,1.27843-.00211,1.91761.002a.56424.56424,0,0,1,.56047.48732,3.17788,3.17788,0,0,1,.04675.48525c.00534.60894.00817,1.218-.0012,1.82688a.77918.77918,0,0,1-.21024.58963.59822.59822,0,0,1-.44718.16247.5682.5682,0,0,0-.16741.00535.18561.18561,0,0,0-.11088.08577A2.8368,2.8368,0,0,0,11.01712,8.6628Zm-.53281-2.20935V6.454c.27637,0,.55275.00092.82911-.00068a1.09049,1.09049,0,0,0,.19313-.01548.27135.27135,0,0,0,.21322-.24351c.00319-.30653.00091-.61313.00056-.9197a.21312.21312,0,0,0-.1246-.19686.66719.66719,0,0,0-.26808-.07554c-.56561-.00665-1.13135-.00428-1.697-.00282a.35884.35884,0,0,0-.4036.38585c-.00808.2329-.0137.46706.00115.69928.01733.271.10615.36953.37523.369C9.897,6.453,10.19067,6.45345,10.48431,6.45345Zm1.70492,5.72885A1.76941,1.76941,0,0,0,10.4225,10.406a1.79107,1.79107,0,0,0-1.775,1.76247,1.76141,1.76141,0,0,0,1.78076,1.78842A1.74116,1.74116,0,0,0,12.18923,12.1823ZM8.55357,10.89059a.21114.21114,0,0,0-.237-.24006.22368.22368,0,0,0-.25015.234.249.249,0,0,0,.25114.2527A.22017.22017,0,0,0,8.55357,10.89059Z" fill="#fff"/><path d="M10.41959,10.69921A1.485,1.485,0,1,1,8.928,12.17063,1.46906,1.46906,0,0,1,10.41959,10.69921Z" fill="#fff"/></svg>