<?xml version="1.0" encoding="utf-8"?>
<!-- Generator: Adobe Illustrator 23.0.1, SVG Export Plug-In . SVG Version: 6.00 Build 0)  -->
<svg version="1.1" id="Layer_1" xmlns="http://www.w3.org/2000/svg" xmlns:xlink="http://www.w3.org/1999/xlink" x="0px" y="0px"
	 width="19.843px" height="19.843px" viewBox="0 0 19.843 19.843" enable-background="new 0 0 19.843 19.843" xml:space="preserve">
<circle fill="#A071FF" stroke="#FFFFFF" stroke-miterlimit="10" cx="10.071" cy="9.971" r="8.504"/>
<g>
	<g>
		<path fill="#FFFFFF" d="M10.581,13.223l0.147-2.863l0.388-0.068c0.011,0.023,0.019,0.044,0.032,0.067
			c0.107,0.202,0.113,0.519,0.119,0.854c0.01,0.558,0.02,1.134,0.492,1.326c0.336,0.138,0.615,0.2,0.87,0.214v0.299h2.348v-1.129
			h-0.147v-0.295h-1.922v0.295h-0.28v0.735c-0.243-0.014-0.509-0.075-0.833-0.207c-0.411-0.168-0.421-0.711-0.431-1.238
			c-0.006-0.348-0.011-0.676-0.13-0.899c-0.007-0.014-0.011-0.026-0.019-0.04l1.765-0.309l-0.002-0.002l0.749-0.138l-0.872-2.475
			l-0.581,0.211c0.051-0.347,0.056-0.693,0.033-0.968c-0.045-0.54-0.301-0.841-0.79-0.989c-0.037-0.011-0.08-0.011-0.105,0.025
			c-0.006,0.008-0.052,0.031-0.092,0.061c-0.012,0.005-0.023,0.013-0.033,0.028c-0.003,0.004-0.006,0.011-0.009,0.016
			c-0.002,0.001-0.002,0.002-0.003,0.003c-0.001,0.002-0.001,0.004-0.002,0.006C11.192,5.91,11.042,6.6,11.186,6.69
			c0.064,0.04,0.085,0.062,0.156,0.063c0.282,0.01,0.281,0.199,0.236,0.459c-0.058,0.334-0.044,0.815-0.485,0.703
			c-0.031-0.008-0.062,0.011-0.083,0.032c-0.16,0.173-0.347,0.612-0.277,0.923c0.033,0.147,0.141,0.209,0.271,0.224
			c-0.005,0.06-0.011,0.121-0.019,0.182c-0.002,0.011-0.003,0.021-0.004,0.032l-0.407,0.051H9.475l-0.743,0.862L8.014,9.361
			l-1.58,0.287l-0.1,3.51h0.67l0.003,0.068H4.191v0.748h12.415v-0.748L10.581,13.223L10.581,13.223z M11.082,9.289
			c0.008-0.064,0.015-0.126,0.02-0.19c0.166-0.008,0.347-0.075,0.458-0.146c0.279-0.177,0.462-0.484,0.579-0.831l0.339,0.998
			l-1.397,0.174C11.081,9.293,11.081,9.291,11.082,9.289z"/>
		<circle fill="#FFFFFF" cx="8.769" cy="7.116" r="1.949"/>
	</g>
</g>
</svg>
