<svg id="Layer_1" data-name="Layer 1" xmlns="http://www.w3.org/2000/svg" width="19.44" height="19.44" viewBox="0 0 19.44 19.44"><circle cx="9.72" cy="9.72" r="8.5" fill="#7b9eb0" stroke="#fff" stroke-miterlimit="10"/><circle cx="6.95816" cy="5.55625" r="0.83625" fill="#fff"/><path d="M8.55893,7.45653c-.17261-.543-.469-.81339-.91034-.81339H6.2693c-.443,0-.73852.29556-.91034.81181-.29556.837-.93635,2.612-.93635,2.612a.40512.40512,0,0,0,.76374.26955s.46817-1.28078.81182-2.1919c-.02365.17261.02443-.17025-.54148,2.95642,0,.07409,0,.14818.02444.17182a.27736.27736,0,0,0,.171.07409h.29556v2.88a.46818.46818,0,0,0,.93635.0006V11.36979h.22226v2.88234a.46818.46818,0,0,0,.93635,0V11.36979h.29477a.18678.18678,0,0,0,.17182-.07409c.02444-.04965.07409-.09852.02444-.171-.614-3.17869-.5399-2.809-.58955-2.98007.31921.93556.91033,2.36451.91033,2.4386a.398.398,0,0,0,.73931-.29478C9.62217,10.238,8.85449,8.2912,8.55893,7.45653Z" fill="#fff"/><circle cx="13.01761" cy="5.55625" r="0.83625" fill="#fff"/><path d="M15.0369,7.60076a.95211.95211,0,0,0-.93635-.9324h-2.143a.95211.95211,0,0,0-.93635.93555v2.90756a.38779.38779,0,0,0,.38137.39409q.00636.00011.01272,0h0a.38778.38778,0,0,0,.39408-.38137q.0001-.00636,0-.01272V7.60076h0c0-.02364.02444-.07409.09853-.07409a.07881.07881,0,0,1,.07408.07409v6.65058a.46818.46818,0,0,0,.93635,0V10.43423h.22226v3.79268a.46817.46817,0,0,0,.93556.0384q.00078-.01918,0-.0384V7.57712a.07409.07409,0,0,1,.14818,0h0v2.90677a.38777.38777,0,0,0,.38137.39408q.00634.00011.01271,0h0a.38778.38778,0,0,0,.39409-.38137q.00009-.00635,0-.01271Z" fill="#fff"/><path d="M10.259,5.092a.3791.3791,0,0,0-.36965.36886v8.52169a.36965.36965,0,0,0,.7393,0V5.40728A.36964.36964,0,0,0,10.259,5.092Z" fill="#fff"/></svg>