<svg id="Layer_1" data-name="Layer 1" xmlns="http://www.w3.org/2000/svg" width="19.44" height="19.44" viewBox="0 0 19.44 19.44"><circle cx="9.72" cy="9.72" r="8.5" fill="#e761b2" stroke="#fff" stroke-miterlimit="10"/><path d="M9.07922,8.4604,6.4917,8.85989a1.07622,1.07622,0,0,0-.12263-.09819,1.36208,1.36208,0,0,0-1.661.21561,1.4967,1.4967,0,0,0-.47726.91587,1.137,1.137,0,0,0,.28544.92177,1.065,1.065,0,0,0,.18556.15892v.00067a1.28945,1.28945,0,0,0,1.29038.03946.29152.29152,0,0,0,.06394.05941.30869.30869,0,0,0,.42361-.43662,1.46808,1.46808,0,0,0,.36035-.79439,1.2133,1.2133,0,0,0-.04774-.51469L9.3328,9.12208ZM6.47183,9.79953a1.12376,1.12376,0,0,1-.36118.6871.99158.99158,0,0,1-1.20081.17984.70422.70422,0,0,1-.12161-.10425.7718.7718,0,0,1-.18877-.62657A1.12262,1.12262,0,0,1,4.961,9.24921a.99049.99049,0,0,1,1.20095-.18036.69053.69053,0,0,1,.12147.10425A.77457.77457,0,0,1,6.47183,9.79953Z" fill="#fff"/><polygon points="10.64 9.015 15.047 6.178 15.22 5.876 12.039 7.33 10.61 9.018 10.64 9.015" fill="#fff"/><path d="M7.79494,13.86671a1.58124,1.58124,0,0,0,.48857-.18015,1.36207,1.36207,0,0,0,.70213-1.521.98931.98931,0,0,0-.05736-.14612l1.40645-2.99678,3.92092-4.63149-.41633.24427L9.347,8.53611l.2404.62807L8.45943,11.52174a1.23351,1.23351,0,0,0-.36491-.12887,1.49385,1.49385,0,0,0-1.01677.18185,1.36171,1.36171,0,0,0-.70212,1.52067,1.06609,1.06609,0,0,0,.0965.22439,1.08589,1.08589,0,0,0,.37551.38594c.30671.383.04791.94911.038,1.08679-.01029.14034.24158.30735.29827.24153C7.23807,14.97235,7.35445,14.02731,7.79494,13.86671ZM9.86333,8.80285a.204.204,0,1,1,.00018.00017l-.00016-.00017ZM8.09939,13.36468a1.12487,1.12487,0,0,1-.76321.139.77006.77006,0,0,1-.54153-.3671.684.684,0,0,1-.06311-.14745A.99073.99073,0,0,1,7.2621,11.897a1.12759,1.12759,0,0,1,.76352-.13967.77265.77265,0,0,1,.54153.36741.73243.73243,0,0,1,.06311.14748.99241.99241,0,0,1-.53083,1.09248Z" fill="#fff"/></svg>