<svg id="Layer_1" data-name="Layer 1" xmlns="http://www.w3.org/2000/svg" width="19.44" height="19.44" viewBox="0 0 19.44 19.44"><circle cx="9.72" cy="9.72" r="8.5" fill="#7b9eb0" stroke="#fff" stroke-miterlimit="10"/><path d="M15.16057,12.13714l-1.56313-1.87247c-.15549-.15549-.46812-.15549-.46812,0l-1.56313,1.87247c-.15549.15549,0,.46812.31262.46812h.62855v1.56313a.33648.33648,0,0,0,.3118.31262h1.25133a.33648.33648,0,0,0,.31262-.31262V12.60526h.62443a.30195.30195,0,0,0,.153-.46812Z" fill="#fff"/><path d="M8.138,4.95908a1.23405,1.23405,0,0,0-1.24883,1.2191q-.00015.01323,0,.02647A1.36485,1.36485,0,0,0,8.138,7.60817,1.234,1.234,0,0,0,9.386,6.38828q.00017-.01447,0-.029A1.499,1.499,0,0,0,8.138,4.95908Z" fill="#fff"/><path d="M14.07049,6.987h-2.812c-.15549,0-.15549,0-.31263.15631L7.20176,11.98083a.543.543,0,0,1-.31262.15549H5.326a1.17564,1.17564,0,0,0-1.09255.77909A.93545.93545,0,0,0,5.17052,14.008H8.13224c.15549,0,.15549,0,.31263-.15632l3.74575-4.83583a.543.543,0,0,1,.31263-.15549h1.71532a1.007,1.007,0,0,0,.93624-.93623h0C15.16057,7.29966,14.84794,6.987,14.07049,6.987Z" fill="#fff"/><path d="M8.138,7.61229A1.234,1.234,0,0,0,6.88914,8.83135q-.00018.01489,0,.0298V11.358h0L9.386,8.23672A1.92261,1.92261,0,0,0,8.138,7.61229Z" fill="#fff"/></svg>