<?xml version="1.0" encoding="utf-8"?>
<!-- Generator: Adobe Illustrator 23.0.1, SVG Export Plug-In . SVG Version: 6.00 Build 0)  -->
<svg version="1.1" id="Layer_1" xmlns="http://www.w3.org/2000/svg" xmlns:xlink="http://www.w3.org/1999/xlink" x="0px" y="0px"
	 width="19.843px" height="19.843px" viewBox="0 0 19.843 19.843" enable-background="new 0 0 19.843 19.843" xml:space="preserve">
<circle fill="#7B9EB0" stroke="#FFFFFF" stroke-miterlimit="10" cx="10.071" cy="9.971" r="8.504"/>
<g>
	<g>
		<g>
			<polygon fill="#FFFFFF" points="14.773,12.26 5.118,12.26 5.118,13.643 4.791,13.643 4.791,14.115 15.101,14.115 15.101,13.643 
				14.773,13.643 			"/>
			<path fill="#FFFFFF" d="M12.097,6.056C11.952,5.987,11.843,5.9,11.76,5.815h-0.155h-0.001c0.1,0.118,0.257,0.249,0.492,0.332
				L12.097,6.056L12.097,6.056z"/>
			<path fill="#FFFFFF" d="M12.097,6.373c-0.354-0.092-0.56-0.29-0.673-0.443c-0.001,0.007-0.002,0.015-0.002,0.023v0.095
				c0.111,0.151,0.317,0.345,0.675,0.429V6.373L12.097,6.373z"/>
			<path fill="#FFFFFF" d="M12.097,6.204c-0.28-0.093-0.457-0.254-0.562-0.39c-0.006,0-0.014,0-0.02,0
				c-0.028,0-0.053,0.019-0.07,0.049c0.1,0.147,0.296,0.355,0.653,0.452L12.097,6.204L12.097,6.204z"/>
			<path fill="#FFFFFF" d="M12.097,5.952c0-0.075-0.041-0.136-0.092-0.136h-0.092h-0.075c0.068,0.063,0.154,0.126,0.259,0.18
				L12.097,5.952L12.097,5.952z"/>
			<path fill="#FFFFFF" d="M12.097,6.532c-0.339-0.076-0.549-0.248-0.675-0.398v0.119c0.124,0.146,0.335,0.312,0.675,0.381V6.532z"
				/>
			<path fill="#FFFFFF" d="M12.097,6.69c-0.326-0.063-0.539-0.213-0.675-0.356v0.118c0.134,0.138,0.348,0.283,0.675,0.339V6.69z"/>
			<path fill="#FFFFFF" d="M11.422,6.641c0.131,0.134,0.336,0.275,0.647,0.334c0.017-0.023,0.028-0.051,0.028-0.081V6.846
				c-0.316-0.052-0.531-0.183-0.675-0.317L11.422,6.641L11.422,6.641L11.422,6.641z"/>
			<path fill="#FFFFFF" d="M11.557,7.029h0.045c-0.068-0.039-0.128-0.08-0.179-0.124C11.429,6.975,11.487,7.029,11.557,7.029z"/>
			<path fill="#FFFFFF" d="M11.759,5.327c-0.015,0-0.027,0.012-0.027,0.027v0.355h-0.124v0.082h0.304V5.709h-0.124V5.354
				C11.787,5.339,11.774,5.327,11.759,5.327z"/>
			<path fill="#FFFFFF" d="M15.454,9.651c-0.063-0.028-0.215-0.022-0.339,0.013C14.991,9.7,14.8,9.71,14.688,9.687l-0.202-0.041
				V6.668h-0.3v1.105h-0.409V7.35c0-0.121-0.098-0.218-0.218-0.218H11.91V7.06h-0.304v0.072h-0.025
				c-0.121,0-0.291,0.066-0.394,0.129c-0.393,0.243-1.066,0.43-1.836,0.43c-0.735,0-1.272-0.171-1.63-0.398
				C7.828,7.298,7.934,7.3,8.04,7.3c1.585,0,3.139-0.404,3.381-0.47v0.002c0.078,0.07,0.177,0.141,0.302,0.197h0.236
				c0.019,0,0.036-0.004,0.053-0.011c-0.271-0.059-0.461-0.179-0.591-0.301C11.4,6.724,9.387,7.305,7.53,7.192
				c-0.081-0.034-0.171-0.06-0.244-0.06H6.181c-0.121,0-0.218,0.098-0.218,0.218v0.627h-0.15c-0.06,0-0.109,0.049-0.109,0.109V8.59
				c0,0.06,0.049,0.109,0.109,0.109h0.15v1.582c0,0.121,0.098,0.218,0.218,0.218h1.105c0.121,0,0.218-0.098,0.218-0.218v-0.192
				c0-0.12,0.072-0.285,0.164-0.361C8.055,9.405,8.622,9.041,9.257,9.04c0.845-0.003,1.368,0.259,1.689,0.556
				c0.088,0.082,0.141,0.255,0.129,0.375l-0.202,1.992h2.905V9.23h0.409v1.05h0.3v-0.123c0,0,0.091-0.019,0.202-0.04
				c0.112-0.023,0.302-0.013,0.426,0.023c0.124,0.035,0.275,0.041,0.339,0.014s0.115-0.141,0.115-0.253
				C15.569,9.791,15.518,9.678,15.454,9.651z M12.359,10.159c-0.625,0-1.132-0.507-1.132-1.132s0.507-1.132,1.132-1.132
				c0.625,0,1.132,0.507,1.132,1.132S12.984,10.159,12.359,10.159z"/>
		</g>
	</g>
</g>
</svg>
