<svg id="Layer_1" data-name="Layer 1" xmlns="http://www.w3.org/2000/svg" width="0.42in" height="0.56in" viewBox="0 0 30.24 40.32"><path d="M15.16429.86a14.26022,14.26022,0,0,0-4.1,27.9l3,5.2a1.43581,1.43581,0,0,0,1.8.5,1.205,1.205,0,0,0,.5-.5l2.9-5.1a14.29212,14.29212,0,0,0,9.8-17.7,14.58273,14.58273,0,0,0-13.9-10.3Z" fill="#5e94ff"/><circle cx="15.29772" cy="38.06" r="1.4" fill="#5e94ff"/><path d="M23.48244,13.30473,20.80366,9.733a1.41776,1.41776,0,0,0-.78132-.44647H18.34811a.41641.41641,0,0,0-.44647.33485,3.43024,3.43024,0,0,1-2.79039,1.11616,3.1351,3.1351,0,0,1-2.7904-1.11616c-.11162-.22323-.22323-.22323-.44646-.22323H10.20015a.93961.93961,0,0,0-.78131.44646L6.74006,13.41635a.675.675,0,0,0,0,.89293l1.56262,1.89747c.11161.11162.22323.22323.33485.22323s.22323-.11161.33484-.22323l1.22778-1.451a.10931.10931,0,0,1,.11161-.11161v7.92472a.52726.52726,0,0,0,.55808.55808h8.59443a.52725.52725,0,0,0,.55807-.55808V14.64413l.11162.11161,1.22778,1.451c.11161.11161.22323.22323.33484.22323h0c.11162,0,.22324-.11162.33485-.22323l1.56262-1.89747C23.70567,13.86281,23.70567,13.528,23.48244,13.30473Z" fill="#fff"/></svg>