<?xml version="1.0" encoding="utf-8"?>
<!-- Generator: Adobe Illustrator 26.0.0, SVG Export Plug-In . SVG Version: 6.00 Build 0)  -->
<svg version="1.1" id="Layer_1" xmlns="http://www.w3.org/2000/svg" xmlns:xlink="http://www.w3.org/1999/xlink" x="0px" y="0px"
	 width="30.2px" height="40.3px" viewBox="0 0 30.2 40.3" style="enable-background:new 0 0 30.2 40.3;" xml:space="preserve">
<style type="text/css">
	.st0{fill:#7B9EB0;}
	.st1{fill:#FFFFFF;}
</style>
<g>
	<path class="st0" d="M15.1,0.9C7.2,0.9,0.8,7.3,0.8,15.2c0,6.3,4.1,11.8,10.1,13.6l3,5.2c0.4,0.6,1.2,0.8,1.8,0.5
		c0.2-0.1,0.4-0.3,0.5-0.5l2.9-5.1c7.6-2.2,12-10.1,9.8-17.7C27.1,5.1,21.5,0.9,15.1,0.9L15.1,0.9z"/>
	<circle class="st0" cx="15.1" cy="38" r="1.4"/>
	<circle class="st1" cx="17.1" cy="9.4" r="1.3"/>
	<path class="st1" d="M18.5,17.3c0.2-0.3-0.1-0.5-0.1-0.5l-1.1-0.8c-0.1-0.1-0.5-0.3-0.7,0c-0.2,0.1-0.2,0.4,0,0.6
		c0,0,0.1,0.1,0.1,0.1l0.7,0.5v0.1l-0.4,0.7c0,0.1-0.1,0.1-0.1,0.1c0,0,0,0,0,0c-0.3,0.4-0.2,1,0.3,1.3c0,0,0.1,0.1,0.1,0.1h2.1
		c1,0,1-0.7,1-0.7v-1.9l0,0c0-0.2-0.2-0.4-0.4-0.4c0,0,0,0,0,0c-0.1,0-0.3,0.1-0.3,0.2c0,0,0,0,0,0.1v0.8c0,0.1-0.1,0.1-0.1,0.1
		c0,0,0,0,0,0h-1C18.5,17.5,18.5,17.3,18.5,17.3z"/>
	<circle class="st1" cx="21.4" cy="18.4" r="0.8"/>
	<path class="st1" d="M22.3,19.8c0-0.2-0.1-0.3-0.3-0.3h-5.3c-0.2,0-0.3,0.1-0.3,0.3c0,0.2,0.1,0.3,0.3,0.3H22
		C22.1,20.2,22.3,20.1,22.3,19.8z"/>
	<path class="st1" d="M8.1,19.4h2.8v5.3c0,0.5,0.4,0.8,0.9,0.8c0.4,0,0.8-0.4,0.8-0.8v-5.3h2.2c0.2,0,0.2-0.1,0.2-0.3l-1.3-4.8
		c0-0.2,0.1-0.4,0.2-0.4l2.1-1.3l0.1,1.5l2.5,1.9c0.1,0.1,0.2,0.1,0.3,0.1c0.2,0,0.3-0.1,0.4-0.2c0.2-0.2,0.2-0.5,0-0.7
		c0,0-0.1-0.1-0.1-0.1l-2.1-1.7l-0.1-1.6c0-0.1,0-0.1-0.1-0.2v-0.1l0,0L14.8,9c-0.1-0.1-0.3-0.1-0.4,0c0,0,0,0,0,0l-3.2,3.9
		c-0.1,0.2-0.3,0.3-0.3,0.5L8,19.2C7.8,19.3,8,19.4,8.1,19.4z"/>
</g>
</svg>
