<?xml version="1.0" encoding="utf-8"?>
<!-- Generator: Adobe Illustrator 26.0.0, SVG Export Plug-In . SVG Version: 6.00 Build 0)  -->
<svg version="1.1" id="Layer_1" xmlns="http://www.w3.org/2000/svg" xmlns:xlink="http://www.w3.org/1999/xlink" x="0px" y="0px"
	 width="30.2px" height="40.3px" viewBox="0 0 30.2 40.3" style="enable-background:new 0 0 30.2 40.3;" xml:space="preserve">
<style type="text/css">
	.st0{fill:#7B9EB0;}
	.st1{fill:#FFFFFF;}
</style>
<g>
	<path class="st0" d="M15.1,0.9C7.2,0.9,0.8,7.3,0.8,15.2c0,6.3,4.1,11.8,10.1,13.6l3,5.2c0.4,0.6,1.2,0.8,1.8,0.5
		c0.2-0.1,0.4-0.3,0.5-0.5l2.9-5.1c7.6-2.2,12-10.1,9.8-17.7C27.1,5.1,21.5,0.9,15.1,0.9L15.1,0.9z"/>
	<circle class="st0" cx="15.1" cy="38" r="1.4"/>
	<path class="st1" d="M18.7,11H17V8h0.6c0.2,0,0.3-0.1,0.3-0.3V6.7c0-0.2-0.1-0.3-0.3-0.3h-4.5c-0.2,0-0.3,0.1-0.3,0.3v0.8
		c0,0.2,0.1,0.3,0.3,0.3h0.6v3.1H12c-0.8,0-1.4,0.6-1.4,1.4v8.8c0,0.8,0.6,1.4,1.4,1.4v0.6c0,0.2,0.1,0.3,0.3,0.3h1.2
		c0.2,0,0.3-0.1,0.3-0.3v-0.5h3.4v0.6c0,0.2,0.1,0.3,0.3,0.3h1.1c0.2,0,0.3-0.1,0.3-0.3v-0.6c0.8,0,1.4-0.6,1.4-1.4v-8.8
		c0-0.8-0.5-1.4-1.3-1.4C18.8,11,18.7,11,18.7,11z M12.8,20.7V13c0-0.2,0.1-0.3,0.3-0.3c0.2,0,0.3,0.1,0.3,0.3v7.7
		c0,0.2-0.1,0.3-0.3,0.3C12.9,21,12.8,20.8,12.8,20.7z M15,21.2v-8.8c0-0.2,0.1-0.3,0.3-0.3c0.2,0,0.3,0.1,0.3,0.3v8.8
		c0,0.2-0.1,0.3-0.3,0.3C15.2,21.5,15,21.4,15,21.2L15,21.2z M17.9,20.7c0,0.2-0.1,0.3-0.3,0.3c-0.2,0-0.3-0.1-0.3-0.3V13
		c0-0.2,0.1-0.3,0.3-0.3c0.2,0,0.3,0.1,0.3,0.3V20.7z M14.2,11V8h2.2V11L14.2,11z M13.4,7.3V7h3.9v0.3H13.4z M13.1,22.9h-0.6v-0.3
		h0.6V22.9z M18.2,22.9h-0.6v-0.3h0.6L18.2,22.9z"/>
</g>
</svg>
