<?xml version="1.0" encoding="utf-8"?>
<!-- Generator: Adobe Illustrator 26.0.0, SVG Export Plug-In . SVG Version: 6.00 Build 0)  -->
<svg version="1.1" id="Layer_1" xmlns="http://www.w3.org/2000/svg" xmlns:xlink="http://www.w3.org/1999/xlink" x="0px" y="0px"
	 width="30.2px" height="40.3px" viewBox="0 0 30.2 40.3" style="enable-background:new 0 0 30.2 40.3;" xml:space="preserve">
<style type="text/css">
	.st0{fill:#4DC4FF;}
	.st1{fill:#FFFFFF;}
</style>
<g>
	<path class="st0" d="M15.1,0.9C7.2,0.9,0.8,7.3,0.8,15.2c0,6.3,4.1,11.8,10.1,13.6l3,5.2c0.4,0.6,1.2,0.8,1.8,0.5
		c0.2-0.1,0.4-0.3,0.5-0.5l2.9-5.1c7.6-2.2,12-10.1,9.8-17.7C27.1,5.1,21.5,0.9,15.1,0.9L15.1,0.9z"/>
	<circle class="st0" cx="15.1" cy="38" r="1.4"/>
	<path class="st1" d="M8.5,21.4C8.9,21.8,9.4,22,10,22h10.3c1.1,0,2.1-0.9,2.1-2.1l0,0H7.9C7.9,20.5,8.1,21,8.5,21.4z"/>
	<path class="st1" d="M11.8,18.9h5.7c1,0,1.8-0.8,1.8-1.8v-0.3h0.5c1.7,0,3.1-1.4,3.1-3.1v0c0-1.7-1.4-3.1-3.1-3.1l0,0h-9.3
		c-0.3,0-0.5,0.2-0.5,0.5v5.9C10,18.1,10.8,18.9,11.8,18.9L11.8,18.9z M19.3,12.2h0.5c0.9,0,1.5,0.7,1.5,1.5s-0.7,1.5-1.5,1.5h-0.5
		V12.2z"/>
</g>
</svg>
