<?xml version="1.0" encoding="utf-8"?>
<!-- Generator: Adobe Illustrator 26.0.0, SVG Export Plug-In . SVG Version: 6.00 Build 0)  -->
<svg version="1.1" id="Layer_1" xmlns="http://www.w3.org/2000/svg" xmlns:xlink="http://www.w3.org/1999/xlink" x="0px" y="0px"
	 width="30.2px" height="40.3px" viewBox="0 0 30.2 40.3" style="enable-background:new 0 0 30.2 40.3;" xml:space="preserve">
<style type="text/css">
	.st0{fill:#5E94FF;}
	.st1{fill:#FFFFFF;}
</style>
<g>
	<path class="st0" d="M15.1,0.9C7.2,0.9,0.8,7.3,0.8,15.2c0,6.3,4.1,11.8,10.1,13.6l3,5.2c0.4,0.6,1.2,0.8,1.8,0.5
		c0.2-0.1,0.4-0.3,0.5-0.5l2.9-5.1c7.6-2.2,12-10.1,9.8-17.7C27.1,5.1,21.5,0.9,15.1,0.9L15.1,0.9z"/>
	<circle class="st0" cx="15.1" cy="38" r="1.4"/>
	<path class="st1" d="M13.4,10.6c0-1.1,0.9-2.1,2.1-2.1c1.1,0,2.1,0.9,2.1,2.1c0,1.1-0.9,2.1-2.1,2.1c0,0,0,0,0,0
		C14.4,12.6,13.4,11.7,13.4,10.6z"/>
	<path class="st1" d="M16.5,14c0-0.4,0.2-0.9,0.4-1.2c-0.2,0-0.4-0.1-0.5-0.1h-1.8c-0.2,0-0.4,0-0.5,0c0.3,0.4,0.4,0.8,0.4,1.3
		c0.3-0.2,0.7-0.3,1.1-0.3C15.9,13.8,16.2,13.9,16.5,14z"/>
	<path class="st1" d="M16.8,14.2c0.6,0.4,1,1,1.1,1.8c0.2,0.1,0.5,0.2,0.8,0.2c1.1,0,1.9-0.9,1.9-1.9c-0.1-1-1-1.9-2-1.8
		C17.7,12.5,16.9,13.3,16.8,14.2L16.8,14.2z"/>
	<path class="st1" d="M15.6,18.1c1.1,0,1.9-0.9,1.9-1.9c0-1.1-0.9-1.9-2-1.9c-1,0-1.9,0.9-1.9,1.9C13.7,17.2,14.5,18.1,15.6,18.1z"
		/>
	<path class="st1" d="M16.4,18.2h-1.6c-1.3,0-2.4,1.1-2.4,2.4v2l0.1,0c1.1,0.3,2.2,0.5,3.3,0.5c1,0,2-0.2,2.9-0.5l0.1,0l0,0v-2
		C18.9,19.3,17.8,18.2,16.4,18.2C16.4,18.2,16.4,18.2,16.4,18.2z"/>
	<path class="st1" d="M19.5,16.3H18c0,0.6-0.3,1.2-0.7,1.6c1.2,0.4,2.1,1.5,2.1,2.8v0.6c0.9,0,1.8-0.2,2.6-0.5l0.1,0l0,0v-2
		C22,17.3,20.9,16.3,19.5,16.3z"/>
	<path class="st1" d="M12.2,16.1c0.4,0,0.7-0.1,1-0.3c0.1-0.6,0.4-1.1,0.9-1.5v-0.1c0-1.1-0.9-1.9-1.9-1.9c-1,0-1.9,0.8-1.9,1.9
		c0,0,0,0,0,0.1C10.3,15.3,11.2,16.1,12.2,16.1z"/>
	<path class="st1" d="M14,17.9c-0.4-0.4-0.7-1-0.7-1.6h-1.8c-1.3,0-2.4,1.1-2.4,2.4v2l0.1,0c0.9,0.3,1.8,0.5,2.8,0.5v-0.6
		C11.9,19.4,12.7,18.3,14,17.9z"/>
</g>
</svg>
