<svg id="Layer_1" data-name="Layer 1" xmlns="http://www.w3.org/2000/svg" width="0.42in" height="0.56in" viewBox="0 0 30.24 40.32"><path d="M15.16429.86a14.26022,14.26022,0,0,0-4.1,27.9l3,5.2a1.43581,1.43581,0,0,0,1.8.5,1.205,1.205,0,0,0,.5-.5l2.9-5.1a14.29212,14.29212,0,0,0,9.8-17.7,14.58273,14.58273,0,0,0-13.9-10.3Z" fill="#e761b2"/><circle cx="15.29772" cy="38.06" r="1.4" fill="#e761b2"/><path d="M20.46929,8.42968q0,1.41359-.00026,2.82717c0,.04742-.00877.09524-.005.14219a.31093.31093,0,0,1-.20235.31378,2.37128,2.37128,0,0,1-.75276.23886,3.80769,3.80769,0,0,1-1.0688.02545,2.18835,2.18835,0,0,1-.91374-.32146.561.561,0,0,1-.237-.5488c.00331-.66552.002-1.33108.00087-1.99663-.00069-.40816-.005-.81631-.00644-1.22448a1.8383,1.8383,0,0,1,.36563-1.08243,5.65184,5.65184,0,0,1,1.36582-1.42944,2.54517,2.54517,0,0,1,.74-.37671.691.691,0,0,1,.40491-.01226.42261.42261,0,0,1,.28463.35953,1.22612,1.22612,0,0,1,.02342.2329Q20.47061,7.00351,20.46929,8.42968Z" fill="#fff"/><path d="M21.15238,20.02189c-.00285-1.35986-.00084-2.71971-.00084-4.0794,0-.45871.00336-.91743-.00318-1.376a.5179.5179,0,0,0-.071-.2422.34548.34548,0,0,0-.47634-.06915,3.62076,3.62076,0,0,1-1.67473.497,2.47346,2.47346,0,0,1-.76418-.0715,2.65245,2.65245,0,0,1-.549-.222,4.0215,4.0215,0,0,1-.55657-.36607.31578.31578,0,0,0-.36707-.03944.3455.3455,0,0,0-.18244.33887q.001.48617.001.97265a1.03687,1.03687,0,0,1,.66516.37915q0-.33685.00017-.67371c0-.02434.00369-.04851.00671-.08393a3.22259,3.22259,0,0,0,1.02518.38655,4.12635,4.12635,0,0,0,2.2699-.29843v.121c0,1.25243-.00235,2.505-.00033,3.75765q.001.59667.00352,1.19352a.79833.79833,0,0,1-.16919.53039q.1838.29028.36775.58039a1.43213,1.43213,0,0,0,.47566-1.13663Z" fill="#fff"/><path d="M20.81905,13.33724c-.00739-.17019-.00134-.341-.00151-.51158,0-.20678.00268-.41373-.00067-.62068a.33315.33315,0,0,0-.47214-.29809,3.40015,3.40015,0,0,1-1.23767.32024,2.80081,2.80081,0,0,1-.88872-.07267,2.94329,2.94329,0,0,1-.903-.42363.3359.3359,0,0,0-.53524.28566q.00175.5705.00016,1.14066a1.07781,1.07781,0,0,0,.26989.7192,2.10415,2.10415,0,0,0,1.1133.63394,2.576,2.576,0,0,0,1.38134-.02752,2.33768,2.33768,0,0,0,.98524-.50706A.78959.78959,0,0,0,20.81905,13.33724Zm-.67238.04112a.19433.19433,0,0,1-.07015.10809,1.4474,1.4474,0,0,1-.496.28584,2.03225,2.03225,0,0,1-1.01074.1336,1.64407,1.64407,0,0,1-.98205-.43588.44964.44964,0,0,1-.137-.33854c.00235-.14821.00017-.29641.00067-.44461.00017-.02988.00353-.05959.00621-.10356a3.66321,3.66321,0,0,0,2.69219.12638C20.14986,12.94332,20.15339,13.161,20.14667,13.37836Z" fill="#fff"/><path d="M22.14769,21.59223q-.49774-.78525-.99531-1.57034-.33887-.53448-.67757-1.069-1.13471-1.79029-2.26957-3.58024-.244-.385-.48791-.76973a1.46089,1.46089,0,0,0-.10423-.14434,1.32862,1.32862,0,0,0-1.76436-.27879q-2.88144,1.82378-5.76034,3.65141a1.33037,1.33037,0,0,0-.41927,1.8852q2.19612,3.46628,4.39327,6.93222c.15575.24572.26754.27207.51107.11782q1.853-1.17421,3.70579-2.34895,1.8774-1.18958,3.75413-2.3795C22.23111,21.9128,22.26518,21.77752,22.14769,21.59223Zm-1.5423.03826q-1.45872.925-2.9171,1.84929-1.44034.9129-2.88034,1.82528c-.18933.12-.2761.09936-.39712-.09147q-1.707-2.69386-3.41407-5.38723a1.03434,1.03434,0,0,1,.32561-1.46526q2.23793-1.41945,4.47686-2.83738a1.04892,1.04892,0,0,1,.70879-.15911,1.03687,1.03687,0,0,1,.66516.37915,1.12642,1.12642,0,0,1,.07822.1086q1.5292,2.41239,3.05774,4.82446.1838.29028.36775.58039l.01712.02686C20.78531,21.42808,20.75913,21.53314,20.60539,21.63049Z" fill="#fff"/><path d="M12.10089,14.64435q-1.24284.78774-2.48571,1.57543a.39018.39018,0,0,1-.62732-.14433q-.4399-.69651-.88113-1.39218a.377.377,0,0,1,.12619-.57468q2.51376-1.5949,5.02894-3.18757a.37818.37818,0,0,1,.57451.12724q.45463.71407.90655,1.42988a.374.374,0,0,1-.12777.57216Q13.35866,13.84833,12.10089,14.64435Z" fill="#fff"/><path d="M10.55424,15.723,13.73485,13.707l.77733,1.22639-3.18061,2.016Z" fill="#fff"/></svg>