<svg id="Layer_1" data-name="Layer 1" xmlns="http://www.w3.org/2000/svg" width="0.42in" height="0.56in" viewBox="0 0 30.24 40.32"><path d="M15.16429.86a14.26022,14.26022,0,0,0-4.1,27.9l3,5.2a1.43581,1.43581,0,0,0,1.8.5,1.205,1.205,0,0,0,.5-.5l2.9-5.1a14.29212,14.29212,0,0,0,9.8-17.7,14.58273,14.58273,0,0,0-13.9-10.3Z" fill="#7b9eb0"/><circle cx="15.29772" cy="38.06" r="1.4" fill="#7b9eb0"/><path d="M18.153,13.08151c0-.049,0-.095-.049-.095l-1.877-3.465c0-.049-.049-.049-.1-.1a.437.437,0,0,0,.145-.337v-.91a.535.535,0,0,0-.53-.53H14.495a.535.535,0,0,0-.53.53v.914a.438.438,0,0,0,.144.336c-.049.049-.095.049-.095.1l-1.878,3.466c0,.049-.049.049-.049.095v9.19192a1.346,1.346,0,0,0,1.2,1.3,1.093,1.093,0,0,0,.915-.481,1.109,1.109,0,0,0,1.828,0,1.1,1.1,0,0,0,.915.481,1.346,1.346,0,0,0,1.2-1.3V13.08351Zm-3.033-1.009c.723,0,1.348.336,1.348.722s-.578.722-1.348.722-1.347-.338-1.347-.723C13.777,12.36152,14.4,12.07252,15.12,12.07252Zm2.071,5.86995a.431.431,0,0,1-.429.433H13.533a.431.431,0,0,1-.433-.429v-2.169a.431.431,0,0,1,.428-.434l.005,0h3.225a.431.431,0,0,1,.433.429l0,.005Z" fill="#fff"/></svg>