<svg id="Layer_1" data-name="Layer 1" xmlns="http://www.w3.org/2000/svg" width="0.42in" height="0.56in" viewBox="0 0 30.24 40.32"><path d="M15.16429.86a14.26022,14.26022,0,0,0-4.1,27.9l3,5.2a1.43581,1.43581,0,0,0,1.8.5,1.205,1.205,0,0,0,.5-.5l2.9-5.1a14.29212,14.29212,0,0,0,9.8-17.7,14.58273,14.58273,0,0,0-13.9-10.3Z" fill="#ea2642"/><circle cx="15.29772" cy="38.06" r="1.4" fill="#ea2642"/><path d="M15.60139,9.97511q-.7971.81043-1.59718,1.61889c-.2694.27237-.42532.27187-.69719.004-.51562-.50871-.51562-.53881.003-1.03815.08585-.08239.17418-.16233.29506-.27483H8.517V8.97743h5.06292c-.15345-.15346-.28815-.28914-.42334-.42434-.28569-.28717-.28668-.45049-.00543-.73371.47516-.47861.53733-.47861,1.01742.00938q.71645.7268,1.4309,1.45508A.41351.41351,0,0,1,15.60139,9.97511Z" fill="#fff"/><path d="M21.68914,18.6143a.59936.59936,0,0,1-.64.35279c-.76084-.16431-1.52021-.334-2.28056-.50032a.656.656,0,0,1-.48009-.409c-.1653-.375-.3375-.747-.5245-1.159-.43717.70953-.85213,1.38353-1.27646,2.07283.16874.1278.32565.2472.48256.36611.29358.22253.59111.44013.87975.66858a.91.91,0,0,1,.32812,1.23354q-.70089,1.65047-1.427,3.29008a.68064.68064,0,1,1-1.24784-.54275c.4046-.98042.81363-1.95837,1.2286-2.95556-.06661-.05279-.13076-.10509-.19688-.15542q-.88074-.66686-1.76247-1.33321a1.00136,1.00136,0,0,1-.31875-1.32087c.27385-.51068.59161-.99817.89259-1.49405.27828-.45839.56-.9148.85361-1.3939-.40608-.14407-.78947-.2847-1.17778-.412a.31408.31408,0,0,0-.1949.05181q-1.03692.51438-2.06988,1.03518a.57879.57879,0,0,1-.63847-.06069.48714.48714,0,0,1-.19638-.50526.57786.57786,0,0,1,.33108-.44012c.76528-.40016,1.533-.79489,2.29783-1.19505a.86914.86914,0,0,1,.70065-.02417c.61331.19489,1.22712.3893,1.83846.59012a1.04987,1.04987,0,0,1,.2768.151c.2926.21266.57384.44013.87039.64588a1.03054,1.03054,0,0,1,.40657.57483c.14506.47318.30592.94193.449,1.4156a.2733.2733,0,0,0,.22252.21562c.61135.15,1.22071.30839,1.82909.47072a1.16127,1.16127,0,0,1,.34983.14408A.55105.55105,0,0,1,21.68914,18.6143Z" fill="#fff"/><path d="M14.83907,20.23813c-.32516.38683-.62466.78008-.96709,1.13139a.8138.8138,0,0,1-.52894.21365c-1.0115.00641-2.023-.01381-3.0345-.03651a.68349.68349,0,0,1-.63946-.62516.65945.65945,0,0,1,.5319-.713,1.43148,1.43148,0,0,1,.29457-.02664c.79242-.0079,1.58484-.01629,2.37727-.01579a.33564.33564,0,0,0,.3143-.16184c.15444-.228.32565-.44457.50772-.69029C14.07823,19.62333,14.44533,19.91987,14.83907,20.23813Z" fill="#fff"/><path d="M20.03719,13.30615a1.32811,1.32811,0,0,1-1.32531,1.30261,1.30308,1.30308,0,0,1-1.3036-1.29324A1.31694,1.31694,0,0,1,18.7,11.98232,1.35839,1.35839,0,0,1,20.03719,13.30615Z" fill="#fff"/></svg>