<svg id="Layer_1" data-name="Layer 1" xmlns="http://www.w3.org/2000/svg" width="0.42in" height="0.56in" viewBox="0 0 30.24 40.32"><path d="M15.16429.86a14.26022,14.26022,0,0,0-4.1,27.9l3,5.2a1.43581,1.43581,0,0,0,1.8.5,1.205,1.205,0,0,0,.5-.5l2.9-5.1a14.29212,14.29212,0,0,0,9.8-17.7,14.58273,14.58273,0,0,0-13.9-10.3Z" fill="#7b9eb0"/><circle cx="15.29772" cy="38.06" r="1.4" fill="#7b9eb0"/><path d="M19.41325,24.49727H9.25714a.53339.53339,0,0,1-.24293-.51139,5.17057,5.17057,0,0,1,.01561-.74947,1.78971,1.78971,0,0,1,.32682-.76557.779.779,0,0,0,.20554-.56162q-.00431-4.41906-.0019-8.83814c0-1.2035-.0111-2.40712.00347-3.61044a2.04437,2.04437,0,0,1,2.143-2.12237c1.69215-.007,3.38447-.01256,5.07641.0076a2.4882,2.4882,0,0,1,.97843.20824,1.98561,1.98561,0,0,1,1.17282,1.97323c.00073,1.06559.00534,2.13123-.00334,3.19675-.00185.22767.04411.35667.29128.43478a1.75952,1.75952,0,0,1,1.09251.9224,9.58541,9.58541,0,0,1,.60187,1.68254,9.08588,9.08588,0,0,1-.01937,3.32255,4.946,4.946,0,0,0,.17014,2.33905,1.10817,1.10817,0,0,0,1.17623.80321,1.07315,1.07315,0,0,0,1.08448-.86371,4.433,4.433,0,0,0,.10871-1.9371c-.16888-1.45218-.38573-2.89877-.58135-4.33506-1.10834-.3232-1.249-.5451-1.36025-2.11767a.28276.28276,0,0,0-.08545-.04434c-.31125-.04565-.27612-.2812-.25953-.49124.01744-.22076.18943-.23126.36163-.22879.17073.00244.34153.00053.54393.00053,0-.39012-.00443-.72693.00121-1.06357.00594-.35427.12039-.505.36862-.50585.24811-.00089.36845.15493.3729.49885.00447.346.001.69221.001,1.04948h1.05559c0-.15343-.00028-.28781.00006-.42218.00063-.25071-.00684-.50182.00508-.752a.34481.34481,0,0,1,.34344-.37223c.2478-.01248.36542.13781.39043.36481a3.87687,3.87687,0,0,1,.00631.41331c.00061.25615.00017.5123.00017.78926.21613,0,.3654-.00236.51456.00047.36938.007.51842.18789.38182.5205-.04921.11981-.22592.18725-.36953.29792.00542.88815-.01987,1.80029-1.22444,2.02159a8.79139,8.79139,0,0,0-.05563,1.26259c.08762.92147.24612,1.836.34651,2.7565a6.21762,6.21762,0,0,1-.11113,2.4988,1.78281,1.78281,0,0,1-1.1789,1.311,1.93094,1.93094,0,0,1-2.59306-1.298,5.25188,5.25188,0,0,1-.15549-.694,11.63513,11.63513,0,0,1,.113-3.10638,6.1446,6.1446,0,0,0-.41979-3.01851,1.42852,1.42852,0,0,0-.87581-.87272,1.76035,1.76035,0,0,0-.02186.18168c-.00121,2.63264-.004,5.26529.00609,7.89788a.55642.55642,0,0,0,.18323.36537A1.878,1.878,0,0,1,19.41325,24.49727ZM14.28206,13.59764c.689,0,1.378.004,2.067-.00111.70115-.00517,1.01313-.31517,1.01546-1.00438q.00426-1.25915-.00028-2.51831a.87555.87555,0,0,0-.96939-.98146q-2.10453-.00828-4.20911.00035a.86634.86634,0,0,0-.95756.95458q-.00839,1.29669-.00016,2.59347a.85332.85332,0,0,0,.94952.95464C12.87894,13.60415,13.58054,13.59742,14.28206,13.59764Zm.62275,3.689c.04173-.776.09-1.48868.10982-2.20213a.529.529,0,0,0-.16725-.40655c-.1804-.11191-.28116.07458-.36407.218q-1.05223,1.82065-2.10269,3.64233c-.19777.345-.115.48068.28494.48856.31943.00628.63909.00127.98161.00127-.01377.17812-.01676.31562-.03618.45076-.08545.59467-.18731,1.18732-.25528,1.78389a.5109.5109,0,0,0,.13412.41322c.17046.1132.285-.05419.37214-.20308.71481-1.22056,1.434-2.43855,2.14644-3.66053.212-.36361.11226-.5187-.32338-.52511C15.43719,17.28364,15.18925,17.28663,14.90481,17.28663ZM9.80127,23.7117h8.99284c.09734-.70978-.03322-.81273-.65541-.80255-1.37673.02253-2.75407.007-4.13116.007q-1.85907,0-3.71815.00063c-.41687.00057-.50028.08748-.5019.50886C9.78715,23.51212,9.79555,23.59863,9.80127,23.7117Z" fill="#fff"/></svg>