<?xml version="1.0" encoding="utf-8"?>
<!-- Generator: Adobe Illustrator 26.0.0, SVG Export Plug-In . SVG Version: 6.00 Build 0)  -->
<svg version="1.1" id="Layer_1" xmlns="http://www.w3.org/2000/svg" xmlns:xlink="http://www.w3.org/1999/xlink" x="0px" y="0px"
	 width="30.2px" height="40.3px" viewBox="0 0 30.2 40.3" style="enable-background:new 0 0 30.2 40.3;" xml:space="preserve">
<style type="text/css">
	.st0{fill:#EE4D4D;}
	.st1{fill:#FFFFFF;}
</style>
<g>
	<path class="st0" d="M15.1,0.9C7.2,0.9,0.8,7.3,0.8,15.2c0,6.3,4.1,11.8,10.1,13.6l3,5.2c0.4,0.6,1.2,0.8,1.8,0.5
		c0.2-0.1,0.4-0.3,0.5-0.5l2.9-5.1c7.6-2.2,12-10.1,9.8-17.7C27.1,5.1,21.5,0.9,15.1,0.9L15.1,0.9z"/>
	<circle class="st0" cx="15.1" cy="38" r="1.4"/>
	<path class="st1" d="M22.5,15.2c0-0.1-0.1-0.1-0.1-0.2l-1.7-1.7c-0.2-0.2-0.6-0.2-0.8,0s-0.2,0.6,0,0.8l0.7,0.7h-3.1
		c-0.3,0-0.5,0.3-0.5,0.6c0,0.3,0.2,0.5,0.5,0.5h3.1l-0.7,0.7c-0.2,0.2-0.2,0.6,0,0.8c0,0,0,0,0,0c0.2,0.2,0.6,0.2,0.8,0
		c0,0,0,0,0,0l1.7-1.7c0.1-0.1,0.1-0.1,0.1-0.2C22.5,15.5,22.5,15.3,22.5,15.2z"/>
	<path class="st1" d="M18.6,17.1c-0.3,0-0.6,0.2-0.6,0.6v2.8h-2.2v-8.9c0-0.2-0.2-0.5-0.4-0.5l-1.9-0.6h4.6v2.8
		c0,0.3,0.2,0.6,0.6,0.6c0.3,0,0.6-0.2,0.6-0.6l0,0V9.8c0-0.3-0.2-0.6-0.6-0.6H9.7c0,0,0,0-0.1,0l-0.1,0c-0.1,0-0.1,0-0.2,0.1
		c0,0,0,0,0,0l0,0c-0.1,0-0.1,0.1-0.1,0.2c0,0,0,0,0,0c0,0,0,0.1,0,0.1c0,0,0,0,0,0c0,0,0,0,0,0V21c0,0.3,0.2,0.5,0.4,0.5l5.6,1.1
		c0,0,0.1,0,0.1,0c0.1,0,0.3,0,0.4-0.1c0.1-0.1,0.2-0.3,0.2-0.4v-0.6h2.8c0.3,0,0.6-0.2,0.6-0.6v-3.3C19.2,17.3,18.9,17.1,18.6,17.1
		z"/>
</g>
</svg>
