<svg id="Layer_1" data-name="Layer 1" xmlns="http://www.w3.org/2000/svg" width="0.42in" height="0.56in" viewBox="0 0 30.24 40.32"><path d="M15.16429.86a14.26022,14.26022,0,0,0-4.1,27.9l3,5.2a1.43581,1.43581,0,0,0,1.8.5,1.205,1.205,0,0,0,.5-.5l2.9-5.1a14.29212,14.29212,0,0,0,9.8-17.7,14.58273,14.58273,0,0,0-13.9-10.3Z" fill="#e761b2"/><circle cx="15.29772" cy="38.06" r="1.4" fill="#e761b2"/><path d="M24.085,15.37a3.01058,3.01058,0,0,0-2.93-2.4H9.085a3.01054,3.01054,0,0,0-2.93,2.4H4.895v1.2h1.22c.21,2.54,1.74,3.59,4.21,3.59,2.34,0,3.92-1.2,4.16-3.52a2.91437,2.91437,0,0,1,1.27,0c.25,2.31994,1.87,3.52,4.2,3.52,2.44,0,3.96-1.03,4.17-3.59h1.22v-1.2Zm-8.32.05a4.62929,4.62929,0,0,0-.65-.05,4.87113,4.87113,0,0,0-.65.05,2.8256,2.8256,0,0,0-.55-1.25h2.4a3.07086,3.07086,0,0,0-.55005,1.25Z" fill="#fff"/></svg>