<svg id="Layer_1" data-name="Layer 1" xmlns="http://www.w3.org/2000/svg" width="0.42in" height="0.56in" viewBox="0 0 30.24 40.32"><path d="M15.16429.86a14.26022,14.26022,0,0,0-4.1,27.9l3,5.2a1.43581,1.43581,0,0,0,1.8.5,1.205,1.205,0,0,0,.5-.5l2.9-5.1a14.29212,14.29212,0,0,0,9.8-17.7,14.58273,14.58273,0,0,0-13.9-10.3Z" fill="#7b9eb0"/><circle cx="15.29772" cy="38.06" r="1.4" fill="#7b9eb0"/><path d="M17.5408,19.85073c-.1816,0-.36336.005-.54477-.00084a2.50445,2.50445,0,0,1-2.00459-1.077c-.24467-.32879-.44639-.68955-.66685-1.03629-.08947-.14072-.16605-.29118-.26785-.42216a.813.813,0,0,0-.81854-.29971.52949.52949,0,0,0-.43412.4154,1.76543,1.76543,0,0,0,.00621.847,2.67165,2.67165,0,0,0,.31623.79065,1.85147,1.85147,0,0,1,.119.254.25587.25587,0,0,1-.12234.3642,2.44239,2.44239,0,0,1-.602.22416c-.39485.07747-.797.11752-1.19551.17687a2.29049,2.29049,0,0,0-.244.06467.68136.68136,0,0,0,.32954.32,5.25664,5.25664,0,0,0,1.92306.52c.45517.02954.91206.03375,1.36827.04568a1.80681,1.80681,0,0,1,.95718.24935,1.085,1.085,0,0,1,.18238,1.73357,2.32815,2.32815,0,0,1-1.30707.63869,4.98019,4.98019,0,0,1-2.20279-.12178,6.75857,6.75857,0,0,1-2.41181-1.09126,3.25447,3.25447,0,0,1-1.30278-2.18933,4.5988,4.5988,0,0,1,.30511-2.28921,20.66446,20.66446,0,0,1,1.10872-2.39354c.22811-.44944.48425-.88653.75477-1.312a3.06964,3.06964,0,0,1,.93074-.92363,2.32369,2.32369,0,0,1,1.26886-.38885c1.56917-.00917,3.13852-.013,4.70761.00121a2.30443,2.30443,0,0,1,1.78094.86446,5.52559,5.52559,0,0,1,.58458.81164q.62574,1.08465,1.2086,2.19383a3.49745,3.49745,0,0,1,.38737,1.36667,2.85938,2.85938,0,0,1-.481,1.87009,5.73457,5.73457,0,0,1-1.9731,1.87955,2.70171,2.70171,0,0,1-1.61617.32749,1.27649,1.27649,0,0,1-.62109-.23734.982.982,0,0,1-.28648-1.1789,1.77682,1.77682,0,0,1,.47762-.59588c.13472-.12319.26768-.24833.40142-.3726Zm-.26893-4.29885a1.95548,1.95548,0,1,0,1.96128,1.94092A1.95572,1.95572,0,0,0,17.27187,15.55188Z" fill="#fff"/><path d="M12.28942,9.3384A2.835,2.835,0,1,1,15.12457,12.172,2.8376,2.8376,0,0,1,12.28942,9.3384Z" fill="#fff"/></svg>