<svg id="Layer_1" data-name="Layer 1" xmlns="http://www.w3.org/2000/svg" width="0.42in" height="0.56in" viewBox="0 0 30.24 40.32"><path d="M15.16429.86a14.26022,14.26022,0,0,0-4.1,27.9l3,5.2a1.43581,1.43581,0,0,0,1.8.5,1.205,1.205,0,0,0,.5-.5l2.9-5.1a14.29212,14.29212,0,0,0,9.8-17.7,14.58273,14.58273,0,0,0-13.9-10.3Z" fill="#28cb1c"/><circle cx="15.29772" cy="38.06" r="1.4" fill="#28cb1c"/><path d="M8.29071,21.27507a2.00761,2.00761,0,0,0,1.47144.60974H20.17307a2.08016,2.08016,0,0,0,2.07916-2.08117H7.681A2.00757,2.00757,0,0,0,8.29071,21.27507Z" fill="#fff"/><path d="M11.58532,18.76254h5.72651A1.83425,1.83425,0,0,0,19.133,16.94038v-.259h.52609a3.12428,3.12428,0,0,0,3.12429-3.12428v0a3.12428,3.12428,0,0,0-3.12429-3.12428H10.28622a.52709.52709,0,0,0-.519.52v5.98553a1.83929,1.83929,0,0,0,1.82014,1.82417Zm7.54666-6.7676h.52a1.56215,1.56215,0,0,1,0,3.12429h-.52Z" fill="#fff"/></svg>