<svg id="Layer_1" data-name="Layer 1" xmlns="http://www.w3.org/2000/svg" width="0.42in" height="0.56in" viewBox="0 0 30.24 40.32"><path d="M15.11806.87315A14.28871,14.28871,0,0,0,10.883,28.80783l2.99377,5.18532a1.30084,1.30084,0,0,0,2.25313,0l2.9487-5.1073A14.28627,14.28627,0,0,0,15.11806.87315Z" fill="#fa808e"/><circle cx="15.11806" cy="38.01836" r="1.42866" fill="#fa808e"/><path d="M21.19394,15.73205q0,2.59355-.00027,5.18708a2.55108,2.55108,0,0,1-.00767.3159.59148.59148,0,0,1-.619.54969c-.29509.00586-.5904.00536-.88556.00259a.58972.58972,0,0,1-.63086-.53534,1.50179,1.50179,0,0,1-.012-.25233q.00147-5.21865.00646-10.43729a2.14414,2.14414,0,0,1,.05751-.49913.41441.41441,0,0,1,.46562-.37849c.35822-.008.71685.00325,1.07515-.00289a.46263.46263,0,0,1,.489.36533,1.68626,1.68626,0,0,1,.05854.46617q.00582,2.60934.00244,5.21871Z" fill="#fff"/><path d="M11.29184,15.67109q0,2.48154-.00035,4.96309a5.17442,5.17442,0,0,1-.01162.62948.54183.54183,0,0,1-.59566.52342c-.29494.00563-.59023.00662-.88509-.00108a.5807.5807,0,0,1-.62617-.60568c-.00648-.11561-.00444-.23175-.00441-.34765q.00148-4.8999.0022-9.7998c0-.17858-.03384-.35821-.02235-.53543a2.21808,2.21808,0,0,1,.09709-.519.39151.39151,0,0,1,.38107-.28472c.40957-.00837.81968-.01177,1.22905.00025a.41208.41208,0,0,1,.39336.35283,1.17388,1.17388,0,0,1,.02365.28206q.00191,2.67113.00094,5.34225Z" fill="#fff"/><path d="M11.74579,16.60259c0-.17362.00181-.28736-.00034-.401-.00619-.32592-.01271-.65183-.02148-.97768-.00945-.35124.03669-.40278.39132-.40311q1.95782-.00183,3.91563-.00045,1.08944,0,2.17886.001c.11225.00026.22449.01173.35959.0193v1.71164c-.08814.10981-.23369.08351-.36426.08484-.59993.00613-1.19992.00685-1.79989.00692q-2.11569.00021-4.23139-.00352C12.04175,16.64021,11.90973,16.61772,11.74579,16.60259Z" fill="#fff"/><path d="M8.71986,11.246c.005,2.948.01038,5.85194.01225,8.75584a.96118.96118,0,0,1-.0684.23336,7.59243,7.59243,0,0,1-.78616-.00574.61393.61393,0,0,1-.5249-.5522,1.82939,1.82939,0,0,1-.00535-.221q-.00037-3.68223-.00015-7.36444c0-.09482-.00327-.19.00389-.28436a.583.583,0,0,1,.58532-.58479C8.18446,11.21321,8.43381,11.23624,8.71986,11.246Z" fill="#fff"/><path d="M21.63914,20.19892c-.00675-.12455-.01617-.21761-.0162-.31067q-.00113-3.91774-.00108-7.8355c-.00005-.16839-.0057-.33689-.0132-.50514-.01182-.26551.021-.30823.29185-.3316.14669-.01266.29451-.018.44177-.0171a.58724.58724,0,0,1,.62507.46775,1.3787,1.3787,0,0,1,.0477.37319q.00525,3.68081.0071,7.36161a.874.874,0,0,1-.27048.68084.5.5,0,0,1-.23838.14429A2.07283,2.07283,0,0,1,21.63914,20.19892Z" fill="#fff"/><path d="M6.89725,15.71556c0,.21005.00823.42052-.00239.63-.01.197-.10024.28569-.26272.29-.16057.00423-.2568-.08716-.25894-.2838-.00445-.40947.00451-.81909.0096-1.22863a.40256.40256,0,0,1,.0198-.12373.2543.2543,0,0,1,.29515-.17891.21.21,0,0,1,.20437.23344c.00313.2205.00085.44107.00085.66162Z" fill="#fff"/><path d="M23.86276,15.733c0,.21.0065.42017-.002.62979-.00723.17846-.0805.25-.21947.24-.1517-.01086-.18651-.11582-.18682-.24195-.00107-.43043-.00485-.861.00292-1.29125.003-.167.09816-.25986.22286-.2442.14215.01785.18791.11589.18774.24618q-.00043.33071-.00008.6614Z" fill="#fff"/></svg>