<svg id="Layer_1" data-name="Layer 1" xmlns="http://www.w3.org/2000/svg" width="0.42in" height="0.56in" viewBox="0 0 30.24 40.32"><path d="M15.11808.87306A14.28871,14.28871,0,0,0,10.883,28.80774l2.99373,5.18532a1.30083,1.30083,0,0,0,2.25312,0l2.94871-5.1073A14.28627,14.28627,0,0,0,15.11808.87306Z" fill="#a071ff"/><circle cx="15.11809" cy="38.01828" r="1.42866" fill="#a071ff"/><path d="M15.90258,20.4H11.68691a1.35606,1.35606,0,0,1-1.43341-.96782,6.28027,6.28027,0,0,1-.257-.99527q-.54984-2.7385-1.08627-5.4797-.25563-1.29846-.50109-2.59891c-.01569-.08243-.04356-.11658-.13512-.11357-.22889.00754-.45826.00509-.68734.001a1.02213,1.02213,0,0,1,.00456-2.04235Q8.309,8.197,9.02677,8.20513A2.249,2.249,0,0,1,9.42764,8.25a1.1115,1.1115,0,0,1,.81721.629,3.97783,3.97783,0,0,1,.30841,1.06373q.06222.33256.11386.66708c.0093.05953.03372.08207.09194.07574A.84831.84831,0,0,1,10.85,10.685q5.353,0,10.706.00228a2.73345,2.73345,0,0,1,.5812.055.80414.80414,0,0,1,.63215.94844c-.06.313-.15857.6189-.24711.9259-.28643.9932-.57125,1.98691-.86744,2.97721a8.57631,8.57631,0,0,1-.35079.96761,1.80888,1.80888,0,0,1-.32567.481.82792.82792,0,0,1-.637.258q-3.85173-.00123-7.70346-.00033a.72279.72279,0,0,0-.09848,1.44151c.0637.00513.1279.00562.19187.00562q3.786.00041,7.572-.00058a.80019.80019,0,0,1,.773.45379.8183.8183,0,0,1-.70534,1.19571c-.5153.01224-1.03109.00373-1.54667.00386Q17.36341,20.4003,15.90258,20.4Zm-5.01755-7.646c.00911.045.01459.078.0225.11031.18467.75542.371,1.51045.55239,2.26665.01847.077.0465.10178.12585.10172q3.937-.00306,7.874-.0001a.10527.10527,0,0,0,.1207-.08687q.3695-1.149.74439-2.29633c.00966-.02975.01566-.06069.02445-.09538Z" fill="#fff"/><path d="M12.20121,24.0386a1.489,1.489,0,1,1,1.4473-1.49489A1.46981,1.46981,0,0,1,12.20121,24.0386Z" fill="#fff"/><path d="M17.27892,22.54943a1.45174,1.45174,0,1,1,1.45321,1.4892A1.47071,1.47071,0,0,1,17.27892,22.54943Z" fill="#fff"/></svg>