<svg id="Layer_1" data-name="Layer 1" xmlns="http://www.w3.org/2000/svg" width="0.42in" height="0.56in" viewBox="0 0 30.24 40.32"><path d="M15.11808.87306A14.28871,14.28871,0,0,0,10.883,28.80774l2.99373,5.18532a1.30083,1.30083,0,0,0,2.25312,0l2.94871-5.1073A14.28627,14.28627,0,0,0,15.11808.87306Z" fill="#cc1261"/><circle cx="15.11809" cy="38.01828" r="1.42866" fill="#cc1261"/><path d="M14.94723,21.53609l6.9673-6.577c.3937.2837.39626.56167.18826.85206a2.97038,2.97038,0,0,1-.38163.38594q-3.03221,2.90211-6.06593,5.80266c-.57115.54567-.585.55422-1.285.23161-1.66988-.76969-3.33207-1.556-5.00312-2.32317A1.73214,1.73214,0,0,1,8.20358,18.322c-.04728-1.0832-.16062-2.16374-.19843-3.24707A2.40289,2.40289,0,0,1,9.009,13.00351c1.72582-1.36759,3.42009-2.776,5.09843-4.20151a1.531,1.531,0,0,1,1.78908-.25854c1.57962.71827,3.16427,1.42566,4.73961,2.15314.66089.3052.71889.60732.18355,1.09113-1.9223,1.73725-3.86593,3.451-5.78955,5.1868a.85294.85294,0,0,1-1.06537.08623c-1.4048-.66362-2.81447-1.317-4.224-1.97045-.183-.08484-.37608-.148-.56742-.22237a1.61519,1.61519,0,0,0,.92981,2.268c1.52143.71648,3.03885,1.44143,4.66489,2.21356l6.99432-6.592c.37535.36207.39185.65237.1.94682-.27354.276-.5533.54593-.83425.81445q-2.75325,2.63135-5.50862,5.2605c-.61913.5906-.642.596-1.41985.23317-1.33761-.624-2.672-1.2548-4.00909-1.87986-.22956-.10731-.46584-.20026-.74-.31735-.12724.55848-.08353,1.00806.41842,1.25183C11.46537,19.8909,13.17279,20.69226,14.94723,21.53609Z" fill="#fff"/></svg>