<?xml version="1.0" encoding="utf-8"?>
<!-- Generator: Adobe Illustrator 26.0.0, SVG Export Plug-In . SVG Version: 6.00 Build 0)  -->
<svg version="1.1" id="Layer_1" xmlns="http://www.w3.org/2000/svg" xmlns:xlink="http://www.w3.org/1999/xlink" x="0px" y="0px"
	 width="30.2px" height="40.3px" viewBox="0 0 30.2 40.3" style="enable-background:new 0 0 30.2 40.3;" xml:space="preserve">
<style type="text/css">
	.st0{fill:#7B9EB0;}
	.st1{fill:#FFFFFF;}
</style>
<g>
	<path class="st0" d="M15.1,0.9C7.2,0.9,0.8,7.3,0.8,15.2c0,6.3,4.1,11.8,10.1,13.6l3,5.2c0.4,0.6,1.2,0.8,1.8,0.5
		c0.2-0.1,0.4-0.3,0.5-0.5l2.9-5.1c7.6-2.2,12-10.1,9.8-17.7C27.1,5.1,21.5,0.9,15.1,0.9L15.1,0.9z"/>
	<circle class="st0" cx="15.1" cy="38" r="1.4"/>
	<path class="st1" d="M20.2,20.2c0-0.1,0-0.1-0.1-0.2l-4.8-4.8c0.8-1.8-0.1-4-1.9-4.8s-4,0.1-4.8,1.9c-0.8,1.8,0.1,4,1.9,4.8
		c0.9,0.4,1.9,0.4,2.8,0l1.6,1.6c0.1,0.1,0.2,0.1,0.2,0.1l0.9,0l0,0.9c0,0.2,0.1,0.3,0.3,0.3c0,0,0,0,0,0l0.9,0l0,0.9
		c0,0.1,0,0.2,0.1,0.2c0.1,0.1,0.2,0.1,0.2,0.1l0.9,0l0,0.9c0,0.2,0.1,0.3,0.3,0.3c0,0,0,0,0,0h0l1.3-0.1c0.2,0,0.3-0.2,0.3-0.4
		L20.2,20.2z M11.5,13.4c-0.4,0.4-1.1,0.4-1.5,0c-0.4-0.4-0.4-1.1,0-1.5c0.4-0.4,1.1-0.4,1.5,0c0,0,0,0,0,0
		C11.9,12.3,12,13,11.5,13.4C11.5,13.4,11.5,13.4,11.5,13.4z M19.1,20.4c0,0-0.1,0.1-0.2,0.1c-0.1,0-0.1,0-0.2-0.1l-4.1-4.1
		c0.1-0.1,0.2-0.3,0.3-0.4l4.1,4.1C19.2,20.1,19.2,20.3,19.1,20.4C19.1,20.4,19.1,20.4,19.1,20.4z"/>
</g>
</svg>
