<svg id="Layer_1" data-name="Layer 1" xmlns="http://www.w3.org/2000/svg" width="0.42in" height="0.56in" viewBox="0 0 30.24 40.32"><path d="M15.11808.87306A14.28871,14.28871,0,0,0,10.883,28.80774l2.99373,5.18532a1.30083,1.30083,0,0,0,2.25312,0l2.94871-5.1073A14.28627,14.28627,0,0,0,15.11808.87306Z" fill="#7b9eb0"/><circle cx="15.11809" cy="38.01828" r="1.42866" fill="#7b9eb0"/><path d="M19.71106,6.73589H10.52783A1.31347,1.31347,0,0,0,9.21657,8.04714V21.16748a1.31348,1.31348,0,0,0,1.31126,1.31237h9.18323a1.31349,1.31349,0,0,0,1.31237-1.31237V8.04714A1.31236,1.31236,0,0,0,19.71106,6.73589ZM13.15367,8.04714a1.31293,1.31293,0,1,1-.00111,0Zm2.627,8.20174a.33309.33309,0,0,1-.33308.32754h-.65508v4.26463a.32531.32531,0,0,1-.32411.32652l-.009-.00009H11.8413a.3253.3253,0,0,1-.32642-.3242V16.57642h-.65841a.32532.32532,0,0,1-.32643-.3242v-3.855a.97816.97816,0,0,1,.5818-.89711,5.36363,5.36363,0,0,1,2.04183-.49963,5.36485,5.36485,0,0,1,2.04183.49741.97815.97815,0,0,1,.58179.89822v3.85272Zm3.8394-.42413-1.3157,1.31237a.32753.32753,0,0,1-.4632.00089l-.0009-.00089-1.31237-1.31237a.33309.33309,0,0,1,.232-.55515h2.62363a.3242.3242,0,0,1,.30311.20319.33309.33309,0,0,1-.07106.352Zm.07106-2.07514a.33311.33311,0,0,1-.30311.20319H16.7599a.33309.33309,0,0,1-.232-.55515l1.31237-1.31237a.33308.33308,0,0,1,.4641,0l1.31126,1.31237a.33311.33311,0,0,1,.07106.352Z" fill="#fff"/></svg>