<?xml version="1.0" encoding="utf-8"?>
<!-- Generator: Adobe Illustrator 26.0.0, SVG Export Plug-In . SVG Version: 6.00 Build 0)  -->
<svg version="1.1" id="Layer_1" xmlns="http://www.w3.org/2000/svg" xmlns:xlink="http://www.w3.org/1999/xlink" x="0px" y="0px"
	 width="30.2px" height="40.3px" viewBox="0 0 30.2 40.3" style="enable-background:new 0 0 30.2 40.3;" xml:space="preserve">
<style type="text/css">
	.st0{fill:#7B9EB0;}
	.st1{fill:#FFFFFF;}
</style>
<g>
	<path class="st0" d="M15.1,0.9C7.2,0.9,0.8,7.3,0.8,15.2c0,6.3,4.1,11.8,10.1,13.6l3,5.2c0.4,0.6,1.2,0.8,1.8,0.5
		c0.2-0.1,0.4-0.3,0.5-0.5l2.9-5.1c7.6-2.2,12-10.1,9.8-17.7C27.1,5.1,21.5,0.9,15.1,0.9L15.1,0.9z"/>
	<circle class="st0" cx="15.1" cy="38" r="1.4"/>
	<path class="st1" d="M9.9,13.6c0.1,0.2,0.3,0.2,0.4,0.2c0.2-0.1,0.2-0.3,0.2-0.4l0,0l-0.7-1.6c-0.1-0.2,0-0.3,0.2-0.4l2.8-1.2
		c0.1-0.1,0.2-0.1,0.2,0c0.1,0.1,0.2,0.1,0.2,0.2l1.5,3.3c0.1,0.1,0.2,0.2,0.3,0.2c0.1,0,0.1,0,0.1-0.1c0.2-0.1,0.2-0.3,0.2-0.4
		L13.7,10c-0.1-0.2-0.3-0.4-0.5-0.5c-0.2-0.1-0.5-0.1-0.7,0l-2.8,1.4c-0.5,0.2-0.7,0.8-0.5,1.2L9.9,13.6z"/>
	<path class="st1" d="M16.4,13.6c0.1,0.1,0.2,0.2,0.3,0.2h5c0.1,0,0.3-0.1,0.3-0.2l0.5-1.8c0-0.1,0-0.3-0.2-0.4
		c-0.1-0.1-0.3,0-0.4,0.1c0,0,0,0,0,0c-0.4,0.3-0.9,0.4-1.3,0.4c-0.7,0-1.2-0.3-1.2-0.6V9.5c0-0.7-0.5-1.3-1.2-1.3
		c-0.7,0-1.3,0.5-1.3,1.2c0,0,0,0,0,0.1v0.3c0,0.2,0.2,0.3,0.3,0.3c0.2,0,0.3-0.1,0.3-0.3V9.5c0-0.3,0.3-0.6,0.6-0.6
		c0.3,0,0.6,0.3,0.6,0.6v1.8c0,0.3-0.5,0.6-1.2,0.6c-0.5,0.1-0.9-0.1-1.2-0.4c-0.1-0.1-0.2-0.2-0.4-0.1c-0.1,0.1-0.2,0.2-0.2,0.4
		c0,0,0,0,0,0L16.4,13.6z"/>
	<path class="st1" d="M22.3,14.4H8.8c-0.2,0-0.3,0.1-0.3,0.3v5.5c0,1.5,1.2,2.7,2.7,2.7h8.5c1.5,0,2.7-1.2,2.7-2.7v-5.5
		C22.6,14.6,22.5,14.5,22.3,14.4C22.4,14.4,22.3,14.4,22.3,14.4z M15.7,21.1c-0.1,0.1-0.1,0.1-0.2,0.1c-0.1,0-0.2,0-0.2-0.1
		c-0.1-0.1-0.1-0.1-0.1-0.2c0-0.1,0-0.2,0.1-0.2c0.1-0.1,0.3-0.1,0.4,0c0.1,0.1,0.1,0.1,0.1,0.2C15.9,21,15.8,21.1,15.7,21.1
		L15.7,21.1z M15.9,19.1v0.5c0,0.2-0.2,0.3-0.3,0.3c-0.2,0-0.3-0.1-0.3-0.3v-0.8c0-0.1,0.1-0.3,0.2-0.3h0.1c0.4-0.1,0.9-0.3,0.9-0.9
		c0-0.5-0.4-0.9-0.9-0.9c-0.5,0-0.9,0.3-0.9,0.8c0,0,0,0,0,0c0,0.2-0.1,0.3-0.3,0.3c-0.2,0-0.3-0.1-0.3-0.3c0,0,0-0.1,0-0.1
		c0.1-0.8,0.7-1.4,1.5-1.3c0.8,0,1.5,0.6,1.5,1.4c0,0,0,0,0,0C17.1,18.4,16.7,18.9,15.9,19.1L15.9,19.1z"/>
	<path class="st1" d="M10.5,11.6c-0.2,0-0.3,0.1-0.3,0.3c0,0.2,0.1,0.3,0.3,0.3c0.2,0,0.3-0.1,0.3-0.3
		C10.8,11.7,10.7,11.6,10.5,11.6z"/>
</g>
</svg>
