<svg id="Layer_1" data-name="Layer 1" xmlns="http://www.w3.org/2000/svg" width="0.42in" height="0.56in" viewBox="0 0 30.24 40.32"><path d="M15.11808.87306A14.28871,14.28871,0,0,0,10.883,28.80774l2.99373,5.18532a1.30083,1.30083,0,0,0,2.25312,0l2.94871-5.1073A14.28627,14.28627,0,0,0,15.11808.87306Z" fill="#4ddbc4"/><circle cx="15.11809" cy="38.01828" r="1.42866" fill="#4ddbc4"/><path d="M7.2152,11.87048A9.474,9.474,0,0,1,7.63353,10.65a1.55522,1.55522,0,0,1,2.72372-.42945,3.28873,3.28873,0,0,1,.97644,2.5323,2.16744,2.16744,0,0,1-1.39175,1.96826A2.03879,2.03879,0,0,1,7.7895,13.92a7.23061,7.23061,0,0,1-.5743-1.1017Z" fill="#fff"/><path d="M14.17621,22.694a6.54625,6.54625,0,0,1-4.38852-1.52422A3.37825,3.37825,0,0,1,9.73453,15.636a6.31918,6.31918,0,0,1,4.107-1.6002A3.93734,3.93734,0,0,1,17.3,15.90119a5.85217,5.85217,0,0,1,1.04574,3.61329,3.08328,3.08328,0,0,1-2.7765,3.00542C15.04078,22.61707,14.50139,22.65457,14.17621,22.694Z" fill="#fff"/><path d="M15.83139,10.84619A2.39252,2.39252,0,0,1,14.6053,12.987a1.6126,1.6126,0,0,1-1.8201-.06739,2.45114,2.45114,0,0,1-1.005-2.58881,3.57308,3.57308,0,0,1,1.04789-1.81656,1.50337,1.50337,0,0,1,2.43434.26087A3.48,3.48,0,0,1,15.83139,10.84619Z" fill="#fff"/><path d="M20.50083,12.11653a3.12738,3.12738,0,0,1-1.3936,2.582A1.86631,1.86631,0,0,1,16.14678,13.242a3.06231,3.06231,0,0,1,2.85829-3.142,1.56421,1.56421,0,0,1,1.47268,1.51974C20.49274,11.75,20.49055,11.88219,20.50083,12.11653Z" fill="#fff"/><path d="M21.3683,14.7852a1.45089,1.45089,0,0,1,1.46723,2.19609,2.84832,2.84832,0,0,1-2.05476,1.79653,1.7067,1.7067,0,0,1-2.07039-2.23694A2.5581,2.5581,0,0,1,21.3683,14.7852Z" fill="#fff"/></svg>