<?xml version="1.0" encoding="utf-8"?>
<!-- Generator: Adobe Illustrator 26.0.0, SVG Export Plug-In . SVG Version: 6.00 Build 0)  -->
<svg version="1.1" id="Layer_1" xmlns="http://www.w3.org/2000/svg" xmlns:xlink="http://www.w3.org/1999/xlink" x="0px" y="0px"
	 width="30.2px" height="40.3px" viewBox="0 0 30.2 40.3" style="enable-background:new 0 0 30.2 40.3;" xml:space="preserve">
<style type="text/css">
	.st0{fill:#FF9364;}
	.st1{fill:#FFFFFF;}
</style>
<g>
	<path class="st0" d="M15.1,0.9C7.2,0.9,0.8,7.3,0.8,15.2c0,6.3,4.1,11.8,10.1,13.6l3,5.2c0.4,0.6,1.2,0.8,1.8,0.5
		c0.2-0.1,0.4-0.3,0.5-0.5l2.9-5.1c7.6-2.2,12-10.1,9.8-17.7C27.1,5.1,21.5,0.9,15.1,0.9L15.1,0.9z"/>
	<circle class="st0" cx="15.1" cy="38" r="1.4"/>
	<polygon class="st1" points="9.8,17.1 9.8,11.3 8.2,11.3 8.2,21.3 9.8,21.3 9.8,19.6 20.8,19.6 20.8,21.3 22.5,21.3 22.5,19.6 
		22.5,17.1 	"/>
	<path class="st1" d="M11.9,13.8c-0.7,0-1.3,0.6-1.3,1.3v1.3h2.5V15C13.2,14.3,12.6,13.8,11.9,13.8C11.9,13.8,11.9,13.8,11.9,13.8z"
		/>
	<path class="st1" d="M21.2,13.8h-5.9c-0.7,0-1.3,0.6-1.3,1.3c0,0,0,0,0,0v1.3h8.4V15C22.4,14.3,21.9,13.8,21.2,13.8z"/>
</g>
</svg>
