<svg id="Layer_1" data-name="Layer 1" xmlns="http://www.w3.org/2000/svg" width="0.42in" height="0.56in" viewBox="0 0 30.24 40.32"><path d="M15.037.985A14.28887,14.28887,0,0,0,10.802,28.9197l2.991,5.185a1.3,1.3,0,0,0,2.253,0l2.947-5.107A14.28587,14.28587,0,0,0,15.033.985Z" fill="#7b9eb0"/><circle cx="15.03701" cy="38.13062" r="1.42899" fill="#7b9eb0"/><path d="M22.11794,19.06179l-1.9-2.276c-.189-.189-.569-.189-.569,0l-1.9,2.276c-.189.189,0,.569.38.569h.764v1.9a.409.409,0,0,0,.379.38h1.521a.409.409,0,0,0,.38-.38v-1.9h.759a.367.367,0,0,0,.186-.569Z" fill="#fff"/><path d="M13.582,10.33687a1.5,1.5,0,0,0-1.518,1.48181q-.00018.01608,0,.03217a1.659,1.659,0,0,0,1.518,1.706,1.5,1.5,0,0,0,1.517-1.48278q.0002-.01761,0-.03521A1.822,1.822,0,0,0,13.582,10.33687Z" fill="#fff"/><path d="M20.793,12.80184H17.375c-.189,0-.189,0-.38.19l-4.551,5.88a.66.66,0,0,1-.38.189h-1.9a1.429,1.429,0,0,0-1.328.947,1.137,1.137,0,0,0,1.139,1.328h3.6c.189,0,.189,0,.38-.19l4.553-5.87795a.66.66,0,0,1,.38-.189h2.085a1.224,1.224,0,0,0,1.138-1.138h0C22.11794,13.18184,21.738,12.80184,20.793,12.80184Z" fill="#fff"/><path d="M13.582,13.56184a1.5,1.5,0,0,0-1.518,1.48176q-.00021.01812,0,.03622v3.035h0l3.035-3.794A2.33694,2.33694,0,0,0,13.582,13.56184Z" fill="#fff"/></svg>