<svg id="Layer_1" data-name="Layer 1" xmlns="http://www.w3.org/2000/svg" width="19.44" height="19.44" viewBox="0 0 19.44 19.44"><circle cx="9.72" cy="9.72" r="8.5" fill="#e150ff" stroke="#fff" stroke-miterlimit="10"/><path d="M10.75076,8.6499,9.7436,7.26507a.53519.53519,0,0,0-.31473-.18885H8.7994c-.063,0-.1259,0-.18884.1259a1.41,1.41,0,0,1-1.0701.44063,1.22765,1.22765,0,0,1-1.0701-.44063c-.063-.06295-.063-.06295-.18884-.06295H5.65205a.34618.34618,0,0,0-.31474.18884L4.26721,8.6499a.281.281,0,0,0,0,.31474L4.89668,9.72c.06295.06295.06295.06295.1259.06295S5.08552,9.72,5.14847,9.72l.50358-.56652a.06165.06165,0,0,1,.06294-.063v3.08441a.16692.16692,0,0,0,.18884.18884H9.24a.16692.16692,0,0,0,.18884-.18884V9.09053l.063.063L9.99539,9.72c.06295.06295.06295.06295.1259.06295h0c.063,0,.063-.06295.12589-.06295l.62947-.75536C10.81371,8.83874,10.81371,8.71285,10.75076,8.6499Z" fill="#fff"/><polygon points="15.22 13.088 13.772 9.248 11.884 9.248 10.436 13.088 11.317 13.214 11.191 13.465 14.528 13.465 14.402 13.214 15.22 13.088" fill="#fff"/><path d="M13.52043,5.97465,12.891,7.1077h0l-.62947-1.13305-1.196.31474.44063,1.196.31474.18884.18884,1.13305h1.82546L14.024,7.67422l.31473-.18884.44063-1.196Z" fill="#fff"/></svg>