<svg id="Layer_1" data-name="Layer 1" xmlns="http://www.w3.org/2000/svg" width="19.44" height="19.44" viewBox="0 0 19.44 19.44"><circle cx="9.72" cy="9.72" r="8.5" fill="#ff4da5" stroke="#fff" stroke-miterlimit="10"/><path d="M13.29016,13.942c-.28019.09232-.52316.17355-.76695.25227-.14636.04726-.317.038-.39336.22575-.01995.049-.12686.07683-.19809.08856a5.32614,5.32614,0,0,1-1.74689.18352,9.72827,9.72827,0,0,0-1.38869-.00987,2.939,2.939,0,0,1-1.30976-.2236c-.42547-.23532-.90427-.31812-1.33658-.57633.06644-.18928.12732-.37027.19326-.5494A25.38677,25.38677,0,0,1,8.25963,8.90676,1.99049,1.99049,0,0,0,8.50835,7.08a1.019,1.019,0,0,1-.03575-.57049A1.96878,1.96878,0,0,0,8.37134,5.4383c-.04559-.16146-.07938-.32625-.12469-.51527l.72754-.203L8.89136,5.829l.84368.40438.81193-.38648-.08325-1.11291.75561.20289c-.094.33183-.18679.61575-.2517.9059a1.07519,1.07519,0,0,0-.01738.46643,1.78958,1.78958,0,0,1-.01768.85816,2.957,2.957,0,0,0-.12074.66193,1.24592,1.24592,0,0,0,.12524.6168,25.79827,25.79827,0,0,1,1.96466,4.37121c.10594.29265.2213.58188.32856.87406A2.42406,2.42406,0,0,1,13.29016,13.942Z" fill="#fff"/></svg>