<svg id="Layer_1" data-name="Layer 1" xmlns="http://www.w3.org/2000/svg" width="19.44" height="19.44" viewBox="0 0 19.44 19.44"><circle cx="9.72" cy="9.72" r="8.5" fill="#835227" stroke="#fff" stroke-miterlimit="10"/><path d="M13.94779,7.91413a5.71267,5.71267,0,0,0-.49633-1.04526,6.89822,6.89822,0,0,0-.70073-.94013c-.18686-.20436-.37957-.39707-.58393-.58393a2.12242,2.12242,0,0,0-1.454-.61312c-.60728-.01754-1.21459-.00584-1.816-.01169A2.31174,2.31174,0,0,0,7.256,5.3565a8.09817,8.09817,0,0,0-.84087.8934,5.7943,5.7943,0,0,0-.9635,1.781.18077.18077,0,0,0,.0876.24527c.3445.22771.68319.45545,1.02769.6832A.17624.17624,0,0,0,6.84134,8.901c.19271-.27447.37957-.5489.5664-.82921.02338-.02919.04672-.06423.0701-.09342a.08632.08632,0,0,1,.00581.05254,11.54985,11.54985,0,0,0-.25693,2.41164c-.00581.57812,0,1.15621.00585,1.72845,0,.49052-.00585.97516-.00585,1.45984a1.05433,1.05433,0,0,0,1.0803,1.0861,1.07059,1.07059,0,0,0,1.05107-1.092c-.01169-.5489,0-1.09779,0-1.64669a1.1654,1.1654,0,0,1,.01169-.20437A.87789.87789,0,0,1,9.72012,11.19a.91259.91259,0,0,1,.362.72992v1.64085a1.20522,1.20522,0,0,0,.01169.25108,1.0644,1.0644,0,0,0,1.43064.84087,1.04968,1.04968,0,0,0,.68319-.89344c.01169-.29777.00585-.59558.00585-.89339V10.39a11.43068,11.43068,0,0,0-.13433-1.67c-.035-.24528-.08757-.49052-.12845-.73576a.0181.0181,0,0,1,.01169-.00585.89521.89521,0,0,1,.06422.09342c.19271.28031.38538.56059.57225.835a.17393.17393,0,0,0,.26862.05257c.08176-.04673.15767-.09926.23355-.15183.27447-.181.54309-.362.81167-.53721a.18059.18059,0,0,0,.08761-.19855Zm-4.1751.99266c-.02922.02922-.05841.04672-.09929.00584a7.22094,7.22094,0,0,1-.88171-.91093C8.78,7.99,8.77416,7.97251,8.76247,7.96082a.3815.3815,0,0,1-.04669-.49048.51636.51636,0,0,1,.49633-.25109.54.54,0,0,1,.33869.16933c.13429.15182.2102.15182.3445,0a.51648.51648,0,0,1,.56643-.14014.56532.56532,0,0,1,.3445.46714.39728.39728,0,0,1-.05838.12264c-.15767.20436-.31531.40876-.48467.59558C10.11135,8.60317,9.93618,8.74915,9.77269,8.90679Zm.654-3.8306a.70667.70667,0,1,1-1.41314,0ZM7.88657,14.24394a.67706.67706,0,0,1-.29781-.45545.09444.09444,0,0,1,.03507-.0876,1.15485,1.15485,0,0,1,.62477-.23359,1.18646,1.18646,0,0,1,.71826.24528c.02335.01165.02919.07006.02335.09925A.71684.71684,0,0,1,7.88657,14.24394Zm3.29338.12848a.729.729,0,0,1-.72991-.5489.10762.10762,0,0,1,.05838-.14013,1.28242,1.28242,0,0,1,.654-.21609,1.11866,1.11866,0,0,1,.654.23943.09443.09443,0,0,1,.035.0876A.73167.73167,0,0,1,11.18,14.37242Z" fill="#fff"/></svg>