<svg id="Layer_1" data-name="Layer 1" xmlns="http://www.w3.org/2000/svg" width="19.44" height="19.44" viewBox="0 0 19.44 19.44"><circle cx="9.72" cy="9.72" r="8.5" fill="#835227" stroke="#fff" stroke-miterlimit="10"/><path d="M9.94889,8.23463c-.03672.16991-.06808.32265-.10456.47416a.0812.0812,0,0,1-.05554.04514c-.33194.06089-.66269.13307-.99723.17355a1.32708,1.32708,0,0,1-.85621-.162.6982.6982,0,0,1-.24508-.96717c.1057-.1608.24017-.30248.34914-.46137a1.30013,1.30013,0,0,0,.15433-.311.21421.21421,0,0,0-.10595-.25518A.77321.77321,0,0,0,7.505,6.66743a3.06775,3.06775,0,0,0-1.41958.66115A3.52123,3.52123,0,0,0,4.7395,9.6029a3.57574,3.57574,0,0,0,.686,2.7531,2.9599,2.9599,0,0,0,1.88135,1.222,3.49175,3.49175,0,0,0,2.42236-.439c.042-.02366.08325-.04884.12427-.07422.04084-.02527.081-.0517.136-.087.01168.1067.0223.20292.03263.29918a.17215.17215,0,0,0,.00187.03607c.05888.17085-.04057.23906-.176.30948a4.083,4.083,0,0,1-2.20742.48073A3.40678,3.40678,0,0,1,5.285,12.9384a4.10363,4.10363,0,0,1,.31873-5.82746A3.7225,3.7225,0,0,1,7.2363,6.23288a1.4062,1.4062,0,0,1,1.006.07415.7539.7539,0,0,1,.32451,1.1087c-.10277.169-.24147.31589-.359.4764a.91376.91376,0,0,0-.12012.21039.18847.18847,0,0,0,.09762.25311,1.07372,1.07372,0,0,0,.31705.09371,2.77666,2.77666,0,0,0,.88631-.098C9.56892,8.31543,9.74846,8.27649,9.94889,8.23463Z" fill="#fff"/><path d="M10.38374,9.69466a3.285,3.285,0,0,0,1.36936-.01493c-.00923.16311-.01664.31587-.02672.46845q-.06927,1.0479-.1396,2.09574c-.03287.49986-.06388.99984-.09615,1.49974-.00447.06926-.00954.13858-.01765.20748a.34741.34741,0,0,1-.32691.31914.3598.3598,0,0,1-.35727-.26555,4.00291,4.00291,0,0,1-.05788-.457q-.081-.86048-.15794-1.72135-.06678-.73458-.13269-1.46925c-.01577-.17425-.03234-.34843-.048-.5227C10.38858,9.7929,10.38713,9.75118,10.38374,9.69466Z" fill="#fff"/><path d="M11.04629,4.99979c.1442.20268.29752.39956.43057.60932a2.05316,2.05316,0,0,1,.36588,1.1552,1.19849,1.19849,0,0,1-.14953.58907A.75415.75415,0,0,1,10.421,7.478a.90044.90044,0,0,1-.14124-1.0574,3.81358,3.81358,0,0,1,.25371-.41631,2.23442,2.23442,0,0,0,.48647-.99464Z" fill="#fff"/><path d="M8.64933,12.37182a.69078.69078,0,1,1-.68874-.692A.68644.68644,0,0,1,8.64933,12.37182Z" fill="#fff"/><path d="M6.12619,11.61254a.69184.69184,0,1,1,.70108-.68824A.69353.69353,0,0,1,6.12619,11.61254Z" fill="#fff"/><path d="M7.22113,8.889a.68451.68451,0,1,1-.6793-.69132A.68624.68624,0,0,1,7.22113,8.889Z" fill="#fff"/><path d="M11.79845,9.44533a2.78815,2.78815,0,0,1-1.411.0041l.28976-1.34481a.99239.99239,0,0,0,.67545.00972Z" fill="#fff"/><path d="M9.86346,11.58172A.78835.78835,0,1,1,9.59468,10.033c.12575-.01716.12933-.012.14061.113.03923.4352.08047.87023.12055,1.30536C9.85968,11.49308,9.8608,11.535,9.86346,11.58172Z" fill="#fff"/><path d="M9.52547,11.36708a.52153.52153,0,0,1,.44207-.36724,1.04241,1.04241,0,0,1,.67185.07854.30333.30333,0,0,0,.25976.00663,1.49231,1.49231,0,0,1,.47437-.122.99379.99379,0,0,0,1.0286-.81917c.00686-.02656.0183-.05191.02612-.07826a2.86316,2.86316,0,0,1,1.56517-1.62681.42035.42035,0,0,1,.058.05761.19969.19969,0,0,1,.03217.07534,1.32789,1.32789,0,0,0,.46155.78947,1.942,1.942,0,0,1,.21437.25094,1.48236,1.48236,0,0,1,.18691.33311.46159.46159,0,0,1-.18976.55567.43246.43246,0,0,1-.51416.02415c-.04822-.02623-.09116-.06208-.139-.08907-.197-.11106-.32985-.05789-.395.16157a.62275.62275,0,0,0-.02785.18971,8.011,8.011,0,0,0,.18169,1.72221c.04755.19317.1139.3817.17931.59764l-.63572.26957a1.31692,1.31692,0,0,0-1.32843-.89353c-.72048.04894-.94383.57231-1.10248,1.18331l-.67611-.1389a7.52188,7.52188,0,0,1,.27347-2.199c-.25847.07572-.3138.08675-.45938.34886a.79023.79023,0,0,1-1.13479.25017A.69985.69985,0,0,0,9.52547,11.36708Zm4.60584-1.92259a.22384.22384,0,0,0-.1816-.11405.13723.13723,0,0,0-.12055.19918c.02443.06128.10434.10045.20041.18616C14.08048,9.592,14.14451,9.51054,14.13131,9.44449Z" fill="#ddd"/><path d="M15.22,13.1817l-.30037-.37a5.41752,5.41752,0,0,1-5.31321.73l-.18223.42373A5.65456,5.65456,0,0,0,15.22,13.1817Z" fill="#ddd"/></svg>