<svg id="Layer_1" data-name="Layer 1" xmlns="http://www.w3.org/2000/svg" width="19.44" height="19.44" viewBox="0 0 19.44 19.44"><circle cx="9.72" cy="9.72" r="8.5" fill="#28cb1c" stroke="#fff" stroke-miterlimit="10"/><path d="M11.2034,9.68131l-.10755.93615H8.345l-.12-.95623c-.40366.36017-.72552.66274-1.06415.9452-.35085.29265-.63251.29644-.83958.02826-.23677-.30665-.10168-.56615.136-.78764.61982-.57765,1.24009-1.15536,1.87813-1.7125a.94616.94616,0,0,1,.53383-.22305,17.02119,17.02119,0,0,1,1.71833.00108.94984.94984,0,0,1,.531.23177c.63725.558,1.25443,1.139,1.87859,1.71193.01829.0168.03416.03628.05076.05487a.50488.50488,0,0,1,.061.73548.48472.48472,0,0,1-.73144.03906c-.19608-.15292-.37331-.32979-.56213-.49229C11.63273,10.03635,11.44613,9.88408,11.2034,9.68131Z" fill="#fff"/><path d="M11.18055,6.247a1.46369,1.46369,0,1,1-2.92547-.10519,1.46372,1.46372,0,1,1,2.92547.10519Z" fill="#fff"/><path d="M8.19528,11.26165l1.03539.85291-.39352.56056a1.15508,1.15508,0,0,0,.04208.20329c.12625.32477.28694.63921.38069.97271a.63651.63651,0,0,1-.39714.79267.60877.60877,0,0,1-.84731-.24758,12.33642,12.33642,0,0,1-.76523-1.78007.88641.88641,0,0,1,.19476-.671A5.34,5.34,0,0,1,8.19528,11.26165Z" fill="#fff"/><path d="M10.63754,12.70238l-.44414-.5445,1.02952-.88827c.23006.18925.42779.33562.60666.50224a.8381.8381,0,0,1,.26424,1.18546c-.18.43682-.36123.875-.57669,1.29476a.70327.70327,0,1,1-1.30293-.52887,4.38746,4.38746,0,0,1,.19191-.48511C10.4731,13.0774,10.544,12.91835,10.63754,12.70238Z" fill="#fff"/></svg>