<svg id="Layer_1" data-name="Layer 1" xmlns="http://www.w3.org/2000/svg" width="19.44" height="19.44" viewBox="0 0 19.44 19.44"><circle cx="9.72" cy="9.72" r="8.5" fill="#e761b2" stroke="#fff" stroke-miterlimit="10"/><path d="M12.1623,6.30423q0,.64541-.00012,1.29079c0,.02165-.004.04349-.00227.06492a.14194.14194,0,0,1-.09238.14326,1.08244,1.08244,0,0,1-.34369.10906,1.73838,1.73838,0,0,1-.488.01162.99912.99912,0,0,1-.41717-.14677.25614.25614,0,0,1-.10822-.25056c.00151-.30386.00091-.60773.0004-.91159-.00031-.18636-.00226-.37271-.00294-.55906a.83937.83937,0,0,1,.16693-.4942,2.58025,2.58025,0,0,1,.62359-.65263,1.162,1.162,0,0,1,.33788-.172.31556.31556,0,0,1,.18487-.0056.193.193,0,0,1,.12995.16415.5594.5594,0,0,1,.01069.10634Q12.1629,5.6531,12.1623,6.30423Z" fill="#fff"/><path d="M12.47418,11.59684c-.0013-.62086-.00038-1.24173-.00038-1.86252,0-.20943.00153-.41886-.00146-.62822a.23652.23652,0,0,0-.03241-.11057.15774.15774,0,0,0-.21748-.03158,1.6532,1.6532,0,0,1-.76463.22691,1.12914,1.12914,0,0,1-.3489-.03265,1.21111,1.21111,0,0,1-.25066-.10138,1.83718,1.83718,0,0,1-.25411-.16713.14416.14416,0,0,0-.16759-.018.15776.15776,0,0,0-.0833.15472q.00046.222.00046.44407a.47343.47343,0,0,1,.30369.17311l.00008-.30759c0-.01111.00168-.02215.00306-.03832a1.47137,1.47137,0,0,0,.46807.17648A1.88394,1.88394,0,0,0,12.165,9.33791v.05525c0,.57182-.00107,1.14372-.00015,1.71562q.00046.27242.00161.54492a.36455.36455,0,0,1-.07724.24216l.16789.265a.65385.65385,0,0,0,.21718-.51894Z" fill="#fff"/><path d="M12.322,8.54486c-.00337-.07771-.00061-.15572-.00069-.23357,0-.09441.00123-.1889-.00031-.28338a.1521.1521,0,0,0-.21556-.1361,1.55245,1.55245,0,0,1-.56508.14621,1.27875,1.27875,0,0,1-.40576-.03318,1.34354,1.34354,0,0,1-.41227-.19342.15337.15337,0,0,0-.24438.13043q.00081.26046.00008.52078a.49208.49208,0,0,0,.12322.32837.9607.9607,0,0,0,.5083.28943,1.176,1.176,0,0,0,.63067-.01257,1.06722,1.06722,0,0,0,.44982-.2315A.36048.36048,0,0,0,12.322,8.54486Zm-.307.01877a.08871.08871,0,0,1-.032.04935.661.661,0,0,1-.22644.13051.92782.92782,0,0,1-.46147.061.75054.75054,0,0,1-.44837-.199.20524.20524,0,0,1-.06253-.15456c.00107-.06767.00008-.13533.00031-.203.00007-.01364.00161-.0272.00283-.04728a1.6725,1.6725,0,0,0,1.22916.05771C12.01646,8.365,12.01807,8.4644,12.015,8.56363Z" fill="#fff"/><path d="M12.9286,12.3138l-.45442-.717-.30936-.48806q-.51806-.81739-1.0362-1.63462l-.22277-.35143a.66558.66558,0,0,0-.04759-.0659.60659.60659,0,0,0-.80554-.12728q-1.31556.83266-2.63,1.6671a.60741.60741,0,0,0-.19142.86072Q8.234,13.04,9.23713,14.62239c.07112.11218.12215.12421.23334.05379q.846-.53612,1.69194-1.07245.85716-.54312,1.714-1.0864C12.96669,12.46017,12.98224,12.3984,12.9286,12.3138Zm-.70416.01747q-.666.42231-1.33185.84432-.6576.41681-1.31506.83336c-.08644.0548-.12606.04537-.18131-.04176q-.77934-1.22992-1.55875-2.45962a.47225.47225,0,0,1,.14866-.669q1.02177-.64808,2.044-1.29545a.47893.47893,0,0,1,.32361-.07265.47343.47343,0,0,1,.30369.17311.51409.51409,0,0,1,.03571.04958q.69819,1.10142,1.39607,2.20269l.16789.265.00782.01227C12.30659,12.23886,12.29463,12.28683,12.22444,12.33127Z" fill="#fff"/><path d="M8.34158,9.14164q-.56744.35966-1.13489.71929a.17815.17815,0,0,1-.28642-.0659q-.20083-.318-.40229-.63562A.1721.1721,0,0,1,6.5756,8.897q1.1477-.72818,2.296-1.45534a.17266.17266,0,0,1,.2623.0581q.20757.326.4139.65283a.17075.17075,0,0,1-.05834.26123Q8.91582,8.7782,8.34158,9.14164Z" fill="#fff"/><path d="M7.63543,9.6341l1.45216-.92042.3549.55993L7.99033,10.194Z" fill="#fff"/></svg>