<svg id="Layer_1" data-name="Layer 1" xmlns="http://www.w3.org/2000/svg" width="19.44" height="19.44" viewBox="0 0 19.44 19.44"><circle cx="9.72" cy="9.72" r="8.5" fill="#7b9eb0" stroke="#fff" stroke-miterlimit="10"/><path d="M11.62359,8.13241c0-.03076,0-.05963-.03075-.05963L10.41478,5.898c0-.03075-.03075-.03075-.06276-.06276a.27429.27429,0,0,0,.091-.21151V5.05264A.33579.33579,0,0,0,10.11038,4.72H9.32773a.33578.33578,0,0,0-.33264.33264v.57365a.27493.27493,0,0,0,.09038.21089c-.03076.03075-.05963.03075-.05963.06276L7.84716,8.07529c0,.03076-.03075.03076-.03075.05963v5.76914a.84477.84477,0,0,0,.75315.81591.686.686,0,0,0,.57428-.30188.696.696,0,0,0,1.1473,0,.69039.69039,0,0,0,.57428.30188.84477.84477,0,0,0,.75315-.81591V8.13366ZM9.72,7.49913c.45377,0,.846.21088.846.45315s-.36277.45314-.846.45314-.84541-.21213-.84541-.45377C8.8771,7.68051,9.26811,7.49913,9.72,7.49913Zm1.29981,3.68417a.2705.2705,0,0,1-.26924.27176H8.724a.27051.27051,0,0,1-.27177-.26924V9.82449a.27051.27051,0,0,1,.26862-.27239H10.748a.2705.2705,0,0,1,.27177.26924v.00315Z" fill="#fff"/></svg>