<?xml version="1.0" encoding="utf-8"?>
<!-- Generator: Adobe Illustrator 23.0.1, SVG Export Plug-In . SVG Version: 6.00 Build 0)  -->
<svg version="1.1" id="Layer_1" xmlns="http://www.w3.org/2000/svg" xmlns:xlink="http://www.w3.org/1999/xlink" x="0px" y="0px"
	 width="19.843px" height="19.843px" viewBox="0 0 19.843 19.843" enable-background="new 0 0 19.843 19.843" xml:space="preserve">
<circle fill="#EE4D4D" stroke="#FFFFFF" stroke-miterlimit="10" cx="10.071" cy="9.971" r="8.504"/>
<g>
	<path fill="#FFFFFF" d="M14.585,7.78h-2.313V6.263c0-0.253-0.181-0.506-0.506-0.506H8.622c-0.253,0-0.506,0.253-0.506,0.506V7.78
		H5.803c-0.253,0-0.506,0.253-0.506,0.506V13.6c0,0.253,0.253,0.506,0.506,0.506h8.747c0.253,0,0.506-0.253,0.506-0.506V8.287
		C15.019,8.033,14.838,7.78,14.585,7.78L14.585,7.78z M8.839,6.371h2.783v1.41H8.802v-1.41H8.839z M11.874,11.611H10.79v1.084H9.38
		v-1.084H8.296v-1.41H9.38V9.189h1.41v1.084h1.084L11.874,11.611L11.874,11.611z"/>
</g>
</svg>
