<svg id="Layer_1" data-name="Layer 1" xmlns="http://www.w3.org/2000/svg" width="19.44" height="19.44" viewBox="0 0 19.44 19.44"><circle cx="9.72" cy="9.72" r="8.5" fill="#28cb1c" stroke="#fff" stroke-miterlimit="10"/><path d="M4.66427,13.44635a1.46223,1.46223,0,0,0,1.07172.44411h7.5828a1.51509,1.51509,0,0,0,1.51436-1.51583H4.22017A1.46217,1.46217,0,0,0,4.66427,13.44635Z" fill="#fff"/><path d="M7.0639,11.61635h4.17091a1.336,1.336,0,0,0,1.32644-1.32717v-.18865h.38318A2.27558,2.27558,0,0,0,15.22,7.825h0a2.27557,2.27557,0,0,0-2.27557-2.27557H6.1177a.38391.38391,0,0,0-.378.37877v4.35956a1.33966,1.33966,0,0,0,1.32571,1.32864Zm5.49661-4.92919h.37878a1.13779,1.13779,0,0,1,0,2.27558h-.37878Z" fill="#fff"/></svg>