<svg id="Layer_1" data-name="Layer 1" xmlns="http://www.w3.org/2000/svg" width="19.44" height="19.44" viewBox="0 0 19.44 19.44"><circle cx="9.72" cy="9.72" r="8.5" fill="#4ddbc4" stroke="#fff" stroke-miterlimit="10"/><path d="M9.43429,6.36286h.92857V5.14857A.46089.46089,0,0,0,9.93429,4.72H7.00571c-.21428,0-.35714.14286-.35714.42857v.85714H8.72A.62609.62609,0,0,1,9.43429,6.36286Z" fill="#fff"/><path d="M13.36286,11.00571a4.924,4.924,0,0,0-.57143-.21428c-.92857-.35714-2.42857-.92857-2.42857-1.92857V7.22H9.50571v3.28572c0,.64285,1.5,1.28571,2.21429,1.57143a4.91961,4.91961,0,0,1,.57143.21428,1.39243,1.39243,0,0,1,.71428.71429h.64286a.46088.46088,0,0,0,.42857-.42858v-.42857a1.27242,1.27242,0,0,0-.71428-1.14286Z" fill="#fff"/><path d="M9.14857,8.00571V6.79143A.46087.46087,0,0,0,8.72,6.36286H5.79143a.46087.46087,0,0,0-.42857.42857V8.00571Z" fill="#fff"/><path d="M12.14857,12.64857a4.91961,4.91961,0,0,0-.57143-.21428c-.92857-.35715-2.42857-.92857-2.42857-1.92858V8.86286H5.43429v5.42857a.46088.46088,0,0,0,.42857.42857H7.50572a.46088.46088,0,0,0,.42857-.42857v-.14286a8.60513,8.60513,0,0,0,2.35714.42857c1.14286.07143,2.14286.07143,2.21429.07143a.46088.46088,0,0,0,.42857-.42857v-.42857A1.49069,1.49069,0,0,0,12.14857,12.64857Z" fill="#fff"/></svg>