<svg id="Layer_1" data-name="Layer 1" xmlns="http://www.w3.org/2000/svg" width="19.44" height="19.44" viewBox="0 0 19.44 19.44"><circle cx="9.72" cy="9.72" r="8.5" fill="#a071ff" stroke="#fff" stroke-miterlimit="10"/><path d="M10.61385,12.89582H7.48608a1.00611,1.00611,0,0,1-1.0635-.71806,4.66,4.66,0,0,1-.19068-.73844Q5.824,9.40753,5.426,7.37372q-.18968-.96338-.37178-1.92823c-.01164-.06116-.03232-.0865-.10025-.08426-.16982.0056-.34.00377-.51.00075a.75836.75836,0,0,1,.00339-1.5153q.5325-.00477,1.06507.00127a1.66846,1.66846,0,0,1,.29742.03331.82466.82466,0,0,1,.60632.46667,2.95158,2.95158,0,0,1,.22882.78923q.04617.24674.08447.49492c.00691.04417.025.0609.06822.0562a.6297.6297,0,0,1,.06747-.00039q3.97159,0,7.94318.00169a2.027,2.027,0,0,1,.43121.04082.59661.59661,0,0,1,.469.70368c-.04447.23219-.11764.45919-.18333.687-.21252.73689-.42384,1.47417-.64359,2.20891a6.36443,6.36443,0,0,1-.26026.71791,1.34242,1.34242,0,0,1-.24164.35683.61422.61422,0,0,1-.47264.19138q-2.85774-.00092-5.71549-.00024a.53627.53627,0,0,0-.07307,1.06951c.04726.00381.09489.00417.14236.00417q2.809.0003,5.618-.00043a.59373.59373,0,0,1,.57353.33668.60714.60714,0,0,1-.52332.88715c-.38232.00908-.765.00277-1.14754.00286Q11.69769,12.896,10.61385,12.89582ZM6.89113,7.223c.00676.03339.01083.05784.0167.08184.137.56048.27523,1.12066.40984,1.68172.0137.0571.03449.07551.09337.07547q2.921-.00226,5.84205-.00008a.07811.07811,0,0,0,.08955-.06445q.27414-.85251.55229-1.70373c.00716-.02208.01162-.045.01814-.07077Z" fill="#fff"/><path d="M7.86766,15.59542A1.10475,1.10475,0,1,1,8.94147,14.4863,1.09051,1.09051,0,0,1,7.86766,15.59542Z" fill="#fff"/><path d="M11.635,14.49055a1.0771,1.0771,0,1,1,1.07819,1.10489A1.09117,1.09117,0,0,1,11.635,14.49055Z" fill="#fff"/></svg>