<svg id="Layer_1" data-name="Layer 1" xmlns="http://www.w3.org/2000/svg" width="19.44" height="19.44" viewBox="0 0 19.44 19.44"><circle cx="9.72" cy="9.72" r="8.5" fill="#e761b2"/><path d="M13.31269,7.39416V7.38292a.7882.7882,0,0,0-.74157-.78653.12346.12346,0,0,0-.045-.00563,1.40262,1.40262,0,0,1-1.39887-1.39887.08337.08337,0,0,0-.00562-.03933V5.147c-.06742-.40451-1.17977-.427-1.4045-.427-.23594,0-1.41008.02246-1.41008.47189v.01125A1.40027,1.40027,0,0,1,6.90818,6.59076c-.01684,0-.02808.00563-.03933.00563a.7807.7807,0,0,0-.74154.76966v.01687a8.0861,8.0861,0,0,0,1.87076,5.618v1.09551a.15452.15452,0,1,0-.309,0v.46627a.15692.15692,0,0,0,.045.11237l.01684.01687a.123.123,0,0,0,.02811.01683h.00559c.00563,0,.00563.00563.01125.00563a.15559.15559,0,0,0,.05058.00562h3.74718a.15689.15689,0,0,0,.11237-.045c.00562-.00563.00562-.01122.01121-.01684s.01125-.01687.01687-.02249c0-.00559,0-.00559.00563-.01122a.01741.01741,0,0,1,.00562-.01124c0-.01687.00559-.03371.00559-.05058v-.46627a.15686.15686,0,0,0-.04492-.11236c-.00562-.00563-.01125-.00563-.01687-.01125-.01121-.00562-.01684-.01121-.02808-.01684a.00551.00551,0,0,1-.00563-.00562.02055.02055,0,0,1-.01683-.00562c-.01125,0-.02812-.00563-.045-.00563h-.15732V13.0009A8.03936,8.03936,0,0,0,13.31269,7.39416ZM8.59357,5.50091a3.60481,3.60481,0,0,0,1.1236.15728,3.47684,3.47684,0,0,0,1.1236-.16291,1.73226,1.73226,0,0,0,.5955,1.01686C11.39135,7.72,10.19472,9.56832,9.71717,9.56832c-.23594,0-.65729-.4663-1.02248-1.07868a4.67259,4.67259,0,0,1-.691-1.98313A1.74227,1.74227,0,0,0,8.59357,5.50091Zm1.1236,7.97188c-1.77527,0-3.27526-2.7865-3.28088-6.08425V7.37729a.47473.47473,0,0,1,.47189-.47189h.03371A1.75084,1.75084,0,0,0,7.706,6.70875c.14045,1.1798,1.1573,2.89328,1.85393,3.14047v.05054a.62361.62361,0,1,0,.3146,0V9.84922c.69663-.236,1.71348-1.96067,1.85955-3.14047a1.70269,1.70269,0,0,0,.75279.19665c.01687,0,.02812.00559.03933.00559a.47.47,0,0,1,.47193.4663v.00563C12.99809,10.68067,11.4981,13.47279,9.71717,13.47279Z" fill="#fff"/></svg>