<?xml version="1.0" encoding="utf-8"?>
<!-- Generator: Adobe Illustrator 23.0.1, SVG Export Plug-In . SVG Version: 6.00 Build 0)  -->
<svg version="1.1" id="Layer_1" xmlns="http://www.w3.org/2000/svg" xmlns:xlink="http://www.w3.org/1999/xlink" x="0px" y="0px"
	 width="19.843px" height="19.843px" viewBox="0 0 19.843 19.843" enable-background="new 0 0 19.843 19.843" xml:space="preserve">
<circle fill="#7B9EB0" stroke="#FFFFFF" stroke-miterlimit="10" cx="10.071" cy="9.971" r="8.504"/>
<g>
	<path fill="#FFFFFF" d="M14.173,12.857c-0.004-0.052-0.027-0.102-0.066-0.139L10.82,9.43c0.13-0.305,0.198-0.634,0.198-0.976
		c0-0.667-0.26-1.293-0.731-1.765C9.816,6.219,9.19,5.959,8.523,5.959c-0.667,0-1.293,0.26-1.764,0.731
		c-0.973,0.973-0.974,2.556,0,3.529c0.471,0.471,1.097,0.732,1.765,0.732c0.341,0,0.67-0.069,0.976-0.198l1.08,1.08
		c0.045,0.045,0.104,0.068,0.168,0.066l0.589-0.02l-0.019,0.59c-0.002,0.062,0.02,0.123,0.066,0.168
		c0.044,0.045,0.104,0.068,0.166,0.066l0.59-0.02l-0.021,0.59c-0.002,0.062,0.022,0.123,0.066,0.168
		c0.045,0.045,0.097,0.068,0.168,0.066l0.589-0.02l-0.02,0.59c-0.003,0.066,0.024,0.128,0.071,0.173
		c0.044,0.039,0.097,0.06,0.154,0.06c0.008,0,0.016-0.001,0.025-0.001l0.904-0.1c0.121-0.013,0.211-0.122,0.2-0.245L14.173,12.857z
		 M8.222,8.154c-0.278,0.278-0.726,0.278-1.003,0c-0.278-0.278-0.278-0.726,0-1.003c0.277-0.277,0.726-0.278,1.003,0
		C8.499,7.428,8.498,7.877,8.222,8.154z M13.402,12.932c-0.033,0.033-0.077,0.049-0.121,0.049c-0.043,0-0.087-0.016-0.121-0.049
		l-2.797-2.797c0.078-0.084,0.149-0.173,0.213-0.265l2.824,2.823C13.468,12.758,13.468,12.866,13.402,12.932z"/>
</g>
</svg>
