<svg id="Layer_1" data-name="Layer 1" xmlns="http://www.w3.org/2000/svg" width="19.44" height="19.44" viewBox="0 0 19.44 19.44"><circle cx="9.72" cy="9.72" r="8.5" fill="#7b9eb0" stroke="#fff" stroke-miterlimit="10"/><path d="M12.63608,4.72H6.80322a.83428.83428,0,0,0-.83287.83286v8.33357a.83428.83428,0,0,0,.83287.83357h5.83286a.83428.83428,0,0,0,.83357-.83357V5.55286A.83357.83357,0,0,0,12.63608,4.72Zm-4.165.83286a.83393.83393,0,1,1-.00071,0Zm1.66854,5.20945a.21155.21155,0,0,1-.21156.208H9.512V13.6791a.20662.20662,0,0,1-.20586.20739l-.0057-.00006H7.63749a.20663.20663,0,0,1-.20734-.20592V10.97035H7.012a.20662.20662,0,0,1-.20734-.20591V8.31591a.62132.62132,0,0,1,.36954-.56982,3.407,3.407,0,0,1,1.2969-.31734A3.40747,3.40747,0,0,1,9.768,7.74468a.62131.62131,0,0,1,.36954.57053v2.4471Zm2.43865-.26939-.83568.83357a.208.208,0,0,1-.29421.00057l-.00057-.00057-.83357-.83357a.21157.21157,0,0,1,.14739-.35261H12.428a.20594.20594,0,0,1,.19253.12906.21157.21157,0,0,1-.04514.22355Zm.04513-1.318a.21154.21154,0,0,1-.19252.129H10.76161a.21157.21157,0,0,1-.14739-.35261l.83356-.83356a.21157.21157,0,0,1,.29479,0l.83286.83356a.21156.21156,0,0,1,.04513.22356Z" fill="#fff"/></svg>