<svg id="Layer_1" data-name="Layer 1" xmlns="http://www.w3.org/2000/svg" width="19.44" height="19.44" viewBox="0 0 19.44 19.44"><circle cx="9.72" cy="9.72" r="8.5" fill="#f96d49" stroke="#fff" stroke-miterlimit="10"/><path d="M11.67049,14.72H7.76139a1.15263,1.15263,0,0,1-.901-1.34527q0-2.00856,0-4.0171c0-1.16462-.00222-2.32925.00093-3.49386A1.08628,1.08628,0,0,1,8.00491,4.72039q1.72575-.00116,3.45149-.00024a1.10736,1.10736,0,0,1,.7675.29167,1.27083,1.27083,0,0,1,.35647.68807v8.0404c-.03261.10562-.05771.21431-.09916.31631A1.15592,1.15592,0,0,1,11.67049,14.72ZM7.18083,6.08693v7.09982h5.06952V6.08693Zm2.97758,7.90317a.44337.44337,0,1,0-.44141.43977A.44969.44969,0,0,0,10.15841,13.9901Z" fill="#fff"/></svg>