<?xml version="1.0" encoding="utf-8"?>
<!-- Generator: Adobe Illustrator 23.0.1, SVG Export Plug-In . SVG Version: 6.00 Build 0)  -->
<svg version="1.1" id="Layer_1" xmlns="http://www.w3.org/2000/svg" xmlns:xlink="http://www.w3.org/1999/xlink" x="0px" y="0px"
	 width="19.84252px" height="19.84252px" viewBox="0 0 19.84252 19.84252" style="enable-background:new 0 0 19.84252 19.84252;"
	 xml:space="preserve">
<style type="text/css">
	.st0{fill:#13B5C7;stroke:#FFFFFF;stroke-miterlimit:10;}
	.st1{fill:#FFFFFF;}
</style>
<title>passage</title>
<circle class="st0" cx="9.92126" cy="9.92126" r="8.504"/>
<g>
	<path class="st1" d="M8.23989,3.47641C8.11993,3.45313,8.00079,3.5203,7.95862,3.635L5.95487,14.71238
		c-0.02132,0.10076,0.07223,0.19514,0.20889,0.21086c0.12018,0.02549,0.24118-0.03964,0.28607-0.154l0.00147-0.00815L8.455,3.68374
		C8.47327,3.58271,8.377,3.48991,8.23989,3.47641z"/>
	<path class="st1" d="M13.8891,14.71238L11.83769,3.635c-0.04081-0.11708-0.16129-0.18654-0.28306-0.1632
		c-0.14078,0.01121-0.24226,0.10244-0.22668,0.2038l0.00151,0.00814l2.0514,11.07738c0.04759,0.11536,0.17086,0.18018,0.29287,0.154
		C13.80929,14.89989,13.90419,14.81055,13.8891,14.71238z"/>
	<path class="st1" d="M9.8295,13.81363c-0.10197,0.00001-0.18462,0.08266-0.18463,0.18463v0.55387
		c0.00074,0.10197,0.084,0.18403,0.18596,0.18329c0.10092-0.00073,0.18255-0.08236,0.18329-0.18329v-0.55387
		c0.00001-0.10196-0.08265-0.18462-0.18461-0.18463C9.82951,13.81363,9.8295,13.81363,9.8295,13.81363z"/>
	<path class="st1" d="M9.8295,9.547c-0.10196,0-0.18462,0.08265-0.18463,0.18462v1.06657
		c0.00074,0.10197,0.084,0.18403,0.18596,0.18329c0.10092-0.00073,0.18255-0.08236,0.18329-0.18329V9.73162
		C10.01413,9.62966,9.93148,9.547,9.82952,9.547C9.82951,9.547,9.82951,9.547,9.8295,9.547z"/>
	<path class="st1" d="M9.8295,11.68032c-0.10196,0-0.18462,0.08265-0.18463,0.18462v1.06675
		c0.00074,0.10197,0.084,0.18403,0.18596,0.18329c0.10092-0.00073,0.18255-0.08236,0.18329-0.18329v-1.06675
		c0.00001-0.10196-0.08264-0.18461-0.1846-0.18462C9.82951,11.68032,9.82951,11.68032,9.8295,11.68032z"/>
	<path class="st1" d="M9.8295,7.4135c-0.10196,0-0.18462,0.08266-0.18463,0.18462v1.06657
		c0.00074,0.10197,0.084,0.18403,0.18596,0.18329c0.10092-0.00073,0.18255-0.08236,0.18329-0.18329V7.59812
		c0.00001-0.10196-0.08264-0.18461-0.1846-0.18462C9.82951,7.4135,9.82951,7.4135,9.8295,7.4135z"/>
	<path class="st1" d="M9.8295,5.28C9.72753,5.28,9.64488,5.36266,9.64487,5.46463v1.06674
		c0.00074,0.10197,0.084,0.18403,0.18596,0.18329c0.10092-0.00073,0.18255-0.08236,0.18329-0.18329V5.46462
		C10.01412,5.36265,9.93146,5.28,9.8295,5.28z"/>
	<path class="st1" d="M9.8295,3.65937C9.72753,3.65937,9.64488,3.74203,9.64487,3.844v0.55387
		c0.00074,0.10197,0.084,0.18403,0.18596,0.18329c0.10092-0.00073,0.18255-0.08236,0.18329-0.18329V3.844
		c0.00001-0.10196-0.08265-0.18462-0.18461-0.18463C9.82951,3.65937,9.8295,3.65937,9.8295,3.65937z"/>
</g>
</svg>
