<svg id="Layer_1" data-name="Layer 1" xmlns="http://www.w3.org/2000/svg" width="19.44" height="19.44" viewBox="0 0 19.44 19.44"><circle cx="9.72" cy="9.72" r="8.5" fill="#7b9eb0" stroke="#fff" stroke-miterlimit="10"/><path d="M12.752,11.12756l.93887.6499a.70213.70213,0,0,1,1.05953.90662.70062.70062,0,0,1-.85185.25787.68357.68357,0,0,1-.37624-.37211.69232.69232,0,0,1-.0084-.53053l-1.04117-.72073-1.03527.7168a.69792.69792,0,0,1-.038.59619.67885.67885,0,0,1-.35816.31581.70194.70194,0,1,1,.21727-1.17272l.93466-.64679c-.016-.01216-.02794-.022-.04066-.03085q-.39267-.27182-.78585-.54286a.44943.44943,0,0,0-.09351-.047,2.92623,2.92623,0,0,1-.71238-.38787,2.162,2.162,0,0,1-.63375-.72394,1.61648,1.61648,0,0,1-.195-.70522A.40131.40131,0,0,0,9.69,8.537c-.05819-.12986-.11878-.25867-.17564-.3891a.05762.05762,0,0,0-.0629-.04117c-.312.00146-.624-.00149-.93589.0022a.16334.16334,0,0,1-.17173-.15777.15975.15975,0,0,1,.17156-.15806c.35055-.00017.70111.00145,1.05164-.00108a.18646.18646,0,0,1,.188.12206c.09614.21383.19346.42713.28851.64144a.062.062,0,0,0,.06631.04442q1.26545-.00171,2.53087-.00089h.05187V6.44553c.07348,0,.14015-.00437.20609.00074a2.71639,2.71639,0,0,1,.94859.24129A2.38654,2.38654,0,0,1,14.97923,7.733a1.98011,1.98011,0,0,1,.23865.8337,1.56617,1.56617,0,0,1-.16592.76553,2.1945,2.1945,0,0,1-.82763.904,3.01212,3.01212,0,0,1-.58075.285.48786.48786,0,0,0-.10068.05522c-.08451.05732-.16719.1173-.251.17557q-.25391.17642-.50824.35217Zm-.279-.193.32148-.22317a4.21183,4.21183,0,0,1-.64262.00059Z" fill="#fff"/><path d="M5.985,8.98949c-.00737-.11134-.0159-.21636-.02082-.32154a1.8052,1.8052,0,0,1-.00475-.27558.46678.46678,0,0,1,.92826.05978c.0054.10684.01489.21347.023.32639.05019.00327.09973.00749.14936.00956.23281.00974.46575.01688.69844.02894a.30563.30563,0,0,1,.29247.27535.31.31,0,0,1-.19932.32606.34679.34679,0,0,1-.12757.01981c-.24633-.00709-.49257-.0176-.73884-.0269-.0081-.0003-.01623,0-.027,0,0,.039-.00208.07538.00034.11148.01481.22071.03087.44135.046.66205.00516.07517.009.15044.01316.22567.00308.05512.003.05447.056.06146.21736.02865.43478.05684.65194.087a.3458.3458,0,0,1,.28405.22666c.11374.27542.22417.55221.33593.82844.07283.18.14716.35942.218.54019a.30973.30973,0,0,1-.30294.43036.299.299,0,0,1-.27786-.19819c-.04835-.114-.0934-.22948-.14-.34426l-.01778-.03941a1.93153,1.93153,0,0,1-1.16571.83425,1.9028,1.9028,0,0,1-1.42051-.18,1.94731,1.94731,0,0,1-1.00759-1.92753,1.91462,1.91462,0,0,1,.56827-1.18018A1.9429,1.9429,0,0,1,5.985,8.98949Zm.02111.3179c-.0455.00663-.08552.01-.12438.01865-.07017.01561-.14079.03072-.20923.05236a1.63737,1.63737,0,0,0-1.13493,1.6163,1.59059,1.59059,0,0,0,.31135.90782,1.61526,1.61526,0,0,0,1.18619.67243,1.591,1.591,0,0,0,.73464-.10279,1.62432,1.62432,0,0,0,.88919-.817.06491.06491,0,0,0,.00277-.06089c-.04571-.1097-.09518-.21829-.13255-.33085a.15386.15386,0,0,0-.15244-.123c-.2148-.02035-.42837-.05421-.64207-.08516a1.63012,1.63012,0,0,1-.32046-.05711.45142.45142,0,0,1-.30257-.31113.98424.98424,0,0,1-.0256-.19848c-.01687-.23069-.03168-.46153-.0472-.69232C6.028,9.63589,6.01731,9.47559,6.00606,9.30739Z" fill="#fff"/><path d="M5.61288,7.1792a.71344.71344,0,1,1,.70354.72834A.72146.72146,0,0,1,5.61288,7.1792Z" fill="#fff"/></svg>