<?xml version="1.0" encoding="utf-8"?>
<!-- Generator: Adobe Illustrator 23.0.1, SVG Export Plug-In . SVG Version: 6.00 Build 0)  -->
<svg version="1.1" id="Layer_1" xmlns="http://www.w3.org/2000/svg" xmlns:xlink="http://www.w3.org/1999/xlink" x="0px" y="0px"
	 width="19.843px" height="19.843px" viewBox="0 0 19.843 19.843" enable-background="new 0 0 19.843 19.843" xml:space="preserve">
<circle fill="#FF9364" stroke="#FFFFFF" stroke-miterlimit="10" cx="10.071" cy="9.971" r="8.504"/>
<g>
	<g>
		<g>
			<polygon fill="#FFFFFF" points="6.015,10.332 6.015,6.117 4.811,6.117 4.811,13.343 6.015,13.343 6.015,12.139 13.884,12.139 
				13.884,13.343 15.089,13.343 15.089,12.139 15.089,10.332 			"/>
		</g>
	</g>
	<g>
		<g>
			<path fill="#FFFFFF" d="M7.521,7.923c-0.499,0-0.903,0.404-0.903,0.903v0.903h1.807V8.827C8.424,8.328,8.02,7.923,7.521,7.923z"
				/>
		</g>
	</g>
	<g>
		<g>
			<path fill="#FFFFFF" d="M14.185,7.923H9.93c-0.499,0-0.903,0.404-0.903,0.903v0.903h6.062V8.827
				C15.089,8.328,14.684,7.923,14.185,7.923z"/>
		</g>
	</g>
</g>
</svg>
