<?xml version="1.0" encoding="utf-8"?>
<!-- Generator: Adobe Illustrator 23.0.1, SVG Export Plug-In . SVG Version: 6.00 Build 0)  -->
<svg version="1.1" id="Layer_1" xmlns="http://www.w3.org/2000/svg" xmlns:xlink="http://www.w3.org/1999/xlink" x="0px" y="0px"
	 width="19.843px" height="19.843px" viewBox="0 0 19.843 19.843" enable-background="new 0 0 19.843 19.843" xml:space="preserve">
<circle fill="#13B5C7" stroke="#FFFFFF" stroke-miterlimit="10" cx="10.071" cy="9.971" r="8.504"/>
<g>
	<g>
		<g>
			<path fill="#FFFFFF" d="M14.561,11.534l-1.243-1.492c-0.124-0.124-0.373-0.124-0.373,0l-1.243,1.492
				c-0.124,0.124,0,0.373,0.249,0.373h0.497v1.243c0,0.124,0.124,0.249,0.249,0.249h0.995c0.124,0,0.249-0.124,0.249-0.249v-1.242
				h0.497C14.561,11.907,14.684,11.658,14.561,11.534z"/>
		</g>
	</g>
	<g>
		<g>
			<path fill="#FFFFFF" d="M8.966,5.815c-0.621,0-0.995,0.497-0.995,0.995s0.373,1.118,0.995,1.118S9.96,7.431,9.96,6.933
				S9.463,5.815,8.966,5.815z"/>
		</g>
	</g>
	<g>
		<g>
			<path fill="#FFFFFF" d="M13.69,7.431h-2.238c-0.124,0-0.124,0-0.249,0.124L8.22,11.409c0,0-0.124,0.124-0.249,0.124H6.728
				c-0.373,0-0.746,0.249-0.87,0.621c-0.124,0.373,0.249,0.87,0.746,0.87h2.362c0.124,0,0.124,0,0.249-0.124l2.984-3.853
				c0,0,0.124-0.124,0.249-0.124h1.367c0.373,0,0.746-0.373,0.746-0.746l0,0C14.561,7.68,14.312,7.431,13.69,7.431z"/>
		</g>
	</g>
	<g>
		<g>
			<path fill="#FFFFFF" d="M8.966,7.929c-0.621,0-0.995,0.497-0.995,0.995v1.989l0,0L9.96,8.426
				C9.712,8.177,9.339,7.929,8.966,7.929z"/>
		</g>
	</g>
</g>
</svg>
