<svg id="Layer_1" data-name="Layer 1" xmlns="http://www.w3.org/2000/svg" width="19.44" height="19.44" viewBox="0 0 19.44 19.44"><circle cx="9.72" cy="9.72" r="8.5" fill="#58427c" stroke="#fff" stroke-miterlimit="10"/><path d="M11.77064,9.31531c.45662-.01036.325.308.34151.54117.01663.23491.02035.4637-.31751.42242a4.00791,4.00791,0,0,1-.22521.7416,5.64732,5.64732,0,0,1-.77434,1.2471c-.35256.37681-.69179.68336-.61644,1.27172.0375.29284-.25433.51132-.58209.51463-.95508.00966-1.91041.01115-2.86544-.00066a.58784.58784,0,0,1-.60879-.68182,1.02341,1.02341,0,0,0-.3983-.90462,3.59107,3.59107,0,0,1,.16078-5.48552.52071.52071,0,0,0,.23287-.49114,4.80839,4.80839,0,0,1-.00192-.621A.60451.60451,0,0,1,6.74,5.2286Q8.15533,5.2112,9.571,5.22752a.5633.5633,0,0,1,.62019.63068,1.58618,1.58618,0,0,0,.63422,1.50418A3.19129,3.19129,0,0,1,11.77064,9.31531Zm-.60215.50021a3.01036,3.01036,0,0,0-6.02064-.03126,3.01036,3.01036,0,1,0,6.02064.03126Z" fill="#fff"/><path d="M8.58553,9.80388a.42736.42736,0,0,1-.42763.42695.41312.41312,0,0,1-.114-.01589L6.79416,11.30165a.17261.17261,0,1,1-.2266-.26045L7.77448,9.9911A.41683.41683,0,0,1,7.731,9.80388a.42805.42805,0,0,1,.25424-.391V8.07676a.17271.17271,0,1,1,.34542,0v1.3361A.42754.42754,0,0,1,8.58553,9.80388Z" fill="#fff"/><rect x="10.56413" y="11.13208" width="1.08197" height="0.57705" fill="#58427c"/><path d="M10.92479,9.03225l.12614.30455.27459.304.46485.273h.25647a.79779.79779,0,0,1,0-.24043,1.85777,1.85777,0,0,0-.07815-.39949l-.25045-.46566-.37669-.1447-.29062.17633Z" fill="#58427c"/><path d="M12.16346,11.51719v2.69964c-.02418.00108-.046.00289-.06788.00289q-.70045.00025-1.40091,0a.406.406,0,0,1-.43449-.43674q-.0003-1.05222,0-2.10444c0-.12927.03529-.16422.165-.16423q.84738-.0001,1.69474,0C12.13193,11.5143,12.144,11.51585,12.16346,11.51719Z" fill="#e0e0e0"/><path d="M12.71061,14.21984V11.51415c.10962,0,.21572,0,.32182,0q.70869.00007,1.41738.00017c.12659,0,.16335.03564.16338.15955q.00018,1.05817-.00009,2.11635a.40476.40476,0,0,1-.4292.42944q-.70648.001-1.413.00018Z" fill="#e0e0e0"/><path d="M12.16388,10.24021v1.10933c-.0213.00115-.041.00312-.06061.00312q-.8667,0-1.7334-.00046a.37958.37958,0,0,1-.40656-.40382c-.00049-.109-.00164-.218.00019-.327a.37085.37085,0,0,1,.37507-.384c.59641-.0039,1.19286-.00161,1.78929-.00158A.33244.33244,0,0,1,12.16388,10.24021Z" fill="#e0e0e0"/><path d="M12.71225,10.23883c.02159-.00122.0416-.00334.0616-.00334q.8639-.00027,1.72778.00011a.37709.37709,0,0,1,.3971.29206.86074.86074,0,0,1,.011.17784c.00142.09459.003.18935-.001.2838a.37354.37354,0,0,1-.3722.36217c-.59636.00186-1.19274.001-1.78911.00109-.01009,0-.02017-.00139-.03518-.00249Z" fill="#e0e0e0"/><path d="M12.08927,10.08394a2.36316,2.36316,0,0,1-.874-.21652.94852.94852,0,0,1-.46217-.49352.628.628,0,0,1,.19251-.73487.62016.62016,0,0,1,.72478-.10913,1.05538,1.05538,0,0,1,.53132.65019,2.8158,2.8158,0,0,1,.13076.71358C12.34061,10.02854,12.25238,10.09579,12.08927,10.08394Zm-.12058-.36068a1.4783,1.4783,0,0,0-.21829-.67666.82393.82393,0,0,0-.24052-.20487.26706.26706,0,0,0-.34963.07243.28127.28127,0,0,0-.0739.35669.62312.62312,0,0,0,.23291.25707A1.72329,1.72329,0,0,0,11.96869,9.72326Z" fill="#e0e0e0"/><path d="M14.16872,9.13808a.79992.79992,0,0,1-.269.55685,1.11686,1.11686,0,0,1-.45531.26219,2.77081,2.77081,0,0,1-.71354.13041.17092.17092,0,0,1-.19-.18543,2.52147,2.52147,0,0,1,.19122-.87457,1.0147,1.0147,0,0,1,.37789-.44483.65221.65221,0,0,1,.93588.18724A.61432.61432,0,0,1,14.16872,9.13808Zm-1.26325.58005a1.79683,1.79683,0,0,0,.59614-.15973.65536.65536,0,0,0,.27456-.26648.33473.33473,0,0,0-.26624-.48331.30331.30331,0,0,0-.11994.01963.56158.56158,0,0,0-.25911.20205A1.54937,1.54937,0,0,0,12.90547,9.71813Z" fill="#e0e0e0"/></svg>