<?xml version="1.0" encoding="utf-8"?>
<!-- Generator: Adobe Illustrator 23.0.1, SVG Export Plug-In . SVG Version: 6.00 Build 0)  -->
<svg version="1.1" id="Layer_1" xmlns="http://www.w3.org/2000/svg" xmlns:xlink="http://www.w3.org/1999/xlink" x="0px" y="0px"
	 width="19.843px" height="19.843px" viewBox="0 0 19.843 19.843" enable-background="new 0 0 19.843 19.843" xml:space="preserve">
<circle fill="#FF4DA5" stroke="#FFFFFF" stroke-miterlimit="10" cx="10.071" cy="9.971" r="8.504"/>
<g>
	<path fill="#FFFFFF" d="M5.466,5.791h1.915v1.641H5.466V5.791z"/>
	<path fill="#FFFFFF" d="M7.381,5.245c0-0.137-0.137-0.137-0.137-0.137H5.603c-0.137,0-0.137,0.137-0.137,0.137v0.137h1.915
		C7.381,5.382,7.381,5.245,7.381,5.245z"/>
	<path fill="#FFFFFF" d="M14.902,5.108h-2.325c-0.137,0-0.137,0.137-0.137,0.137v1.094h2.598V5.245
		C15.039,5.245,14.902,5.108,14.902,5.108z"/>
	<path fill="#FFFFFF" d="M12.441,6.886c0,0.137,0.137,0.137,0.137,0.137h2.325c0.137,0,0.137-0.137,0.137-0.137V6.749h-2.598
		C12.441,6.749,12.441,6.886,12.441,6.886z"/>
	<path fill="#FFFFFF" d="M5.466,14.544c0,0.137,0.137,0.137,0.137,0.137h2.598c0.137,0,0.137-0.137,0.137-0.137v-0.137H5.466V14.544
		z"/>
	<path fill="#FFFFFF" d="M13.125,14.681h1.915v-0.957h-1.915V14.681z M14.356,13.997h0.274v0.274h-0.274V13.997z M13.398,13.997
		h0.684v0.274h-0.684V13.997z"/>
	<path fill="#FFFFFF" d="M14.219,10.441h-1.231c0-0.137,0-0.274-0.137-0.274h0.957V7.706h0.547V7.432h-1.368v0.274h0.547v1.915
		h-0.957c-0.137-0.137-0.274-0.137-0.411-0.137V9.347c0-0.684-0.547-1.094-1.094-1.094c-0.411,0-0.82,0.274-1.094,0.684
		C9.84,8.799,9.704,8.799,9.431,8.799c-0.547,0-0.957,0.274-1.094,0.82H6.56V8.8h0.684c0.137,0,0.137-0.137,0.137-0.137V7.706H5.466
		v0.82c0,0.137,0.137,0.137,0.137,0.137h0.684v1.231h1.368c0,0.137-0.137,0.274-0.137,0.274H6.56v2.188H6.013
		c-0.137,0-0.137,0.137-0.137,0.137v1.504h2.325v-1.504c0-0.137-0.137-0.137-0.137-0.137H6.97v-1.778h0.547
		c0,0.547,0.411,0.957,0.957,0.957h3.692c0.547,0,0.957-0.411,0.957-0.82h0.82v1.641h-0.82v0.957h1.915v-0.957h-0.82
		C14.219,12.356,14.219,10.441,14.219,10.441z M6.15,8.117h0.684V8.39H6.15V8.117z M13.672,13.04h-0.274v-0.274h0.274V13.04z
		 M14.765,13.04h-0.684v-0.274h0.684V13.04z"/>
</g>
</svg>
