<?xml version="1.0"?>
<svg xmlns="http://www.w3.org/2000/svg" enable-background="new 0 0 110 110" height="512px" viewBox="0 0 110 110" width="512px"><g transform="matrix(3.69877e-16 1.20811 -1.20811 3.69877e-16 121.446 -11.446)"><circle cx="55" cy="55" fill="#344d5b" r="45" data-original="#344D5B"/><circle cx="55" cy="55" fill="#dbd8dd" r="41.25" data-original="#DBD8DD"/><circle cx="55" cy="55" fill="#ebf0f3" r="35.91" data-original="#EBF0F3"/><path d="m58.0638237 70.8563614c6.4598961-1.243927 11.5556831-6.3326416 12.7925377-12.799614l14.8775558-3.0602837-14.8775558-3.0603752c-1.243927-6.4598961-6.3326416-11.5486107-12.7925377-12.7925339l-3.0602875-14.8774719-3.0603714 14.8774719c-6.4669724 1.2368507-11.555687 6.3326378-12.7996101 12.7925339l-14.8774719 3.0603752 14.8774719 3.0602837c1.2368507 6.4669724 6.3326378 11.5627594 12.7996101 12.799614l3.0603714 14.8775558zm-15.4570732-12.0858536c-.3604622-1.1944008-.5583763-2.459549-.5583763-3.774044 0-1.3075943.1979141-2.5727425.5583763-3.7671432 1.2509956-4.1205292 4.5021248-7.3715744 8.62257-8.62257 1.1944008-.3604622 2.459549-.5583763 3.7742157-.5583763 1.3074226 0 2.5725708.1979141 3.7670593.5583763 4.1204414 1.2509956 7.3716545 4.5020409 8.62257 8.62257.3604584 1.1944008.5583725 2.459549.5583725 3.7671432 0 1.3144951-.1979141 2.5796432-.5583725 3.774044-1.2509155 4.1205292-4.5021286 7.3717422-8.62257 8.6226578-1.1944885.3604584-2.4596367.5583725-3.7670593.5583725-1.3146667 0-2.5798149-.1979141-3.7742157-.5583725-4.1204452-1.2509155-7.3715744-4.5021286-8.62257-8.6226578z" fill="#dbd8dd" data-original="#DBD8DD"/><g fill="#344d5b"><path d="m92.206055 54.273022h3.114884v1.453959h-3.114884z" data-original="#000000"/><path d="m14.679059 54.273022h3.114884v1.453959h-3.114884z" data-original="#000000"/><path d="m53.442558 93.036522h3.114884v1.453959h-3.114884z" transform="matrix(0 1 -1 0 148.764 38.764)" data-original="#000000"/><path d="m53.442558 15.509522h3.114884v1.453959h-3.114884z" transform="matrix(0 1 -1 0 71.237 -38.764)" data-original="#000000"/></g><path d="m78.501358 31.4986439-29.0905952 17.9121189-17.9121189 29.0905952 29.0905933-17.9121208z" fill="#4da0dc" data-original="#4DA0DC"/><path d="m78.501358 31.4986439-29.0905952 17.9121189 11.1784744 11.1784744z" fill="#dd584d" data-original="#DD584D"/><path d="m51.4563599 51.4562302c-1.9572029 1.9572029-1.9572029 5.1302719 0 7.0874748 1.9570732 1.9570732 5.1302071 1.9571381 7.08741-.0000648 1.9570732-1.9570732 1.9570084-5.1302071-.0000648-7.0872803-1.957203-1.9572029-5.130272-1.9572029-7.0873452-.0001297z" fill="#ededed" data-original="#EDEDED" class="active-path" style="fill:#EDEDED"/></g> </svg>
